STARTFONT 2.1
FONT -FontForge-Logisoso-Medium-R-Normal--160-1540-75-75-P-728-ISO10646-1
SIZE 154 75 75
FONTBOUNDINGBOX 431 164 -12 -28
COMMENT "Generated by fontforge, http://fontforge.sourceforge.net"
COMMENT "Created by Mathieu Gabiot with FontForge 2.0 (http://fontforge.sf.net) - Brussels - 2009"
STARTPROPERTIES 40
FOUNDRY "FontForge"
FAMILY_NAME "Logisoso"
WEIGHT_NAME "Medium"
SLANT "R"
SETWIDTH_NAME "Normal"
ADD_STYLE_NAME ""
PIXEL_SIZE 160
POINT_SIZE 1540
RESOLUTION_X 75
RESOLUTION_Y 75
SPACING "P"
AVERAGE_WIDTH 728
CHARSET_REGISTRY "ISO10646"
CHARSET_ENCODING "1"
FONTNAME_REGISTRY ""
CHARSET_COLLECTIONS "ISO8859-2 ISO8859-9 ISO8859-4 ISO10646-1"
FONT_NAME "Logisoso"
FACE_NAME "Logisoso"
COPYRIGHT "Created by Mathieu Gabiot with FontForge 2.0 (http://fontforge.sf.net) - Brussels - 2009"
FONT_VERSION "1.0"
FONT_ASCENT 128
FONT_DESCENT 32
UNDERLINE_POSITION -56
UNDERLINE_THICKNESS 8
X_HEIGHT 84
CAP_HEIGHT 111
RAW_ASCENT 800
RAW_DESCENT 200
NORM_SPACE 72
RELATIVE_WEIGHT 50
RELATIVE_SETWIDTH 30
SUPERSCRIPT_X 0
SUPERSCRIPT_Y 76
SUPERSCRIPT_SIZE 112
SUBSCRIPT_X 0
SUBSCRIPT_Y 22
SUBSCRIPT_SIZE 112
FIGURE_WIDTH 72
AVG_LOWERCASE_WIDTH 717
AVG_UPPERCASE_WIDTH 718
ENDPROPERTIES
CHARS 513
STARTCHAR uni001E
ENCODING 30
SWIDTH 450 0
DWIDTH 72 0
BBX 1 1 0 0
BITMAP
00
ENDCHAR
STARTCHAR uni001F
ENCODING 31
SWIDTH 450 0
DWIDTH 72 0
BBX 1 1 0 0
BITMAP
00
ENDCHAR
STARTCHAR space
ENCODING 32
SWIDTH 450 0
DWIDTH 72 0
BBX 1 1 0 0
BITMAP
00
ENDCHAR
STARTCHAR exclam
ENCODING 33
SWIDTH 260 0
DWIDTH 42 0
BBX 14 112 14 0
BITMAP
FFF8
FFFC
FFFC
FFFC
FFFC
FFFC
FFFC
FFFC
FFFC
FFFC
FFFC
FFFC
FFFC
FFFC
FFFC
FFFC
FFFC
FFFC
FFFC
FFFC
FFFC
FFFC
FFFC
FFFC
FFFC
FFFC
FFFC
FFFC
FFFC
FFFC
FFFC
FFFC
FFFC
FFFC
FFFC
FFFC
FFFC
FFFC
FFFC
FFFC
FFFC
FFFC
FFFC
FFFC
FFFC
FFFC
FFFC
FFFC
FFFC
FFFC
FFFC
FFFC
FFFC
FFFC
FFFC
FFFC
FFFC
FFFC
FFFC
FFFC
FFFC
FFFC
FFFC
FFFC
FFFC
FFFC
FFFC
FFFC
FFFC
FFFC
FFFC
FFFC
FFFC
FFFC
FFFC
FFFC
FFFC
FFFC
FFFC
FFFC
FFFC
FFFC
FFFC
FFFC
FFFC
FFFC
FFFC
FFFC
FFFC
0000
0000
0000
0000
0000
0000
0000
0000
0000
0000
1FC0
3FE0
7FF0
FFF8
FFF8
FFF8
FFF8
FFF8
FFF8
7FF8
7FF0
3FE0
0F80
ENDCHAR
STARTCHAR quotedbl
ENCODING 34
SWIDTH 450 0
DWIDTH 72 0
BBX 30 20 21 92
BITMAP
0F8007C0
3FC01FF0
7FE03FF8
FFF03FF8
FFF87FFC
FFF87FFC
FFF87FFC
FFF87FFC
FFF87FFC
FFF83FFC
7FF03FF8
3FE01FF8
1FE00FF0
0FC007E0
0FC007E0
0F8007C0
0F0007C0
0F000780
0E000700
0E000700
ENDCHAR
STARTCHAR numbersign
ENCODING 35
SWIDTH 450 0
DWIDTH 72 0
BBX 56 112 8 0
BITMAP
00003FFF807FFF
00003FFF807FFF
00003FFF807FFF
00003FFF807FFF
00007FFF807FFF
00007FFF807FFF
00007FFF00FFFF
00007FFF00FFFE
00007FFF00FFFE
00007FFF00FFFE
00007FFF00FFFE
0000FFFF00FFFE
0000FFFE01FFFE
0000FFFE01FFFC
0000FFFE01FFFC
0000FFFE01FFFC
0000FFFE01FFFC
0000FFFE01FFFC
0001FFFE01FFFC
0001FFFC03FFFC
0001FFFC03FFF8
0001FFFC03FFF8
0001FFFC03FFF8
0001FFFC03FFF8
0003FFFC03FFF8
0003FFF803FFF8
0003FFF807FFF0
0003FFF807FFF0
0003FFF807FFF0
0003FFF807FFF0
0003FFF807FFF0
0007FFF007FFF0
0007FFF00FFFF0
0007FFF00FFFE0
0007FFF00FFFE0
0007FFF00FFFE0
7FFFFFFFFFFFFE
FFFFFFFFFFFFFF
FFFFFFFFFFFFFF
FFFFFFFFFFFFFF
FFFFFFFFFFFFFF
FFFFFFFFFFFFFF
FFFFFFFFFFFFFF
FFFFFFFFFFFFFF
FFFFFFFFFFFFFF
FFFFFFFFFFFFFF
FFFFFFFFFFFFFF
FFFFFFFFFFFFFF
FFFFFFFFFFFFFF
FFFFFFFFFFFFFF
FFFFFFFFFFFFFE
003FFF807FFF80
003FFF807FFF80
003FFF807FFF00
003FFF807FFF00
003FFF807FFF00
003FFF807FFF00
007FFF807FFF00
007FFF00FFFF00
007FFF00FFFE00
007FFF00FFFE00
007FFF00FFFE00
007FFF00FFFE00
FFFFFFFFFFFFFF
FFFFFFFFFFFFFF
FFFFFFFFFFFFFF
FFFFFFFFFFFFFF
FFFFFFFFFFFFFF
FFFFFFFFFFFFFF
FFFFFFFFFFFFFF
FFFFFFFFFFFFFF
FFFFFFFFFFFFFF
FFFFFFFFFFFFFF
FFFFFFFFFFFFFF
FFFFFFFFFFFFFF
FFFFFFFFFFFFFF
FFFFFFFFFFFFFF
03FFF807FFF800
03FFF807FFF000
03FFF807FFF000
03FFF807FFF000
03FFF807FFF000
03FFF807FFF000
07FFF007FFF000
07FFF00FFFE000
07FFF00FFFE000
07FFF00FFFE000
07FFF00FFFE000
07FFF00FFFE000
0FFFF00FFFE000
0FFFE00FFFE000
0FFFE01FFFC000
0FFFE01FFFC000
0FFFE01FFFC000
0FFFE01FFFC000
0FFFE01FFFC000
1FFFC01FFFC000
1FFFC03FFF8000
1FFFC03FFF8000
1FFFC03FFF8000
1FFFC03FFF8000
1FFFC03FFF8000
3FFFC03FFF8000
3FFF803FFF8000
3FFF807FFF0000
3FFF807FFF0000
3FFF807FFF0000
3FFF807FFF0000
3FFF807FFF0000
7FFF007FFF0000
7FFF00FFFF0000
7FFF007FFE0000
ENDCHAR
STARTCHAR dollar
ENCODING 36
SWIDTH 450 0
DWIDTH 72 0
BBX 56 141 8 -15
BITMAP
000007FFE00000
000007FFE00000
000007FFE00000
000007FFE00000
000007FFE00000
000007FFE00000
000007FFE00000
000007FFE00000
000007FFE00000
000007FFE00000
000007FFE00000
000007FFE00000
000007FFE00000
000007FFE00000
000007FFE00000
00001FFFF80000
0000FFFFFF0000
0003FFFFFFC000
0007FFFFFFE000
001FFFFFFFF800
003FFFFFFFFC00
007FFFFFFFFE00
00FFFFFFFFFF00
01FFFFFFFFFF80
03FFFFFFFFFFC0
07FFFFFFFFFFE0
07FFFFFFFFFFE0
0FFFFFFFFFFFF0
1FFFFF80FFFFF8
1FFFFC003FFFF8
3FFFF0000FFFFC
3FFFE00007FFFC
3FFFC00003FFFC
7FFF800001FFFE
7FFF000001FFFE
7FFF000000FFFE
FFFE000000FFFF
FFFE0000007FFF
FFFC0000007FFF
FFFC0000007FFF
FFFC0000003FFF
FFFC0000003FFF
FFFC0000000000
FFFC0000000000
FFFC0000000000
FFFC0000000000
FFFE0000000000
FFFE0000000000
7FFF0000000000
7FFF0000000000
7FFF8000000000
3FFFC000000000
3FFFE000000000
3FFFF000000000
1FFFF800000000
1FFFFC00000000
0FFFFE00000000
07FFFF00000000
07FFFF80000000
03FFFFE0000000
01FFFFF0000000
00FFFFF8000000
007FFFFC000000
003FFFFE000000
001FFFFF000000
000FFFFF800000
0007FFFFE00000
0003FFFFF00000
0000FFFFF80000
00007FFFFC0000
00003FFFFE0000
00001FFFFF0000
00000FFFFF8000
000007FFFFE000
000003FFFFF000
000000FFFFF800
0000007FFFFC00
0000003FFFFE00
0000001FFFFF00
0000000FFFFF80
00000007FFFFC0
00000003FFFFE0
00000001FFFFE0
000000007FFFF0
000000003FFFF8
000000001FFFF8
000000000FFFFC
0000000007FFFC
0000000003FFFC
0000000001FFFE
0000000000FFFE
0000000000FFFE
00000000007FFE
00000000007FFF
00000000003FFF
00000000003FFF
00000000003FFF
00000000003FFF
FFFC0000003FFF
FFFC0000003FFF
FFFC0000003FFF
FFFE0000007FFF
FFFE0000007FFF
FFFE0000007FFF
7FFF000000FFFE
7FFF000000FFFE
7FFF800001FFFE
7FFFC00003FFFC
3FFFE00007FFFC
3FFFF0000FFFFC
1FFFFC003FFFF8
1FFFFF00FFFFF8
0FFFFFFFFFFFF0
07FFFFFFFFFFE0
07FFFFFFFFFFE0
03FFFFFFFFFFC0
01FFFFFFFFFF80
00FFFFFFFFFF00
007FFFFFFFFE00
003FFFFFFFFC00
001FFFFFFFF800
0007FFFFFFE000
0003FFFFFFC000
0000FFFFFF0000
00001FFFF80000
000007FFE00000
000007FFE00000
000007FFE00000
000007FFE00000
000007FFE00000
000007FFE00000
000007FFE00000
000007FFE00000
000007FFE00000
000007FFE00000
000007FFE00000
000007FFE00000
000007FFE00000
000007FFE00000
000007FFE00000
000007FFE00000
ENDCHAR
STARTCHAR percent
ENCODING 37
SWIDTH 450 0
DWIDTH 72 0
BBX 56 113 8 -1
BITMAP
007FC000003FFF
01FFF800007FFF
07FFFC00007FFE
0FFFFE00007FFE
1FFFFF0000FFFE
3FFFFF8000FFFC
3FFFFFC000FFFC
7FFFFFC001FFF8
7FFFFFE001FFF8
FFFFFFE003FFF8
FFFFFFF003FFF0
FFE0FFF003FFF0
FFE07FF007FFF0
FFC07FF007FFE0
FFC07FF007FFE0
FFE07FF00FFFC0
FFE0FFF00FFFC0
FFF9FFF01FFFC0
FFFFFFE01FFF80
7FFFFFE01FFF80
7FFFFFC03FFF80
3FFFFFC03FFF00
3FFFFF803FFF00
1FFFFF007FFE00
0FFFFE007FFE00
07FFFC00FFFE00
01FFF800FFFC00
007FC000FFFC00
00000001FFFC00
00000001FFF800
00000001FFF800
00000003FFF000
00000003FFF000
00000007FFF000
00000007FFE000
00000007FFE000
0000000FFFE000
0000000FFFC000
0000000FFFC000
0000001FFF8000
0000001FFF8000
0000003FFF8000
0000003FFF0000
0000003FFF0000
0000007FFF0000
0000007FFE0000
0000007FFE0000
000000FFFC0000
000000FFFC0000
000001FFFC0000
000001FFF80000
000001FFF80000
000003FFF80000
000003FFF00000
000003FFF00000
000007FFE00000
000007FFE00000
00000FFFE00000
00000FFFC00000
00000FFFC00000
00001FFFC00000
00001FFF800000
00001FFF800000
00003FFF000000
00003FFF000000
00007FFF000000
00007FFE000000
00007FFE000000
0000FFFE000000
0000FFFC000000
0000FFFC000000
0001FFF8000000
0001FFF8000000
0003FFF8000000
0003FFF0000000
0003FFF0000000
0007FFF0000000
0007FFE0000000
0007FFE0000000
000FFFC0000000
000FFFC0000000
001FFFC0000000
001FFF80000000
001FFF80000000
003FFF80000000
003FFF0003FC00
003FFF000FFF80
007FFE003FFFC0
007FFE007FFFF0
00FFFE00FFFFF8
00FFFC01FFFFF8
00FFFC03FFFFFC
01FFFC03FFFFFE
01FFF807FFFFFE
01FFF807FFFFFF
03FFF00FFFFFFF
03FFF00FFF0FFF
07FFF00FFE07FF
07FFE00FFE03FF
07FFE00FFE03FF
0FFFE00FFE07FF
0FFFC00FFE07FF
0FFFC00FFF9FFF
1FFF8007FFFFFF
1FFF8007FFFFFE
3FFF8007FFFFFE
3FFF0003FFFFFC
3FFF0001FFFFFC
7FFF0001FFFFF8
7FFE0000FFFFF0
7FFE00003FFFE0
FFFC00001FFF80
FFFC000007FE00
ENDCHAR
STARTCHAR ampersand
ENCODING 38
SWIDTH 450 0
DWIDTH 72 0
BBX 56 113 8 0
BITMAP
000007FFE00000
00003FFFFC0000
0000FFFFFF0000
0003FFFFFFC000
0007FFFFFFE000
000FFFFFFFF000
001FFFFFFFF800
003FFFFFFFFC00
007FFFFFFFFE00
00FFFFFFFFFF00
01FFFFFFFFFF80
01FFFFFFFFFF80
03FFFFFFFFFFC0
03FFFFFFFFFFC0
07FFFF00FFFFE0
07FFFC003FFFE0
0FFFF8001FFFF0
0FFFF0000FFFF0
0FFFE00007FFF0
0FFFC00007FFF0
1FFFC00003FFF8
1FFFC00003FFF8
1FFF800003FFF8
1FFF800003FFF8
1FFF8000000000
1FFF8000000000
1FFFC000000000
1FFFC000000000
0FFFC000000000
0FFFE000000000
0FFFE000000000
0FFFF000000000
0FFFF000000000
07FFF000000000
07FFF800000000
03FFF800000000
03FFFC00000000
01FFFC00000000
01FFFE00000000
00FFFE00000000
00FFFF00000000
007FFF00000000
007FFF80000000
00FFFF80000000
01FFFF80000000
03FFFFC0000000
07FFFFC0000000
0FFFFFE0000000
0FFFFFE0000000
1FFFFFF0000000
1FFFFFF0000000
3FFFFFF8000000
3FFFFFF8000000
7FFFFFFC000000
7FFFFFFC000000
7FFFFFFC000000
FFFFFFFE000000
FFFEFFFE000000
FFFEFFFF000000
FFFC7FFF000000
FFFC7FFF800000
FFFC3FFF800000
FFFC3FFFC00000
FFFC3FFFC03FFF
FFFC1FFFC03FFF
FFFC1FFFE03FFF
FFFC0FFFE03FFF
FFFC0FFFF03FFF
FFFC07FFF03FFF
FFFC07FFF83FFF
FFFC03FFF83FFF
FFFC03FFFC3FFF
FFFC03FFFC3FFF
FFFC01FFFC3FFF
FFFC01FFFE3FFF
FFFC00FFFE3FFF
FFFC00FFFF3FFF
FFFC007FFF3FFF
FFFC007FFFBFFF
FFFC003FFFBFFF
FFFC003FFFFFFF
FFFC001FFFFFFF
FFFC001FFFFFFF
FFFC001FFFFFFF
FFFC000FFFFFFF
FFFC000FFFFFFF
FFFC0007FFFFFF
FFFC0007FFFFFF
FFFC0003FFFFFF
FFFE0003FFFFFF
FFFE0001FFFFFF
FFFF0001FFFFFE
7FFF0001FFFFFE
7FFF8000FFFFFE
7FFFC000FFFFFE
3FFFE0007FFFFC
3FFFF0007FFFFC
1FFFFC003FFFF8
1FFFFF81FFFFF8
0FFFFFFFFFFFF0
0FFFFFFFFFFFE0
07FFFFFFFFFFE0
03FFFFFFFFFFF0
01FFFFFFFFFFF0
00FFFFFFFFFFF8
007FFFFFFFFFF8
003FFFFFFFFFF8
001FFFFFFFFFFC
0007FFFFFFFFFC
0003FFFFFFFFFE
0000FFFFFFFFFE
00001FFFF8FFFF
000003FF807FFF
ENDCHAR
STARTCHAR quotesingle
ENCODING 39
SWIDTH 260 0
DWIDTH 42 0
BBX 14 20 14 92
BITMAP
0780
1FE0
3FF0
7FF8
FFF8
FFF8
FFFC
FFFC
FFF8
7FF8
7FF0
3FF0
1FE0
0FE0
0FC0
0F80
0F80
0F00
0E00
0E00
ENDCHAR
STARTCHAR parenleft
ENCODING 40
SWIDTH 450 0
DWIDTH 72 0
BBX 28 111 21 0
BITMAP
0000C000
0001E000
0001F800
0003FE00
0003FF00
0007FFC0
000FFFF0
000FFFF0
001FFFE0
001FFFE0
003FFFC0
003FFF80
007FFF80
007FFF00
00FFFF00
00FFFE00
00FFFE00
01FFFC00
01FFFC00
03FFF800
03FFF800
03FFF000
07FFF000
07FFE000
07FFE000
0FFFE000
0FFFC000
0FFFC000
1FFFC000
1FFF8000
1FFF8000
3FFF8000
3FFF0000
3FFF0000
3FFF0000
3FFF0000
7FFE0000
7FFE0000
7FFE0000
7FFE0000
7FFE0000
FFFE0000
FFFC0000
FFFC0000
FFFC0000
FFFC0000
FFFC0000
FFFC0000
FFFC0000
FFFC0000
FFFC0000
FFFC0000
FFFC0000
FFFC0000
FFFC0000
FFFC0000
FFFC0000
FFFC0000
FFFC0000
FFFC0000
FFFC0000
FFFC0000
FFFC0000
FFFC0000
FFFC0000
FFFC0000
FFFC0000
7FFC0000
7FFE0000
7FFE0000
7FFE0000
7FFE0000
7FFE0000
3FFE0000
3FFF0000
3FFF0000
3FFF0000
3FFF0000
1FFF8000
1FFF8000
1FFF8000
1FFF8000
0FFFC000
0FFFC000
0FFFC000
07FFE000
07FFE000
07FFF000
07FFF000
03FFF000
03FFF800
01FFF800
01FFFC00
01FFFC00
00FFFE00
00FFFE00
007FFF00
007FFF00
007FFF80
003FFFC0
003FFFC0
001FFFE0
001FFFE0
000FFFF0
000FFFF0
0007FFE0
0007FF80
0003FE00
0003FC00
0001F000
0000C000
ENDCHAR
STARTCHAR parenright
ENCODING 41
SWIDTH 450 0
DWIDTH 72 0
BBX 28 111 23 0
BITMAP
00300000
00F80000
03FC0000
07FC0000
1FFE0000
7FFE0000
FFFF0000
FFFF0000
7FFF8000
7FFF8000
3FFFC000
1FFFC000
1FFFE000
0FFFE000
0FFFF000
07FFF000
07FFF000
03FFF800
03FFF800
01FFFC00
01FFFC00
00FFFC00
00FFFE00
007FFE00
007FFF00
007FFF00
003FFF00
003FFF00
003FFF80
001FFF80
001FFF80
001FFFC0
000FFFC0
000FFFC0
000FFFC0
000FFFE0
0007FFE0
0007FFE0
0007FFE0
0007FFE0
0007FFE0
0007FFF0
0003FFF0
0003FFF0
0003FFF0
0003FFF0
0003FFF0
0003FFF0
0003FFF0
0003FFF0
0003FFF0
0003FFF0
0003FFF0
0003FFF0
0003FFF0
0003FFF0
0003FFF0
0003FFF0
0003FFF0
0003FFF0
0003FFF0
0003FFF0
0003FFF0
0003FFF0
0003FFF0
0003FFF0
0003FFE0
0003FFE0
0007FFE0
0007FFE0
0007FFE0
0007FFE0
0007FFE0
000FFFC0
000FFFC0
000FFFC0
000FFFC0
000FFFC0
001FFF80
001FFF80
001FFF80
003FFF80
003FFF00
003FFF00
007FFF00
007FFE00
007FFE00
00FFFE00
00FFFC00
01FFFC00
01FFFC00
03FFF800
03FFF800
07FFF800
07FFF000
0FFFF000
0FFFE000
1FFFE000
1FFFC000
3FFFC000
3FFF8000
7FFF8000
FFFF8000
FFFF0000
FFFE0000
3FFE0000
0FFC0000
07FC0000
01F80000
00780000
00300000
ENDCHAR
STARTCHAR asterisk
ENCODING 42
SWIDTH 450 0
DWIDTH 72 0
BBX 48 50 12 78
BITMAP
00001FF80000
00001FF80000
00001FF80000
00001FF80000
00001FF80000
00001FF80000
00001FF80000
00001FF80000
04001FF80020
0F001FF800F0
0FC01FF803F0
1FE01FF80FF8
3FF81FF81FFC
3FFE1FF87FFC
7FFF9FF9FFFE
7FFFDFFBFFFE
FFFFFFFFFFFF
7FFFFFFFFFFE
3FFFFFFFFFF8
0FFFFFFFFFF0
03FFFFFFFFC0
00FFFFFFFF00
007FFFFFFE00
001FFFFFF800
0007FFFFE000
000FFFFFF000
003FFFFFFC00
007FFFFFFE00
01FFFFFFFF80
07FFFFFFFFE0
1FFFFFFFFFF0
3FFFFFFFFFFC
FFFFFFFFFFFF
FFFFFFFFFFFF
7FFFDFFBFFFE
7FFF1FF8FFFC
3FFC1FF83FFC
1FF81FF81FF8
1FE01FF807F8
0F801FF801F0
0E001FF80060
04001FF80020
00001FF80000
00001FF80000
00001FF80000
00001FF80000
00001FF80000
00001FF80000
00001FF80000
00001FF80000
ENDCHAR
STARTCHAR plus
ENCODING 43
SWIDTH 450 0
DWIDTH 72 0
BBX 42 43 15 21
BITMAP
0003FFF00000
0003FFF00000
0003FFF00000
0003FFF00000
0003FFF00000
0003FFF00000
0003FFF00000
0003FFF00000
0003FFF00000
0003FFF00000
0003FFF00000
0003FFF00000
0003FFF00000
0003FFF00000
FFFFFFFFFFC0
FFFFFFFFFFC0
FFFFFFFFFFC0
FFFFFFFFFFC0
FFFFFFFFFFC0
FFFFFFFFFFC0
FFFFFFFFFFC0
FFFFFFFFFFC0
FFFFFFFFFFC0
FFFFFFFFFFC0
FFFFFFFFFFC0
FFFFFFFFFFC0
FFFFFFFFFFC0
FFFFFFFFFFC0
FFFFFFFFFFC0
0003FFF00000
0003FFF00000
0003FFF00000
0003FFF00000
0003FFF00000
0003FFF00000
0003FFF00000
0003FFF00000
0003FFF00000
0003FFF00000
0003FFF00000
0003FFF00000
0003FFF00000
0003FFF00000
ENDCHAR
STARTCHAR comma
ENCODING 44
SWIDTH 260 0
DWIDTH 42 0
BBX 14 21 14 -7
BITMAP
0FC0
3FE0
7FF0
7FF8
FFF8
FFFC
FFFC
FFFC
FFFC
FFF8
7FF8
7FF8
3FF8
0FF0
01F0
01F0
01F0
01E0
01E0
01E0
01E0
ENDCHAR
STARTCHAR hyphen
ENCODING 45
SWIDTH 450 0
DWIDTH 72 0
BBX 42 15 15 35
BITMAP
FFFFFFFFFFC0
FFFFFFFFFFC0
FFFFFFFFFFC0
FFFFFFFFFFC0
FFFFFFFFFFC0
FFFFFFFFFFC0
FFFFFFFFFFC0
FFFFFFFFFFC0
FFFFFFFFFFC0
FFFFFFFFFFC0
FFFFFFFFFFC0
FFFFFFFFFFC0
FFFFFFFFFFC0
FFFFFFFFFFC0
FFFFFFFFFFC0
ENDCHAR
STARTCHAR period
ENCODING 46
SWIDTH 260 0
DWIDTH 42 0
BBX 14 14 14 0
BITMAP
0FC0
3FE0
7FF0
7FF8
FFF8
FFFC
FFFC
FFFC
FFFC
FFF8
7FF8
7FF0
3FE0
0F80
ENDCHAR
STARTCHAR slash
ENCODING 47
SWIDTH 450 0
DWIDTH 72 0
BBX 54 112 9 0
BITMAP
0000000001FFFC
0000000003FFFC
0000000003FFF8
0000000003FFF8
0000000007FFF8
0000000007FFF0
0000000007FFF0
000000000FFFF0
000000000FFFE0
000000000FFFE0
000000001FFFE0
000000001FFFC0
000000001FFFC0
000000003FFFC0
000000003FFF80
000000003FFF80
000000007FFF00
000000007FFF00
00000000FFFF00
00000000FFFE00
00000000FFFE00
00000001FFFE00
00000001FFFC00
00000001FFFC00
00000003FFFC00
00000003FFF800
00000003FFF800
00000007FFF800
00000007FFF000
00000007FFF000
0000000FFFF000
0000000FFFE000
0000000FFFE000
0000001FFFE000
0000001FFFC000
0000001FFFC000
0000003FFF8000
0000003FFF8000
0000007FFF8000
0000007FFF0000
0000007FFF0000
000000FFFF0000
000000FFFE0000
000000FFFE0000
000001FFFE0000
000001FFFC0000
000001FFFC0000
000003FFFC0000
000003FFF80000
000003FFF80000
000007FFF80000
000007FFF00000
000007FFF00000
00000FFFE00000
00000FFFE00000
00000FFFE00000
00001FFFC00000
00001FFFC00000
00003FFFC00000
00003FFF800000
00003FFF800000
00007FFF800000
00007FFF000000
00007FFF000000
0000FFFF000000
0000FFFE000000
0000FFFE000000
0001FFFE000000
0001FFFC000000
0001FFFC000000
0003FFFC000000
0003FFF8000000
0003FFF8000000
0007FFF0000000
0007FFF0000000
0007FFF0000000
000FFFE0000000
000FFFE0000000
001FFFE0000000
001FFFC0000000
001FFFC0000000
003FFFC0000000
003FFF80000000
003FFF80000000
007FFF80000000
007FFF00000000
007FFF00000000
00FFFF00000000
00FFFE00000000
00FFFE00000000
01FFFE00000000
01FFFC00000000
01FFFC00000000
03FFF800000000
03FFF800000000
03FFF800000000
07FFF000000000
07FFF000000000
0FFFF000000000
0FFFE000000000
0FFFE000000000
1FFFE000000000
1FFFC000000000
1FFFC000000000
3FFFC000000000
3FFF8000000000
3FFF8000000000
7FFF8000000000
7FFF0000000000
7FFF0000000000
FFFE0000000000
FFFE0000000000
ENDCHAR
STARTCHAR zero
ENCODING 48
SWIDTH 450 0
DWIDTH 72 0
BBX 56 112 8 0
BITMAP
000000FF000000
00001FFFF80000
00007FFFFE0000
0001FFFFFF8000
0007FFFFFFE000
001FFFFFFFF800
003FFFFFFFFC00
007FFFFFFFFE00
00FFFFFFFFFF00
01FFFFFFFFFF80
03FFFFFFFFFFC0
07FFFFFFFFFFE0
07FFFFFFFFFFE0
0FFFFFFFFFFFF0
0FFFFF01FFFFF0
1FFFFC003FFFF8
1FFFF0000FFFF8
3FFFE00007FFFC
3FFFC00003FFFC
7FFF800001FFFE
7FFF000000FFFE
7FFE000000FFFE
7FFE0000007FFE
FFFE0000007FFF
FFFC0000007FFF
FFFC0000003FFF
FFFC0000003FFF
FFFC0000003FFF
FFFC0000003FFF
FFFC0000003FFF
FFFC0000003FFF
FFFC0000003FFF
FFFC0000003FFF
FFFC0000003FFF
FFFC0000003FFF
FFFC0000003FFF
FFFC0000003FFF
FFFC0000003FFF
FFFC0000003FFF
FFFC0000003FFF
FFFC0000003FFF
FFFC0000003FFF
FFFC0000003FFF
FFFC0000003FFF
FFFC0000003FFF
FFFC0000003FFF
FFFC0000003FFF
FFFC0000003FFF
FFFC0000003FFF
FFFC0000003FFF
FFFC0000003FFF
FFFC0000003FFF
FFFC0000003FFF
FFFC0000003FFF
FFFC0000003FFF
FFFC0000003FFF
FFFC0000003FFF
FFFC0000003FFF
FFFC0000003FFF
FFFC0000003FFF
FFFC0000003FFF
FFFC0000003FFF
FFFC0000003FFF
FFFC0000003FFF
FFFC0000003FFF
FFFC0000003FFF
FFFC0000003FFF
FFFC0000003FFF
FFFC0000003FFF
FFFC0000003FFF
FFFC0000003FFF
FFFC0000003FFF
FFFC0000003FFF
FFFC0000003FFF
FFFC0000003FFF
FFFC0000003FFF
FFFC0000003FFF
FFFC0000003FFF
FFFC0000003FFF
FFFC0000003FFF
FFFC0000003FFF
FFFC0000003FFF
FFFC0000003FFF
FFFC0000003FFF
FFFC0000003FFF
FFFC0000003FFF
FFFC0000003FFF
FFFC0000003FFF
FFFE0000007FFF
7FFE0000007FFE
7FFE000000FFFE
7FFF000000FFFE
7FFF800001FFFE
3FFFC00003FFFC
3FFFE00007FFFC
3FFFF0000FFFF8
1FFFFC003FFFF8
1FFFFF01FFFFF0
0FFFFFFFFFFFF0
07FFFFFFFFFFE0
07FFFFFFFFFFE0
03FFFFFFFFFFC0
01FFFFFFFFFF80
00FFFFFFFFFF00
007FFFFFFFFE00
003FFFFFFFFC00
001FFFFFFFF800
0007FFFFFFE000
0001FFFFFFC000
00007FFFFF0000
00001FFFF80000
000001FF800000
ENDCHAR
STARTCHAR one
ENCODING 49
SWIDTH 450 0
DWIDTH 72 0
BBX 28 112 24 0
BITMAP
0003FFF0
0003FFF0
0003FFF0
0007FFF0
0007FFF0
0007FFF0
000FFFF0
000FFFF0
000FFFF0
001FFFF0
003FFFF0
003FFFF0
007FFFF0
00FFFFF0
01FFFFF0
03FFFFF0
0FFFFFF0
3FFFFFF0
FFFFFFF0
FFFFFFF0
FFFFFFF0
FFFFFFF0
FFFFFFF0
FFFFFFF0
FFFFFFF0
FFFFFFF0
FFFFFFF0
FFFFFFF0
FFE3FFF0
FF83FFF0
FE03FFF0
F003FFF0
0003FFF0
0003FFF0
0003FFF0
0003FFF0
0003FFF0
0003FFF0
0003FFF0
0003FFF0
0003FFF0
0003FFF0
0003FFF0
0003FFF0
0003FFF0
0003FFF0
0003FFF0
0003FFF0
0003FFF0
0003FFF0
0003FFF0
0003FFF0
0003FFF0
0003FFF0
0003FFF0
0003FFF0
0003FFF0
0003FFF0
0003FFF0
0003FFF0
0003FFF0
0003FFF0
0003FFF0
0003FFF0
0003FFF0
0003FFF0
0003FFF0
0003FFF0
0003FFF0
0003FFF0
0003FFF0
0003FFF0
0003FFF0
0003FFF0
0003FFF0
0003FFF0
0003FFF0
0003FFF0
0003FFF0
0003FFF0
0003FFF0
0003FFF0
0003FFF0
0003FFF0
0003FFF0
0003FFF0
0003FFF0
0003FFF0
0003FFF0
0003FFF0
0003FFF0
0003FFF0
0003FFF0
0003FFF0
0003FFF0
0003FFF0
0003FFF0
0003FFF0
0003FFF0
0003FFF0
0003FFF0
0003FFF0
0003FFF0
0003FFF0
0003FFF0
0003FFF0
0003FFF0
0003FFF0
0003FFF0
0003FFF0
0003FFF0
0003FFF0
ENDCHAR
STARTCHAR two
ENCODING 50
SWIDTH 450 0
DWIDTH 72 0
BBX 56 112 8 0
BITMAP
000001FF800000
00000FFFF80000
00007FFFFE0000
0001FFFFFF8000
0007FFFFFFE000
000FFFFFFFF800
003FFFFFFFFC00
007FFFFFFFFE00
00FFFFFFFFFF00
01FFFFFFFFFF80
03FFFFFFFFFFC0
03FFFFFFFFFFE0
07FFFFFFFFFFE0
0FFFFFFFFFFFF0
0FFFFF01FFFFF8
1FFFFC003FFFF8
1FFFF0000FFFFC
3FFFE00007FFFC
3FFFC00003FFFC
7FFF800001FFFE
7FFF000000FFFE
7FFF000000FFFE
7FFE0000007FFF
7FFE0000007FFF
FFFE0000003FFF
FFFC0000003FFF
FFFC0000003FFF
FFFC0000003FFF
FFFC0000003FFF
FFFC0000003FFF
FFFC0000003FFF
FFFE0000003FFF
7FFE0000007FFF
7FFE0000007FFE
7FFF000000FFFE
7FFF000000FFFE
7FFE000001FFFE
3FF8000001FFFC
3FF0000003FFFC
1FC0000007FFFC
1F80000007FFF8
1E0000000FFFF8
0C0000001FFFF0
000000001FFFE0
000000003FFFE0
000000007FFFC0
000000007FFFC0
00000000FFFF80
00000000FFFF00
00000001FFFF00
00000003FFFE00
00000003FFFC00
00000007FFFC00
0000000FFFF800
0000000FFFF000
0000001FFFF000
0000001FFFE000
0000003FFFE000
0000007FFFC000
0000007FFF8000
000000FFFF8000
000001FFFF0000
000001FFFE0000
000003FFFE0000
000007FFFC0000
000007FFF80000
00000FFFF80000
00000FFFF00000
00001FFFF00000
00003FFFE00000
00003FFFC00000
00007FFFC00000
0000FFFF800000
0000FFFF000000
0001FFFF000000
0003FFFE000000
0003FFFC000000
0007FFFC000000
0007FFF8000000
000FFFF8000000
001FFFF0000000
001FFFE0000000
003FFFE0000000
007FFFC0000000
007FFF80000000
00FFFF80000000
01FFFF00000000
01FFFF00000000
03FFFE00000000
03FFFC00000000
07FFFC00000000
0FFFF800000000
0FFFF000000000
1FFFF000000000
3FFFE000000000
3FFFC000000000
7FFFC000000000
FFFFC000000000
FFFFFFFFFFFFFF
FFFFFFFFFFFFFF
FFFFFFFFFFFFFF
FFFFFFFFFFFFFF
FFFFFFFFFFFFFF
FFFFFFFFFFFFFF
FFFFFFFFFFFFFF
FFFFFFFFFFFFFF
FFFFFFFFFFFFFF
FFFFFFFFFFFFFF
FFFFFFFFFFFFFF
FFFFFFFFFFFFFF
FFFFFFFFFFFFFF
FFFFFFFFFFFFFF
ENDCHAR
STARTCHAR three
ENCODING 51
SWIDTH 450 0
DWIDTH 72 0
BBX 56 112 8 0
BITMAP
FFFFFFFFFFFFFF
FFFFFFFFFFFFFF
FFFFFFFFFFFFFF
FFFFFFFFFFFFFF
FFFFFFFFFFFFFF
FFFFFFFFFFFFFF
FFFFFFFFFFFFFF
FFFFFFFFFFFFFF
FFFFFFFFFFFFFF
FFFFFFFFFFFFFF
FFFFFFFFFFFFFF
FFFFFFFFFFFFFF
FFFFFFFFFFFFFF
FFFFFFFFFFFFFF
0000000001FFFF
0000000003FFFE
0000000003FFFE
0000000007FFFC
000000000FFFF8
000000000FFFF8
000000001FFFF0
000000001FFFE0
000000003FFFE0
000000007FFFC0
000000007FFF80
00000000FFFF80
00000001FFFF00
00000001FFFE00
00000003FFFE00
00000007FFFC00
00000007FFF800
0000000FFFF800
0000001FFFF000
0000001FFFE000
0000003FFFE000
0000007FFFC000
0000007FFF8000
000000FFFF8000
000001FFFF0000
000001FFFF0000
000003FFFE0000
000007FFFC0000
000007FFFC0000
00000FFFF80000
00000FFFFE0000
00000FFFFF8000
00000FFFFFC000
00000FFFFFF000
00000FFFFFF800
00000FFFFFFC00
00000FFFFFFE00
00000FFFFFFF00
00000FFFFFFF80
00000FFFFFFFC0
00000FFFFFFFE0
00000FFFFFFFE0
00000001FFFFF0
000000007FFFF0
000000001FFFF8
000000000FFFF8
0000000003FFFC
0000000003FFFC
0000000001FFFE
0000000000FFFE
0000000000FFFE
00000000007FFF
00000000007FFF
00000000003FFF
00000000003FFF
00000000003FFF
00000000003FFF
00000000003FFF
00000000003FFF
00000000003FFF
00000000003FFF
00000000003FFF
00000000003FFF
00000000003FFF
00000000003FFF
00000000003FFF
00000000003FFF
00000000003FFF
00000000003FFF
00000000003FFF
00000000003FFF
00000000003FFF
00000000003FFF
00000000007FFF
00000000007FFF
0008000000FFFE
0038000000FFFE
00FC000001FFFE
03FE000003FFFE
1FFF000007FFFC
7FFF80000FFFFC
FFFFC0001FFFF8
7FFFF0007FFFF8
7FFFFE03FFFFF0
3FFFFFFFFFFFE0
1FFFFFFFFFFFE0
1FFFFFFFFFFFC0
0FFFFFFFFFFF80
07FFFFFFFFFF00
03FFFFFFFFFE00
01FFFFFFFFFC00
00FFFFFFFFF800
003FFFFFFFF000
001FFFFFFFC000
0007FFFFFF8000
0001FFFFFE0000
00003FFFF00000
000007FF000000
ENDCHAR
STARTCHAR four
ENCODING 52
SWIDTH 450 0
DWIDTH 72 0
BBX 56 112 8 0
BITMAP
00001FFFC00000
00001FFFC00000
00001FFF800000
00001FFF800000
00003FFF800000
00003FFF800000
00003FFF000000
00003FFF000000
00007FFF000000
00007FFF000000
00007FFE000000
00007FFE000000
0000FFFE000000
0000FFFE000000
0000FFFC000000
0000FFFC000000
0001FFFC000000
0001FFFC000000
0001FFF8000000
0003FFF8000000
0003FFF8000000
0003FFF0000000
0003FFF0000000
0007FFF0000000
0007FFF0000000
0007FFE0000000
0007FFE0000000
000FFFE0000000
000FFFE0000000
000FFFC0000000
000FFFC0000000
001FFFC0000000
001FFFC0000000
001FFF80000000
001FFF80000000
003FFF80000000
003FFF80000000
003FFF00000000
003FFF00000000
007FFF00000000
007FFF00000000
007FFE00000000
007FFE00000000
00FFFE00000000
00FFFE00000000
00FFFC00000000
01FFFC00000000
01FFFC00000000
01FFF800000000
01FFF800000000
03FFF800000000
03FFF800000000
03FFF000000000
03FFF000000000
07FFF000000000
07FFF000000000
07FFE00FFFC000
07FFE00FFFC000
0FFFE00FFFC000
0FFFE00FFFC000
0FFFC00FFFC000
0FFFC00FFFC000
1FFFC00FFFC000
1FFFC00FFFC000
1FFF800FFFC000
1FFF800FFFC000
3FFF800FFFC000
3FFF800FFFC000
3FFF000FFFC000
3FFF000FFFC000
7FFF000FFFC000
7FFF000FFFC000
7FFE000FFFC000
7FFE000FFFC000
FFFE000FFFC000
FFFE000FFFC000
FFFFFFFFFFFFFF
FFFFFFFFFFFFFF
FFFFFFFFFFFFFF
FFFFFFFFFFFFFF
FFFFFFFFFFFFFF
FFFFFFFFFFFFFF
FFFFFFFFFFFFFF
FFFFFFFFFFFFFF
FFFFFFFFFFFFFF
FFFFFFFFFFFFFF
FFFFFFFFFFFFFF
FFFFFFFFFFFFFF
FFFFFFFFFFFFFF
FFFFFFFFFFFFFF
0000000FFFC000
0000000FFFC000
0000000FFFC000
0000000FFFC000
0000000FFFC000
0000000FFFC000
0000000FFFC000
0000000FFFC000
0000000FFFC000
0000000FFFC000
0000000FFFC000
0000000FFFC000
0000000FFFC000
0000000FFFC000
0000000FFFC000
0000000FFFC000
0000000FFFC000
0000000FFFC000
0000000FFFC000
0000000FFFC000
0000000FFFC000
0000000FFFC000
ENDCHAR
STARTCHAR five
ENCODING 53
SWIDTH 450 0
DWIDTH 72 0
BBX 56 112 8 0
BITMAP
FFFFFFFFFFFFFF
FFFFFFFFFFFFFF
FFFFFFFFFFFFFF
FFFFFFFFFFFFFF
FFFFFFFFFFFFFF
FFFFFFFFFFFFFF
FFFFFFFFFFFFFF
FFFFFFFFFFFFFF
FFFFFFFFFFFFFF
FFFFFFFFFFFFFF
FFFFFFFFFFFFFF
FFFFFFFFFFFFFF
FFFFFFFFFFFFFF
FFFFFFFFFFFFFF
FFFC0000000000
FFFC0000000000
FFFC0000000000
FFFC0000000000
FFFC0000000000
FFFC0000000000
FFFC0000000000
FFFC0000000000
FFFC0000000000
FFFC0000000000
FFFC0000000000
FFFC0000000000
FFFC0000000000
FFFC0000000000
FFFC0000000000
FFFC0000000000
FFFC0000000000
FFFC0000000000
FFFC0000000000
FFFC0000000000
FFFC0000000000
FFFC0000000000
FFFC0000000000
FFFC07FFF00000
FFFC7FFFFE0000
FFFFFFFFFF8000
FFFFFFFFFFE000
FFFFFFFFFFF000
FFFFFFFFFFF800
FFFFFFFFFFFE00
FFFFFFFFFFFF00
FFFFFFFFFFFF80
FFFFFFFFFFFFC0
FFFFFFFFFFFFC0
FFFFFFFFFFFFE0
FFFFFFFFFFFFF0
FFFFFFE3FFFFF0
FFFFFC003FFFF8
FFFFF8001FFFF8
FFFFE00007FFFC
FFFFC00003FFFC
FFFF800001FFFE
FFFF000000FFFE
FFFF000000FFFE
FFFE0000007FFE
FFFE0000007FFF
FFFE0000003FFF
FFFC0000003FFF
FFFC0000003FFF
FFFC0000003FFF
00000000003FFF
00000000003FFF
00000000003FFF
00000000003FFF
00000000003FFF
00000000003FFF
00000000003FFF
00000000003FFF
00000000003FFF
00000000003FFF
00000000003FFF
00000000003FFF
00000000003FFF
00000000003FFF
00000000003FFF
00000000003FFF
00000000003FFF
00000000003FFF
00000000003FFF
00000000003FFF
FFFC0000003FFF
FFFC0000003FFF
FFFC0000003FFF
FFFC0000003FFF
FFFE0000007FFF
7FFE0000007FFE
7FFF0000007FFE
7FFF000000FFFE
7FFF800001FFFE
3FFFC00003FFFC
3FFFE00007FFFC
1FFFF0000FFFFC
1FFFFC001FFFF8
0FFFFF00FFFFF8
0FFFFFFFFFFFF0
07FFFFFFFFFFE0
07FFFFFFFFFFE0
03FFFFFFFFFFC0
01FFFFFFFFFF80
00FFFFFFFFFF00
007FFFFFFFFE00
003FFFFFFFFC00
001FFFFFFFF800
0007FFFFFFE000
0003FFFFFF8000
0000FFFFFF0000
00001FFFF80000
000003FF800000
ENDCHAR
STARTCHAR six
ENCODING 54
SWIDTH 450 0
DWIDTH 72 0
BBX 56 112 8 0
BITMAP
000001FF800000
00001FFFF80000
0000FFFFFE0000
0003FFFFFF8000
0007FFFFFFE000
001FFFFFFFF000
003FFFFFFFFC00
007FFFFFFFFE00
00FFFFFFFFFF00
01FFFFFFFFFF80
03FFFFFFFFFFC0
07FFFFFFFFFFC0
07FFFFFFFFFFE0
0FFFFFFFFFFFF0
1FFFFF01FFFFF0
1FFFFC003FFFF8
3FFFF0000FFFF8
3FFFE00007FFFC
3FFFC00003FFFC
7FFF800001FFFC
7FFF000000FFFE
7FFE000000FFFE
FFFE0000007FFE
FFFE0000007FFE
FFFC0000007FFF
FFFC0000003FFF
FFFC0000003FFF
FFFC0000003FFF
FFFC0000000000
FFFC0000000000
FFFC0000000000
FFFC0000000000
FFFC0000000000
FFFC0000000000
FFFC0000000000
FFFC0000000000
FFFC0000000000
FFFC0000000000
FFFC0000000000
FFFC0000000000
FFFC0000000000
FFFC0000000000
FFFC01FF800000
FFFC1FFFF80000
FFFCFFFFFE0000
FFFFFFFFFF8000
FFFFFFFFFFE000
FFFFFFFFFFF000
FFFFFFFFFFFC00
FFFFFFFFFFFE00
FFFFFFFFFFFF00
FFFFFFFFFFFF80
FFFFFFFFFFFFC0
FFFFFFFFFFFFC0
FFFFFFFFFFFFE0
FFFFFFFFFFFFF0
FFFFFF00FFFFF0
FFFFF8003FFFF8
FFFFF0000FFFF8
FFFFE00007FFFC
FFFFC00003FFFC
FFFF800001FFFC
FFFF000000FFFE
FFFE000000FFFE
FFFE0000007FFE
FFFE0000007FFE
FFFC0000007FFF
FFFC0000003FFF
FFFC0000003FFF
FFFC0000003FFF
FFFC0000003FFF
FFFC0000003FFF
FFFC0000003FFF
FFFC0000003FFF
FFFC0000003FFF
FFFC0000003FFF
FFFC0000003FFF
FFFC0000003FFF
FFFC0000003FFF
FFFC0000003FFF
FFFC0000003FFF
FFFC0000003FFF
FFFC0000003FFF
FFFC0000003FFF
FFFC0000003FFF
FFFC0000003FFF
FFFC0000003FFF
FFFC0000007FFF
FFFE0000007FFE
FFFE0000007FFE
7FFE000000FFFE
7FFF000000FFFE
7FFF800001FFFE
3FFFC00003FFFC
3FFFE00007FFFC
3FFFF0000FFFF8
1FFFF8003FFFF8
1FFFFF00FFFFF0
0FFFFFFFFFFFF0
07FFFFFFFFFFE0
07FFFFFFFFFFC0
03FFFFFFFFFFC0
01FFFFFFFFFF80
00FFFFFFFFFF00
007FFFFFFFFE00
003FFFFFFFFC00
001FFFFFFFF000
0007FFFFFFE000
0003FFFFFF8000
0000FFFFFE0000
00001FFFF80000
000001FF800000
ENDCHAR
STARTCHAR seven
ENCODING 55
SWIDTH 450 0
DWIDTH 72 0
BBX 56 112 8 0
BITMAP
FFFFFFFFFFFFFF
FFFFFFFFFFFFFF
FFFFFFFFFFFFFF
FFFFFFFFFFFFFF
FFFFFFFFFFFFFF
FFFFFFFFFFFFFF
FFFFFFFFFFFFFF
FFFFFFFFFFFFFF
FFFFFFFFFFFFFF
FFFFFFFFFFFFFF
FFFFFFFFFFFFFF
FFFFFFFFFFFFFF
FFFFFFFFFFFFFF
FFFFFFFFFFFFFF
FFFC000001FFFF
FFFC000001FFFF
FFFC000001FFFE
FFFC000001FFFE
FFFC000001FFFE
FFFC000003FFFC
FFFC000003FFFC
FFFC000003FFFC
FFFC000003FFFC
FFFC000007FFF8
FFFC000007FFF8
FFFC000007FFF8
FFFC00000FFFF8
FFFC00000FFFF0
000000000FFFF0
000000000FFFF0
000000001FFFF0
000000001FFFE0
000000001FFFE0
000000001FFFE0
000000003FFFE0
000000003FFFC0
000000003FFFC0
000000003FFFC0
000000007FFF80
000000007FFF80
000000007FFF80
000000007FFF80
00000000FFFF00
00000000FFFF00
00000000FFFF00
00000001FFFF00
00000001FFFE00
00000001FFFE00
00000001FFFE00
00000003FFFE00
00000003FFFC00
00000003FFFC00
00000003FFFC00
00000007FFFC00
00000007FFF800
00000007FFF800
00000007FFF800
0000000FFFF000
0000000FFFF000
0000000FFFF000
0000000FFFF000
0000001FFFE000
0000001FFFE000
0000001FFFE000
0000003FFFE000
0000003FFFC000
0000003FFFC000
0000003FFFC000
0000007FFFC000
0000007FFF8000
0000007FFF8000
0000007FFF8000
000000FFFF0000
000000FFFF0000
000000FFFF0000
000000FFFF0000
000001FFFE0000
000001FFFE0000
000001FFFE0000
000003FFFE0000
000003FFFC0000
000003FFFC0000
000003FFFC0000
000007FFFC0000
000007FFF80000
000007FFF80000
000007FFF80000
00000FFFF80000
00000FFFF00000
00000FFFF00000
00000FFFF00000
00001FFFE00000
00001FFFE00000
00001FFFE00000
00001FFFE00000
00003FFFC00000
00003FFFC00000
00003FFFC00000
00007FFFC00000
00007FFF800000
00007FFF800000
00007FFF800000
0000FFFF800000
0000FFFF000000
0000FFFF000000
0000FFFF000000
0001FFFF000000
0001FFFE000000
0001FFFE000000
0001FFFE000000
0003FFFC000000
0003FFFC000000
ENDCHAR
STARTCHAR eight
ENCODING 56
SWIDTH 450 0
DWIDTH 72 0
BBX 56 112 8 0
BITMAP
000000FF800000
00000FFFF80000
00007FFFFE0000
0001FFFFFFC000
0007FFFFFFE000
000FFFFFFFF800
003FFFFFFFFC00
007FFFFFFFFE00
00FFFFFFFFFF00
01FFFFFFFFFF80
03FFFFFFFFFFC0
03FFFFFFFFFFE0
07FFFFFFFFFFE0
0FFFFFFFFFFFF0
0FFFFF80FFFFF8
1FFFFC003FFFF8
1FFFF0000FFFFC
3FFFE00007FFFC
3FFFC00003FFFC
3FFF800001FFFE
7FFF000000FFFE
7FFF000000FFFE
7FFE0000007FFF
7FFE0000007FFF
FFFE0000003FFF
FFFC0000003FFF
FFFC0000003FFF
FFFC0000003FFF
FFFC0000003FFF
FFFC0000003FFF
FFFC0000003FFF
FFFC0000003FFF
FFFC0000003FFF
FFFC0000003FFF
FFFC0000003FFF
FFFC0000003FFF
FFFC0000003FFF
FFFC0000003FFF
FFFE0000003FFF
FFFE0000007FFF
7FFE0000007FFF
7FFF0000007FFE
7FFF000000FFFE
7FFF800001FFFE
3FFFC00003FFFC
3FFFE00007FFFC
1FFFF0000FFFFC
1FFFFC001FFFF8
0FFFFF00FFFFF8
0FFFFFFFFFFFF0
07FFFFFFFFFFE0
07FFFFFFFFFFE0
03FFFFFFFFFFC0
01FFFFFFFFFF80
00FFFFFFFFFF00
007FFFFFFFFE00
007FFFFFFFFE00
00FFFFFFFFFF00
01FFFFFFFFFF80
03FFFFFFFFFFC0
03FFFFFFFFFFE0
07FFFFFFFFFFE0
0FFFFFFFFFFFF0
0FFFFF00FFFFF8
1FFFFC003FFFF8
1FFFF0000FFFFC
3FFFE00007FFFC
3FFFC00003FFFC
3FFF800001FFFE
7FFF000000FFFE
7FFF000000FFFE
7FFE0000007FFF
7FFE0000007FFF
FFFE0000003FFF
FFFC0000003FFF
FFFC0000003FFF
FFFC0000003FFF
FFFC0000003FFF
FFFC0000003FFF
FFFC0000003FFF
FFFC0000003FFF
FFFC0000003FFF
FFFC0000003FFF
FFFC0000003FFF
FFFC0000003FFF
FFFC0000003FFF
FFFC0000003FFF
FFFE0000003FFF
FFFE0000007FFF
7FFE0000007FFF
7FFF0000007FFE
7FFF000000FFFE
7FFF800001FFFE
3FFFC00003FFFC
3FFFE00007FFFC
1FFFF0000FFFFC
1FFFFC001FFFF8
0FFFFF00FFFFF8
0FFFFFFFFFFFF0
07FFFFFFFFFFE0
07FFFFFFFFFFE0
03FFFFFFFFFFC0
01FFFFFFFFFF80
00FFFFFFFFFF00
007FFFFFFFFE00
003FFFFFFFFC00
001FFFFFFFF800
0007FFFFFFE000
0001FFFFFFC000
00007FFFFF0000
00001FFFF80000
000001FF800000
ENDCHAR
STARTCHAR nine
ENCODING 57
SWIDTH 450 0
DWIDTH 72 0
BBX 56 112 8 0
BITMAP
000000FF800000
00001FFFF80000
00007FFFFE0000
0001FFFFFFC000
0007FFFFFFE000
001FFFFFFFF800
003FFFFFFFFC00
007FFFFFFFFE00
00FFFFFFFFFF00
01FFFFFFFFFF80
03FFFFFFFFFFC0
07FFFFFFFFFFE0
07FFFFFFFFFFE0
0FFFFFFFFFFFF0
0FFFFF00FFFFF0
1FFFFC003FFFF8
1FFFF0000FFFF8
3FFFE00007FFFC
3FFFC00003FFFC
7FFF800001FFFE
7FFF000000FFFE
7FFF000000FFFE
7FFE0000007FFE
FFFE0000007FFF
FFFC0000003FFF
FFFC0000003FFF
FFFC0000003FFF
FFFC0000003FFF
FFFC0000003FFF
FFFC0000003FFF
FFFC0000003FFF
FFFC0000003FFF
FFFC0000003FFF
FFFC0000003FFF
FFFC0000003FFF
FFFC0000003FFF
FFFC0000003FFF
FFFC0000003FFF
FFFC0000003FFF
FFFC0000003FFF
FFFC0000003FFF
FFFC0000003FFF
FFFC0000003FFF
FFFC0000003FFF
FFFC0000003FFF
FFFC0000003FFF
FFFE0000007FFF
7FFE0000007FFF
7FFF0000007FFF
7FFF000000FFFF
7FFF800001FFFF
3FFFC00003FFFF
3FFFE00007FFFF
3FFFF0000FFFFF
1FFFFC003FFFFF
1FFFFF00FFFFFF
0FFFFFFFFFFFFF
07FFFFFFFFFFFF
07FFFFFFFFFFFF
03FFFFFFFFFFFF
01FFFFFFFFFFFF
00FFFFFFFFFFFF
007FFFFFFFFFFF
003FFFFFFFFFFF
001FFFFFFFFFFF
0007FFFFFFFFFF
0003FFFFFFFFFF
0000FFFFFE3FFF
00001FFFF83FFF
000001FF803FFF
00000000003FFF
00000000003FFF
00000000003FFF
00000000003FFF
00000000003FFF
00000000003FFF
00000000003FFF
00000000003FFF
00000000003FFF
00000000003FFF
00000000003FFF
00000000003FFF
00000000003FFF
00000000003FFF
FFFC0000003FFF
FFFC0000003FFF
FFFC0000003FFF
FFFC0000003FFF
FFFE0000007FFF
7FFE0000007FFE
7FFF0000007FFE
7FFF000000FFFE
7FFF800001FFFE
3FFFC00003FFFC
3FFFE00007FFFC
1FFFF0000FFFFC
1FFFFC001FFFF8
0FFFFF00FFFFF8
0FFFFFFFFFFFF0
07FFFFFFFFFFE0
07FFFFFFFFFFE0
03FFFFFFFFFFC0
01FFFFFFFFFF80
00FFFFFFFFFF00
007FFFFFFFFE00
003FFFFFFFFC00
001FFFFFFFF800
0007FFFFFFE000
0003FFFFFF8000
0000FFFFFF0000
00001FFFF80000
000003FF800000
ENDCHAR
STARTCHAR colon
ENCODING 58
SWIDTH 260 0
DWIDTH 42 0
BBX 14 64 14 14
BITMAP
0F80
1FE0
3FF0
7FF8
FFF8
FFFC
FFFC
FFFC
FFFC
FFF8
7FF8
7FF0
3FE0
0FC0
0000
0000
0000
0000
0000
0000
0000
0000
0000
0000
0000
0000
0000
0000
0000
0000
0000
0000
0000
0000
0000
0000
0000
0000
0000
0000
0000
0000
0000
0000
0000
0000
0000
0000
0000
0000
0FC0
3FE0
7FF0
7FF8
FFF8
FFFC
FFFC
FFFC
FFFC
FFF8
7FF8
3FF0
1FE0
0780
ENDCHAR
STARTCHAR semicolon
ENCODING 59
SWIDTH 260 0
DWIDTH 42 0
BBX 14 71 14 7
BITMAP
0F80
1FE0
3FF0
7FF8
FFF8
FFFC
FFFC
FFFC
FFFC
FFF8
7FF8
7FF0
3FE0
0FC0
0000
0000
0000
0000
0000
0000
0000
0000
0000
0000
0000
0000
0000
0000
0000
0000
0000
0000
0000
0000
0000
0000
0000
0000
0000
0000
0000
0000
0000
0000
0000
0000
0000
0000
0000
0000
0FC0
3FE0
7FF0
7FF8
FFF8
FFFC
FFFC
FFFC
FFFC
FFF8
7FF8
7FF8
1FF8
0FF0
01F0
01F0
01F0
01E0
01E0
01E0
01C0
ENDCHAR
STARTCHAR less
ENCODING 60
SWIDTH 450 0
DWIDTH 72 0
BBX 34 68 19 19
BITMAP
0000000040
00000001C0
00000003C0
00000007C0
0000000FC0
0000003FC0
0000007FC0
000000FFC0
000001FFC0
000007FFC0
00000FFFC0
00001FFFC0
00003FFFC0
0000FFFFC0
0001FFFF80
0003FFFF00
0007FFFC00
001FFFF800
003FFFF000
007FFFE000
00FFFF8000
03FFFF0000
07FFFE0000
0FFFFC0000
3FFFF80000
7FFFE00000
FFFFC00000
FFFF800000
FFFF000000
FFFC000000
FFF8000000
FFF0000000
FFE0000000
FF80000000
FFC0000000
FFE0000000
FFF0000000
FFF8000000
FFFE000000
FFFF000000
FFFF800000
FFFFC00000
3FFFE00000
1FFFF80000
0FFFFC0000
07FFFE0000
01FFFF0000
00FFFFC000
007FFFE000
003FFFF000
000FFFF800
0007FFFC00
0003FFFF00
0001FFFF80
00007FFFC0
00003FFFC0
00001FFFC0
00000FFFC0
000007FFC0
000001FFC0
000000FFC0
0000007FC0
0000003FC0
0000000FC0
00000007C0
00000003C0
00000001C0
0000000040
ENDCHAR
STARTCHAR equal
ENCODING 61
SWIDTH 450 0
DWIDTH 72 0
BBX 50 40 11 17
BITMAP
FFFFFFFFFFFFC0
FFFFFFFFFFFFC0
FFFFFFFFFFFFC0
FFFFFFFFFFFFC0
FFFFFFFFFFFFC0
FFFFFFFFFFFFC0
FFFFFFFFFFFFC0
FFFFFFFFFFFFC0
FFFFFFFFFFFFC0
FFFFFFFFFFFFC0
FFFFFFFFFFFFC0
FFFFFFFFFFFFC0
FFFFFFFFFFFFC0
FFFFFFFFFFFFC0
00000000000000
00000000000000
00000000000000
00000000000000
00000000000000
00000000000000
00000000000000
00000000000000
00000000000000
00000000000000
00000000000000
00000000000000
FFFFFFFFFFFFC0
FFFFFFFFFFFFC0
FFFFFFFFFFFFC0
FFFFFFFFFFFFC0
FFFFFFFFFFFFC0
FFFFFFFFFFFFC0
FFFFFFFFFFFFC0
FFFFFFFFFFFFC0
FFFFFFFFFFFFC0
FFFFFFFFFFFFC0
FFFFFFFFFFFFC0
FFFFFFFFFFFFC0
FFFFFFFFFFFFC0
FFFFFFFFFFFFC0
ENDCHAR
STARTCHAR greater
ENCODING 62
SWIDTH 450 0
DWIDTH 72 0
BBX 34 68 19 19
BITMAP
8000000000
E000000000
F000000000
F800000000
FC00000000
FF00000000
FF80000000
FFC0000000
FFE0000000
FFF8000000
FFFC000000
FFFE000000
FFFF000000
FFFFC00000
7FFFE00000
3FFFF00000
0FFFF80000
07FFFC0000
03FFFF0000
01FFFF8000
007FFFC000
003FFFE000
001FFFF800
000FFFFC00
0007FFFE00
0001FFFF00
0000FFFFC0
00007FFFC0
00003FFFC0
00001FFFC0
000007FFC0
000003FFC0
000001FFC0
000000FFC0
0000007FC0
000000FFC0
000003FFC0
000007FFC0
00000FFFC0
00001FFFC0
00007FFFC0
0000FFFFC0
0001FFFF80
0003FFFF00
000FFFFE00
001FFFF800
003FFFF000
007FFFE000
00FFFFC000
03FFFF0000
07FFFE0000
0FFFFC0000
1FFFF00000
7FFFE00000
FFFFC00000
FFFF800000
FFFE000000
FFFC000000
FFF8000000
FFF0000000
FFC0000000
FF80000000
FF00000000
FE00000000
F800000000
F000000000
E000000000
C000000000
ENDCHAR
STARTCHAR question
ENCODING 63
SWIDTH 450 0
DWIDTH 72 0
BBX 56 113 8 0
BITMAP
000007FFF00000
00003FFFFE0000
0001FFFFFF8000
0003FFFFFFE000
000FFFFFFFF000
001FFFFFFFF800
007FFFFFFFFE00
00FFFFFFFFFF00
01FFFFFFFFFF80
03FFFFFFFFFFC0
03FFFFFFFFFFC0
07FFFFFFFFFFE0
0FFFFFFFFFFFF0
0FFFFFFFFFFFF0
1FFFFE00FFFFF8
3FFFF8001FFFFC
3FFFF0000FFFFC
3FFFE00003FFFC
7FFFC00001FFFE
7FFF800001FFFE
7FFF000000FFFE
FFFE0000007FFF
FFFE0000007FFF
FFFE0000003FFF
FFFC0000003FFF
FFFC0000003FFF
FFFC0000003FFF
FFFC0000003FFF
00000000003FFF
00000000003FFF
00000000003FFF
00000000003FFF
00000000003FFF
00000000007FFF
00000000007FFF
0000000000FFFE
0000000001FFFE
0000000001FFFE
0000000003FFFC
0000000007FFFC
000000000FFFFC
000000001FFFF8
000000003FFFF0
000000007FFFF0
00000000FFFFE0
00000001FFFFC0
00000003FFFFC0
00000007FFFF80
0000000FFFFF00
0000001FFFFE00
0000003FFFFC00
0000007FFFF800
000000FFFFF000
000000FFFFE000
000001FFFFC000
000001FFFF8000
000003FFFF0000
000003FFFE0000
000007FFFC0000
000007FFF80000
000007FFF00000
000007FFE00000
00000FFFE00000
00000FFFE00000
00000FFFC00000
00000FFFC00000
00000FFFC00000
00000FFFC00000
00000FFFC00000
00000FFFC00000
00000FFFC00000
00000FFFC00000
00000FFFC00000
00000FFFC00000
00000FFFC00000
00000FFFC00000
00000FFFC00000
00000FFFC00000
00000FFFC00000
00000FFFC00000
00000FFFC00000
00000FFFC00000
00000FFFC00000
00000FFFC00000
00000FFFC00000
00000FFFC00000
00000FFFC00000
00000FFFC00000
00000FFFC00000
00000FFFC00000
00000FFFC00000
00000FFFC00000
00000000000000
00000000000000
00000000000000
00000000000000
00000000000000
00000000000000
00000000000000
000000FC000000
000003FE000000
000007FF000000
000007FF800000
00000FFFC00000
00000FFFC00000
00000FFFC00000
00000FFFC00000
00000FFFC00000
00000FFF800000
000007FF800000
000007FF000000
000003FE000000
000000F8000000
ENDCHAR
STARTCHAR at
ENCODING 64
SWIDTH 715 0
DWIDTH 114 0
BBX 99 134 8 -28
BITMAP
0000000000FFFFC00000000000
000000000FFFFFFE0000000000
00000000FFFFFFFFC000000000
00000003FFFFFFFFF800000000
0000000FFFFFFFFFFE00000000
0000003FFFFFFFFFFF80000000
000000FFFFFFFFFFFFC0000000
000003FFFFFFFFFFFFF0000000
000007FFFFFFFFFFFFFC000000
00000FFFFFFFFFFFFFFE000000
00003FFFFFFFFFFFFFFF000000
00007FFFFFFFFFFFFFFF800000
0000FFFFFFFFFFFFFFFFC00000
0001FFFFFFFFFFFFFFFFF00000
0003FFFFFFC000FFFFFFF80000
0007FFFFFC00000FFFFFFC0000
000FFFFFE0000001FFFFFC0000
001FFFFF800000007FFFFE0000
003FFFFE000000001FFFFF0000
003FFFFC0000000007FFFF8000
007FFFF00000000003FFFFC000
00FFFFE00000000001FFFFC000
01FFFFC00000000000FFFFE000
01FFFF8000000000003FFFF000
03FFFF0000000000001FFFF000
03FFFE0000000000001FFFF800
07FFFC0000000000000FFFF800
07FFF800000000000007FFFC00
0FFFF0000007FCFFFE03FFFC00
0FFFF000007FFFFFFE01FFFE00
1FFFE00001FFFFFFFE01FFFE00
1FFFC00003FFFFFFFE00FFFF00
3FFFC0000FFFFFFFFE00FFFF00
3FFF80001FFFFFFFFE007FFF00
3FFF80003FFFFFFFFE007FFF80
7FFF00007FFFFFFFFE003FFF80
7FFF0000FFFFFFFFFE003FFF80
7FFF0000FFFFFFFFFE001FFFC0
7FFE0001FFFFFFFFFE001FFFC0
7FFE0003FFFFFFFFFE001FFFC0
FFFE0003FFFFFFFFFE000FFFC0
FFFE0007FFFFFFFFFE000FFFC0
FFFC0007FFFE1FFFFE000FFFC0
FFFC0007FFF807FFFE000FFFE0
FFFC000FFFF003FFFE000FFFE0
FFFC000FFFE001FFFE000FFFE0
FFFC000FFFE000FFFE0007FFE0
FFFC000FFFC000FFFE0007FFE0
FFFC000FFFC000FFFE0007FFE0
FFFC000FFFC000FFFE0007FFE0
FFFC000FFFC000FFFE0007FFE0
FFFC000FFFC000FFFE0007FFE0
FFFC000FFFC000FFFE0007FFE0
FFFC000FFFC000FFFE0007FFE0
FFFC000FFFC000FFFE0007FFE0
FFFC000FFFC000FFFE0007FFE0
FFFC000FFFC000FFFE0007FFE0
FFFC000FFFC000FFFE0007FFE0
FFFC000FFFC000FFFE0007FFE0
FFFC000FFFC000FFFE0007FFE0
FFFC000FFFC000FFFE0007FFE0
FFFC000FFFC000FFFE0007FFE0
FFFC000FFFC000FFFE0007FFE0
FFFC000FFFC000FFFE0007FFE0
FFFC000FFFC000FFFE0007FFE0
FFFC000FFFC000FFFE0007FFE0
FFFC000FFFC000FFFE0007FFE0
FFFC000FFFC000FFFE0007FFE0
FFFC000FFFC000FFFE0007FFE0
FFFC000FFFC000FFFE0007FFE0
FFFC000FFFC000FFFE0007FFE0
FFFC000FFFC000FFFE0007FFE0
FFFC000FFFC000FFFE0007FFE0
FFFC000FFFC000FFFE0007FFE0
FFFC000FFFC000FFFE0007FFE0
FFFC000FFFC000FFFE0007FFE0
FFFC000FFFC000FFFE0007FFE0
FFFC000FFFC000FFFE0007FFE0
FFFC000FFFC000FFFE0007FFE0
FFFC000FFFC000FFFE0007FFE0
FFFC000FFFC000FFFE0007FFE0
FFFC000FFFC000FFFE0007FFE0
FFFC000FFFC000FFFE0007FFE0
FFFC000FFFC000FFFE0007FFE0
FFFC000FFFC000FFFE0007FFE0
FFFC000FFFC000FFFE0007FFE0
FFFC000FFFC000FFFE000FFFE0
FFFC000FFFE000FFFE000FFFE0
FFFC000FFFE001FFFF000FFFE0
FFFC000FFFF003FFFF001FFFC0
FFFC0007FFF807FFFFC03FFFC0
FFFC0007FFFE1FFFFFF0FFFFC0
FFFE0007FFFFFFFFFFFFFFFFC0
FFFE0003FFFFFFFFFFFFFFFF80
7FFE0003FFFFFFFFFFFFFFFF80
7FFE0001FFFFFFFFFFFFFFFF00
7FFF0001FFFFFFFFFFFFFFFE00
7FFF0000FFFFFFFFFFFFFFFE00
7FFF00007FFFFFFFFFFFFFFC00
3FFF80003FFFFFFFFFFFFFF800
3FFF80001FFFFFFFFFFFFFF000
3FFFC0000FFFFFFCFFFFFFE000
1FFFC00003FFFFF83FFFFF8000
1FFFE00001FFFFE01FFFFF0000
0FFFF000007FFF8003FFFC0000
0FFFF000000FFC00007FC00000
0FFFF800000000000000000000
07FFFC00000000000000000000
03FFFE00000000000000000000
03FFFF00000000000000000000
01FFFF80000000000000000000
01FFFFC0000000000000000000
00FFFFE0000000000000000000
007FFFF0000000000000000000
007FFFFC000000000000000000
003FFFFE000000000000000000
001FFFFF800000000000000000
000FFFFFE00000000000000000
0007FFFFFC0000000000000000
0003FFFFFFC000000000000000
0001FFFFFFFFFFFFFFFFF80000
0000FFFFFFFFFFFFFFFFF80000
00007FFFFFFFFFFFFFFFF80000
00003FFFFFFFFFFFFFFFF80000
00001FFFFFFFFFFFFFFFF80000
000007FFFFFFFFFFFFFFF80000
000003FFFFFFFFFFFFFFF80000
000000FFFFFFFFFFFFFFF80000
0000003FFFFFFFFFFFFFF80000
0000001FFFFFFFFFFFFFF80000
00000003FFFFFFFFFFFFF80000
00000000FFFFFFFFFFFFF80000
000000001FFFFFFFFFFFF80000
0000000000FFFFFFFFFFF80000
ENDCHAR
STARTCHAR A
ENCODING 65
SWIDTH 450 0
DWIDTH 72 0
BBX 56 112 8 -1
BITMAP
000007FFE00000
000007FFE00000
000007FFF00000
00000FFFF00000
00000FFFF00000
00000FFFF00000
00000FFFF00000
00000FFFF80000
00001FFFF80000
00001FFFF80000
00001FFFF80000
00001FFFF80000
00001FFFF80000
00003FFFFC0000
00003FFFFC0000
00003FFFFC0000
00003FFFFC0000
00003FFFFC0000
00003FFFFE0000
00007FFFFE0000
00007FFFFE0000
00007FFFFE0000
00007FFFFE0000
00007FFFFF0000
0000FFFFFF0000
0000FFFFFF0000
0000FFFFFF0000
0000FFFFFF0000
0000FFFFFF0000
0001FFFFFF8000
0001FFFFFF8000
0001FFFFFF8000
0001FFFFFF8000
0001FFFFFF8000
0001FFFFFFC000
0003FFFFFFC000
0003FFFFFFC000
0003FFFFFFC000
0003FFFFFFC000
0003FFFFFFE000
0007FFFFFFE000
0007FFE7FFE000
0007FFE7FFE000
0007FFE7FFE000
0007FFE7FFE000
000FFFC3FFF000
000FFFC3FFF000
000FFFC3FFF000
000FFFC3FFF000
000FFFC3FFF000
001FFFC3FFF800
001FFF81FFF800
001FFF81FFF800
001FFF81FFF800
001FFF81FFF800
001FFF81FFFC00
003FFF00FFFC00
003FFF00FFFC00
003FFF00FFFC00
003FFF00FFFC00
003FFF00FFFC00
007FFE007FFE00
007FFE007FFE00
007FFE007FFE00
007FFE007FFE00
007FFE007FFE00
00FFFE007FFF00
00FFFC003FFF00
00FFFC003FFF00
00FFFC003FFF00
00FFFC003FFF00
00FFFC003FFF80
01FFF8001FFF80
01FFF8001FFF80
01FFF8001FFF80
01FFF8001FFF80
01FFF8001FFF80
03FFFFFFFFFFC0
03FFFFFFFFFFC0
03FFFFFFFFFFC0
03FFFFFFFFFFC0
03FFFFFFFFFFC0
07FFFFFFFFFFE0
07FFFFFFFFFFE0
07FFFFFFFFFFE0
07FFFFFFFFFFE0
07FFFFFFFFFFE0
07FFFFFFFFFFF0
0FFFFFFFFFFFF0
0FFFFFFFFFFFF0
0FFFFFFFFFFFF0
0FFFC00003FFF0
0FFFC00003FFF0
1FFF800001FFF8
1FFF800001FFF8
1FFF800001FFF8
1FFF800001FFF8
1FFF800001FFF8
3FFF000000FFFC
3FFF000000FFFC
3FFF000000FFFC
3FFF000000FFFC
3FFF000000FFFC
7FFE0000007FFE
7FFE0000007FFE
7FFE0000007FFE
7FFE0000007FFE
7FFE0000007FFE
7FFE0000007FFE
FFFC0000003FFF
FFFC0000003FFF
FFFC0000003FFF
ENDCHAR
STARTCHAR B
ENCODING 66
SWIDTH 450 0
DWIDTH 72 0
BBX 56 112 8 0
BITMAP
FFFFFFF8000000
FFFFFFFF800000
FFFFFFFFF00000
FFFFFFFFFC0000
FFFFFFFFFF0000
FFFFFFFFFFC000
FFFFFFFFFFE000
FFFFFFFFFFF000
FFFFFFFFFFF800
FFFFFFFFFFFC00
FFFFFFFFFFFE00
FFFFFFFFFFFF00
FFFFFFFFFFFF80
FFFFFFFFFFFF80
FFFC000FFFFFC0
FFFC0001FFFFC0
FFFC00007FFFE0
FFFC00003FFFE0
FFFC00001FFFF0
FFFC00000FFFF0
FFFC000007FFF8
FFFC000003FFF8
FFFC000003FFF8
FFFC000001FFF8
FFFC000001FFFC
FFFC000001FFFC
FFFC000000FFFC
FFFC000000FFFC
FFFC000000FFFC
FFFC000000FFFC
FFFC000000FFFC
FFFC000000FFFC
FFFC000000FFFC
FFFC000001FFFC
FFFC000001FFF8
FFFC000001FFF8
FFFC000003FFF8
FFFC000003FFF8
FFFC000007FFF0
FFFC00000FFFF0
FFFC00001FFFF0
FFFC00003FFFE0
FFFC00007FFFE0
FFFC0001FFFFC0
FFFC000FFFFFC0
FFFFFFFFFFFF80
FFFFFFFFFFFF00
FFFFFFFFFFFF00
FFFFFFFFFFFE00
FFFFFFFFFFFC00
FFFFFFFFFFF800
FFFFFFFFFFF000
FFFFFFFFFFF000
FFFFFFFFFFF800
FFFFFFFFFFFC00
FFFFFFFFFFFE00
FFFFFFFFFFFF00
FFFFFFFFFFFF80
FFFFFFFFFFFF80
FFFC001FFFFFC0
FFFC0003FFFFE0
FFFC0000FFFFE0
FFFC00003FFFF0
FFFC00001FFFF8
FFFC00000FFFF8
FFFC000007FFF8
FFFC000003FFFC
FFFC000001FFFC
FFFC000001FFFE
FFFC000000FFFE
FFFC000000FFFE
FFFC0000007FFE
FFFC0000007FFE
FFFC0000007FFF
FFFC0000003FFF
FFFC0000003FFF
FFFC0000003FFF
FFFC0000003FFF
FFFC0000003FFF
FFFC0000003FFF
FFFC0000003FFF
FFFC0000003FFF
FFFC0000003FFF
FFFC0000007FFF
FFFC0000007FFE
FFFC0000007FFE
FFFC000000FFFE
FFFC000000FFFE
FFFC000001FFFE
FFFC000001FFFC
FFFC000003FFFC
FFFC000007FFF8
FFFC00000FFFF8
FFFC00001FFFF0
FFFC00003FFFF0
FFFC0000FFFFE0
FFFC0003FFFFE0
FFFC001FFFFFC0
FFFFFFFFFFFF80
FFFFFFFFFFFF80
FFFFFFFFFFFF00
FFFFFFFFFFFE00
FFFFFFFFFFFC00
FFFFFFFFFFF800
FFFFFFFFFFF000
FFFFFFFFFFC000
FFFFFFFFFF8000
FFFFFFFFFE0000
FFFFFFFFF80000
FFFFFFFFE00000
FFFFFFFF800000
FFFFFFF0000000
ENDCHAR
STARTCHAR C
ENCODING 67
SWIDTH 450 0
DWIDTH 72 0
BBX 56 112 8 0
BITMAP
000003FFC00000
00003FFFFC0000
0000FFFFFF0000
0003FFFFFFC000
0007FFFFFFF000
001FFFFFFFF800
003FFFFFFFFC00
007FFFFFFFFE00
00FFFFFFFFFF00
01FFFFFFFFFF80
03FFFFFFFFFFC0
07FFFFFFFFFFE0
07FFFFFFFFFFF0
0FFFFFFFFFFFF0
1FFFFF00FFFFF8
1FFFF8003FFFF8
3FFFF0000FFFFC
3FFFE00007FFFC
3FFFC00003FFFE
7FFF800001FFFE
7FFF000000FFFE
7FFF000000FFFE
FFFE0000007FFF
FFFE0000007FFF
FFFC0000003FFF
FFFC0000003FFF
FFFC0000003FFF
FFFC0000003FFF
FFFC0000000000
FFFC0000000000
FFFC0000000000
FFFC0000000000
FFFC0000000000
FFFC0000000000
FFFC0000000000
FFFC0000000000
FFFC0000000000
FFFC0000000000
FFFC0000000000
FFFC0000000000
FFFC0000000000
FFFC0000000000
FFFC0000000000
FFFC0000000000
FFFC0000000000
FFFC0000000000
FFFC0000000000
FFFC0000000000
FFFC0000000000
FFFC0000000000
FFFC0000000000
FFFC0000000000
FFFC0000000000
FFFC0000000000
FFFC0000000000
FFFC0000000000
FFFC0000000000
FFFC0000000000
FFFC0000000000
FFFC0000000000
FFFC0000000000
FFFC0000000000
FFFC0000000000
FFFC0000000000
FFFC0000000000
FFFC0000000000
FFFC0000000000
FFFC0000000000
FFFC0000000000
FFFC0000000000
FFFC0000000000
FFFC0000000000
FFFC0000000000
FFFC0000000000
FFFC0000000000
FFFC0000000000
FFFC0000000000
FFFC0000000000
FFFC0000000000
FFFC0000000000
FFFC0000000000
FFFC0000000000
FFFC0000000000
FFFC0000000000
FFFC0000003FFF
FFFC0000003FFF
FFFC0000003FFF
FFFE0000007FFF
FFFE0000007FFF
7FFE0000007FFE
7FFF000000FFFE
7FFF000000FFFE
7FFF800001FFFE
3FFFC00003FFFC
3FFFE00007FFFC
3FFFF0000FFFFC
1FFFFC003FFFF8
1FFFFF81FFFFF8
0FFFFFFFFFFFF0
07FFFFFFFFFFE0
07FFFFFFFFFFE0
03FFFFFFFFFFC0
01FFFFFFFFFF80
00FFFFFFFFFF00
007FFFFFFFFE00
003FFFFFFFFC00
000FFFFFFFF000
0007FFFFFFE000
0001FFFFFFC000
00007FFFFF0000
00001FFFF80000
000001FF000000
ENDCHAR
STARTCHAR D
ENCODING 68
SWIDTH 450 0
DWIDTH 72 0
BBX 56 112 8 0
BITMAP
FFFFFFFF800000
FFFFFFFFF80000
FFFFFFFFFE0000
FFFFFFFFFF8000
FFFFFFFFFFE000
FFFFFFFFFFF800
FFFFFFFFFFFC00
FFFFFFFFFFFE00
FFFFFFFFFFFF00
FFFFFFFFFFFF80
FFFFFFFFFFFFC0
FFFFFFFFFFFFE0
FFFFFFFFFFFFE0
FFFFFFFFFFFFF0
FFFC0001FFFFF8
FFFC00003FFFF8
FFFC00000FFFFC
FFFC000007FFFC
FFFC000003FFFC
FFFC000001FFFE
FFFC000000FFFE
FFFC000000FFFE
FFFC0000007FFF
FFFC0000007FFF
FFFC0000007FFF
FFFC0000003FFF
FFFC0000003FFF
FFFC0000003FFF
FFFC0000003FFF
FFFC0000003FFF
FFFC0000003FFF
FFFC0000003FFF
FFFC0000003FFF
FFFC0000003FFF
FFFC0000003FFF
FFFC0000003FFF
FFFC0000003FFF
FFFC0000003FFF
FFFC0000003FFF
FFFC0000003FFF
FFFC0000003FFF
FFFC0000003FFF
FFFC0000003FFF
FFFC0000003FFF
FFFC0000003FFF
FFFC0000003FFF
FFFC0000003FFF
FFFC0000003FFF
FFFC0000003FFF
FFFC0000003FFF
FFFC0000003FFF
FFFC0000003FFF
FFFC0000003FFF
FFFC0000003FFF
FFFC0000003FFF
FFFC0000003FFF
FFFC0000003FFF
FFFC0000003FFF
FFFC0000003FFF
FFFC0000003FFF
FFFC0000003FFF
FFFC0000003FFF
FFFC0000003FFF
FFFC0000003FFF
FFFC0000003FFF
FFFC0000003FFF
FFFC0000003FFF
FFFC0000003FFF
FFFC0000003FFF
FFFC0000003FFF
FFFC0000003FFF
FFFC0000003FFF
FFFC0000003FFF
FFFC0000003FFF
FFFC0000003FFF
FFFC0000003FFF
FFFC0000003FFF
FFFC0000003FFF
FFFC0000003FFF
FFFC0000003FFF
FFFC0000003FFF
FFFC0000003FFF
FFFC0000003FFF
FFFC0000003FFF
FFFC0000003FFF
FFFC0000003FFF
FFFC0000003FFF
FFFC0000007FFF
FFFC0000007FFF
FFFC0000007FFE
FFFC000000FFFE
FFFC000000FFFE
FFFC000001FFFE
FFFC000003FFFC
FFFC000007FFFC
FFFC00000FFFFC
FFFC00003FFFF8
FFFC0000FFFFF8
FFFFFFFFFFFFF0
FFFFFFFFFFFFE0
FFFFFFFFFFFFE0
FFFFFFFFFFFFC0
FFFFFFFFFFFF80
FFFFFFFFFFFF00
FFFFFFFFFFFE00
FFFFFFFFFFFC00
FFFFFFFFFFF800
FFFFFFFFFFE000
FFFFFFFFFFC000
FFFFFFFFFF0000
FFFFFFFFF80000
FFFFFFFF800000
ENDCHAR
STARTCHAR E
ENCODING 69
SWIDTH 450 0
DWIDTH 72 0
BBX 56 112 8 0
BITMAP
FFFFFFFFFFFFFF
FFFFFFFFFFFFFF
FFFFFFFFFFFFFF
FFFFFFFFFFFFFF
FFFFFFFFFFFFFF
FFFFFFFFFFFFFF
FFFFFFFFFFFFFF
FFFFFFFFFFFFFF
FFFFFFFFFFFFFF
FFFFFFFFFFFFFF
FFFFFFFFFFFFFF
FFFFFFFFFFFFFF
FFFFFFFFFFFFFF
FFFFFFFFFFFFFF
FFFC0000000000
FFFC0000000000
FFFC0000000000
FFFC0000000000
FFFC0000000000
FFFC0000000000
FFFC0000000000
FFFC0000000000
FFFC0000000000
FFFC0000000000
FFFC0000000000
FFFC0000000000
FFFC0000000000
FFFC0000000000
FFFC0000000000
FFFC0000000000
FFFC0000000000
FFFC0000000000
FFFC0000000000
FFFC0000000000
FFFC0000000000
FFFC0000000000
FFFC0000000000
FFFC0000000000
FFFC0000000000
FFFC0000000000
FFFC0000000000
FFFC0000000000
FFFC0000000000
FFFC0000000000
FFFC0000000000
FFFC0000000000
FFFC0000000000
FFFC0000000000
FFFC0000000000
FFFFFFFFFFC000
FFFFFFFFFFC000
FFFFFFFFFFC000
FFFFFFFFFFC000
FFFFFFFFFFC000
FFFFFFFFFFC000
FFFFFFFFFFC000
FFFFFFFFFFC000
FFFFFFFFFFC000
FFFFFFFFFFC000
FFFFFFFFFFC000
FFFFFFFFFFC000
FFFFFFFFFFC000
FFFFFFFFFFC000
FFFC0000000000
FFFC0000000000
FFFC0000000000
FFFC0000000000
FFFC0000000000
FFFC0000000000
FFFC0000000000
FFFC0000000000
FFFC0000000000
FFFC0000000000
FFFC0000000000
FFFC0000000000
FFFC0000000000
FFFC0000000000
FFFC0000000000
FFFC0000000000
FFFC0000000000
FFFC0000000000
FFFC0000000000
FFFC0000000000
FFFC0000000000
FFFC0000000000
FFFC0000000000
FFFC0000000000
FFFC0000000000
FFFC0000000000
FFFC0000000000
FFFC0000000000
FFFC0000000000
FFFC0000000000
FFFC0000000000
FFFC0000000000
FFFC0000000000
FFFC0000000000
FFFC0000000000
FFFFFFFFFFFFFF
FFFFFFFFFFFFFF
FFFFFFFFFFFFFF
FFFFFFFFFFFFFF
FFFFFFFFFFFFFF
FFFFFFFFFFFFFF
FFFFFFFFFFFFFF
FFFFFFFFFFFFFF
FFFFFFFFFFFFFF
FFFFFFFFFFFFFF
FFFFFFFFFFFFFF
FFFFFFFFFFFFFF
FFFFFFFFFFFFFF
FFFFFFFFFFFFFF
ENDCHAR
STARTCHAR F
ENCODING 70
SWIDTH 450 0
DWIDTH 72 0
BBX 56 112 8 0
BITMAP
FFFFFFFFFFFFFF
FFFFFFFFFFFFFF
FFFFFFFFFFFFFF
FFFFFFFFFFFFFF
FFFFFFFFFFFFFF
FFFFFFFFFFFFFF
FFFFFFFFFFFFFF
FFFFFFFFFFFFFF
FFFFFFFFFFFFFF
FFFFFFFFFFFFFF
FFFFFFFFFFFFFF
FFFFFFFFFFFFFF
FFFFFFFFFFFFFF
FFFFFFFFFFFFFF
FFFC0000000000
FFFC0000000000
FFFC0000000000
FFFC0000000000
FFFC0000000000
FFFC0000000000
FFFC0000000000
FFFC0000000000
FFFC0000000000
FFFC0000000000
FFFC0000000000
FFFC0000000000
FFFC0000000000
FFFC0000000000
FFFC0000000000
FFFC0000000000
FFFC0000000000
FFFC0000000000
FFFC0000000000
FFFC0000000000
FFFC0000000000
FFFC0000000000
FFFC0000000000
FFFC0000000000
FFFC0000000000
FFFC0000000000
FFFC0000000000
FFFC0000000000
FFFC0000000000
FFFC0000000000
FFFC0000000000
FFFC0000000000
FFFC0000000000
FFFC0000000000
FFFC0000000000
FFFFFFFFFFC000
FFFFFFFFFFC000
FFFFFFFFFFC000
FFFFFFFFFFC000
FFFFFFFFFFC000
FFFFFFFFFFC000
FFFFFFFFFFC000
FFFFFFFFFFC000
FFFFFFFFFFC000
FFFFFFFFFFC000
FFFFFFFFFFC000
FFFFFFFFFFC000
FFFFFFFFFFC000
FFFFFFFFFFC000
FFFC0000000000
FFFC0000000000
FFFC0000000000
FFFC0000000000
FFFC0000000000
FFFC0000000000
FFFC0000000000
FFFC0000000000
FFFC0000000000
FFFC0000000000
FFFC0000000000
FFFC0000000000
FFFC0000000000
FFFC0000000000
FFFC0000000000
FFFC0000000000
FFFC0000000000
FFFC0000000000
FFFC0000000000
FFFC0000000000
FFFC0000000000
FFFC0000000000
FFFC0000000000
FFFC0000000000
FFFC0000000000
FFFC0000000000
FFFC0000000000
FFFC0000000000
FFFC0000000000
FFFC0000000000
FFFC0000000000
FFFC0000000000
FFFC0000000000
FFFC0000000000
FFFC0000000000
FFFC0000000000
FFFC0000000000
FFFC0000000000
FFFC0000000000
FFFC0000000000
FFFC0000000000
FFFC0000000000
FFFC0000000000
FFFC0000000000
FFFC0000000000
FFFC0000000000
FFFC0000000000
FFFC0000000000
FFFC0000000000
ENDCHAR
STARTCHAR G
ENCODING 71
SWIDTH 450 0
DWIDTH 72 0
BBX 56 112 8 0
BITMAP
000003FFC00000
00001FFFF80000
0000FFFFFF0000
0003FFFFFFC000
0007FFFFFFE000
001FFFFFFFF800
003FFFFFFFFC00
007FFFFFFFFE00
00FFFFFFFFFF00
01FFFFFFFFFF80
03FFFFFFFFFFC0
07FFFFFFFFFFE0
07FFFFFFFFFFE0
0FFFFFFFFFFFF0
1FFFFF00FFFFF8
1FFFF8003FFFF8
3FFFF0000FFFFC
3FFFE00007FFFC
3FFFC00003FFFC
7FFF800001FFFE
7FFF000000FFFE
7FFF000000FFFE
FFFE0000007FFF
FFFE0000007FFF
FFFC0000007FFF
FFFC0000003FFF
FFFC0000003FFF
FFFC0000003FFF
FFFC0000000000
FFFC0000000000
FFFC0000000000
FFFC0000000000
FFFC0000000000
FFFC0000000000
FFFC0000000000
FFFC0000000000
FFFC0000000000
FFFC0000000000
FFFC0000000000
FFFC0000000000
FFFC0000000000
FFFC0000000000
FFFC0000000000
FFFC0000000000
FFFC0000000000
FFFC0000000000
FFFC0000000000
FFFC0000000000
FFFC0000000000
FFFC0000000000
FFFC0000000000
FFFC0000000000
FFFC0000000000
FFFC000FFFFFFF
FFFC000FFFFFFF
FFFC000FFFFFFF
FFFC000FFFFFFF
FFFC000FFFFFFF
FFFC000FFFFFFF
FFFC000FFFFFFF
FFFC000FFFFFFF
FFFC000FFFFFFF
FFFC000FFFFFFF
FFFC000FFFFFFF
FFFC000FFFFFFF
FFFC000FFFFFFF
FFFC000FFFFFFF
FFFC0000003FFF
FFFC0000003FFF
FFFC0000003FFF
FFFC0000003FFF
FFFC0000003FFF
FFFC0000003FFF
FFFC0000003FFF
FFFC0000003FFF
FFFC0000003FFF
FFFC0000003FFF
FFFC0000003FFF
FFFC0000003FFF
FFFC0000003FFF
FFFC0000003FFF
FFFC0000003FFF
FFFC0000003FFF
FFFC0000003FFF
FFFC0000003FFF
FFFC0000003FFF
FFFC0000003FFF
FFFE0000007FFF
FFFE0000007FFF
FFFE0000007FFF
7FFF000000FFFF
7FFF000000FFFF
7FFF800001FFFF
3FFFC00003FFFF
3FFFE00007FFFF
3FFFF0000FFFFF
1FFFFC003FFFFF
1FFFFF81FFFFFF
0FFFFFFFFFFFFF
07FFFFFFFFFFFF
07FFFFFFFFFFFF
03FFFFFFFFFFFF
01FFFFFFFFFFFF
00FFFFFFFFFFFF
007FFFFFFFFFFF
003FFFFFFFFFFF
001FFFFFFFFFFF
0007FFFFFFFFFF
0001FFFFFFFFFF
00007FFFFE3FFF
00001FFFF83FFF
000001FF003FFF
ENDCHAR
STARTCHAR H
ENCODING 72
SWIDTH 450 0
DWIDTH 72 0
BBX 56 112 8 0
BITMAP
FFFC0000003FFF
FFFC0000003FFF
FFFC0000003FFF
FFFC0000003FFF
FFFC0000003FFF
FFFC0000003FFF
FFFC0000003FFF
FFFC0000003FFF
FFFC0000003FFF
FFFC0000003FFF
FFFC0000003FFF
FFFC0000003FFF
FFFC0000003FFF
FFFC0000003FFF
FFFC0000003FFF
FFFC0000003FFF
FFFC0000003FFF
FFFC0000003FFF
FFFC0000003FFF
FFFC0000003FFF
FFFC0000003FFF
FFFC0000003FFF
FFFC0000003FFF
FFFC0000003FFF
FFFC0000003FFF
FFFC0000003FFF
FFFC0000003FFF
FFFC0000003FFF
FFFC0000003FFF
FFFC0000003FFF
FFFC0000003FFF
FFFC0000003FFF
FFFC0000003FFF
FFFC0000003FFF
FFFC0000003FFF
FFFC0000003FFF
FFFC0000003FFF
FFFC0000003FFF
FFFC0000003FFF
FFFC0000003FFF
FFFC0000003FFF
FFFC0000003FFF
FFFC0000003FFF
FFFC0000003FFF
FFFC0000003FFF
FFFC0000003FFF
FFFC0000003FFF
FFFC0000003FFF
FFFC0000003FFF
FFFFFFFFFFFFFF
FFFFFFFFFFFFFF
FFFFFFFFFFFFFF
FFFFFFFFFFFFFF
FFFFFFFFFFFFFF
FFFFFFFFFFFFFF
FFFFFFFFFFFFFF
FFFFFFFFFFFFFF
FFFFFFFFFFFFFF
FFFFFFFFFFFFFF
FFFFFFFFFFFFFF
FFFFFFFFFFFFFF
FFFFFFFFFFFFFF
FFFFFFFFFFFFFF
FFFC0000003FFF
FFFC0000003FFF
FFFC0000003FFF
FFFC0000003FFF
FFFC0000003FFF
FFFC0000003FFF
FFFC0000003FFF
FFFC0000003FFF
FFFC0000003FFF
FFFC0000003FFF
FFFC0000003FFF
FFFC0000003FFF
FFFC0000003FFF
FFFC0000003FFF
FFFC0000003FFF
FFFC0000003FFF
FFFC0000003FFF
FFFC0000003FFF
FFFC0000003FFF
FFFC0000003FFF
FFFC0000003FFF
FFFC0000003FFF
FFFC0000003FFF
FFFC0000003FFF
FFFC0000003FFF
FFFC0000003FFF
FFFC0000003FFF
FFFC0000003FFF
FFFC0000003FFF
FFFC0000003FFF
FFFC0000003FFF
FFFC0000003FFF
FFFC0000003FFF
FFFC0000003FFF
FFFC0000003FFF
FFFC0000003FFF
FFFC0000003FFF
FFFC0000003FFF
FFFC0000003FFF
FFFC0000003FFF
FFFC0000003FFF
FFFC0000003FFF
FFFC0000003FFF
FFFC0000003FFF
FFFC0000003FFF
FFFC0000003FFF
FFFC0000003FFF
FFFC0000003FFF
FFFC0000003FFF
ENDCHAR
STARTCHAR I
ENCODING 73
SWIDTH 261 0
DWIDTH 42 0
BBX 14 112 14 0
BITMAP
FFFC
FFFC
FFFC
FFFC
FFFC
FFFC
FFFC
FFFC
FFFC
FFFC
FFFC
FFFC
FFFC
FFFC
FFFC
FFFC
FFFC
FFFC
FFFC
FFFC
FFFC
FFFC
FFFC
FFFC
FFFC
FFFC
FFFC
FFFC
FFFC
FFFC
FFFC
FFFC
FFFC
FFFC
FFFC
FFFC
FFFC
FFFC
FFFC
FFFC
FFFC
FFFC
FFFC
FFFC
FFFC
FFFC
FFFC
FFFC
FFFC
FFFC
FFFC
FFFC
FFFC
FFFC
FFFC
FFFC
FFFC
FFFC
FFFC
FFFC
FFFC
FFFC
FFFC
FFFC
FFFC
FFFC
FFFC
FFFC
FFFC
FFFC
FFFC
FFFC
FFFC
FFFC
FFFC
FFFC
FFFC
FFFC
FFFC
FFFC
FFFC
FFFC
FFFC
FFFC
FFFC
FFFC
FFFC
FFFC
FFFC
FFFC
FFFC
FFFC
FFFC
FFFC
FFFC
FFFC
FFFC
FFFC
FFFC
FFFC
FFFC
FFFC
FFFC
FFFC
FFFC
FFFC
FFFC
FFFC
FFFC
FFFC
FFFC
FFFC
ENDCHAR
STARTCHAR J
ENCODING 74
SWIDTH 450 0
DWIDTH 72 0
BBX 56 112 8 0
BITMAP
00000000003FFF
00000000003FFF
00000000003FFF
00000000003FFF
00000000003FFF
00000000003FFF
00000000003FFF
00000000003FFF
00000000003FFF
00000000003FFF
00000000003FFF
00000000003FFF
00000000003FFF
00000000003FFF
00000000003FFF
00000000003FFF
00000000003FFF
00000000003FFF
00000000003FFF
00000000003FFF
00000000003FFF
00000000003FFF
00000000003FFF
00000000003FFF
00000000003FFF
00000000003FFF
00000000003FFF
00000000003FFF
00000000003FFF
00000000003FFF
00000000003FFF
00000000003FFF
00000000003FFF
00000000003FFF
00000000003FFF
00000000003FFF
00000000003FFF
00000000003FFF
00000000003FFF
00000000003FFF
00000000003FFF
00000000003FFF
00000000003FFF
00000000003FFF
00000000003FFF
00000000003FFF
00000000003FFF
00000000003FFF
00000000003FFF
00000000003FFF
00000000003FFF
00000000003FFF
00000000003FFF
00000000003FFF
00000000003FFF
00000000003FFF
00000000003FFF
00000000003FFF
00000000003FFF
00000000003FFF
00000000003FFF
00000000003FFF
00000000003FFF
00000000003FFF
00000000003FFF
00000000003FFF
00000000003FFF
00000000003FFF
00000000003FFF
00000000003FFF
00000000003FFF
00000000003FFF
00000000003FFF
00000000003FFF
00000000003FFF
00000000003FFF
00000000003FFF
00000000003FFF
00000000003FFF
00000000003FFF
00000000003FFF
00000000003FFF
00000000003FFF
00000000003FFF
FFFC0000003FFF
FFFC0000003FFF
FFFC0000003FFF
FFFC0000007FFF
FFFE0000007FFF
FFFE0000007FFE
7FFF000000FFFE
7FFF000000FFFE
7FFF800001FFFE
7FFFC00003FFFC
3FFFE00007FFFC
3FFFF0000FFFFC
1FFFFC001FFFF8
1FFFFF00FFFFF8
0FFFFFFFFFFFF0
07FFFFFFFFFFE0
07FFFFFFFFFFE0
03FFFFFFFFFFC0
01FFFFFFFFFF80
00FFFFFFFFFF00
007FFFFFFFFE00
003FFFFFFFFC00
001FFFFFFFF800
0007FFFFFFE000
0003FFFFFFC000
0000FFFFFF0000
00001FFFF80000
000003FF800000
ENDCHAR
STARTCHAR K
ENCODING 75
SWIDTH 450 0
DWIDTH 72 0
BBX 56 112 8 0
BITMAP
FFFC000000FFFF
FFFC000001FFFE
FFFC000003FFFE
FFFC000003FFFC
FFFC000007FFFC
FFFC000007FFF8
FFFC00000FFFF0
FFFC00001FFFF0
FFFC00001FFFE0
FFFC00003FFFE0
FFFC00003FFFC0
FFFC00007FFF80
FFFC0000FFFF80
FFFC0000FFFF00
FFFC0001FFFF00
FFFC0003FFFE00
FFFC0003FFFC00
FFFC0007FFFC00
FFFC0007FFF800
FFFC000FFFF800
FFFC001FFFF000
FFFC001FFFE000
FFFC003FFFE000
FFFC003FFFC000
FFFC007FFF8000
FFFC00FFFF8000
FFFC00FFFF0000
FFFC01FFFF0000
FFFC01FFFE0000
FFFC03FFFC0000
FFFC07FFFC0000
FFFC07FFF80000
FFFC0FFFF80000
FFFC0FFFF00000
FFFC1FFFE00000
FFFC3FFFE00000
FFFC3FFFC00000
FFFC7FFFC00000
FFFCFFFF800000
FFFCFFFF000000
FFFFFFFF000000
FFFFFFFE000000
FFFFFFFC000000
FFFFFFFC000000
FFFFFFF8000000
FFFFFFF8000000
FFFFFFF0000000
FFFFFFE0000000
FFFFFFE0000000
FFFFFFC0000000
FFFFFFC0000000
FFFFFF80000000
FFFFFF00000000
FFFFFF00000000
FFFFFE00000000
FFFFFE00000000
FFFFFC00000000
FFFFFE00000000
FFFFFF00000000
FFFFFF00000000
FFFFFF80000000
FFFFFF80000000
FFFFFFC0000000
FFFFFFE0000000
FFFFFFE0000000
FFFFFFF0000000
FFFFFFF8000000
FFFFFFF8000000
FFFFFFFC000000
FFFFFFFC000000
FFFFFFFE000000
FFFFFFFF000000
FFFCFFFF000000
FFFCFFFF800000
FFFC7FFF800000
FFFC3FFFC00000
FFFC3FFFE00000
FFFC1FFFE00000
FFFC1FFFF00000
FFFC0FFFF00000
FFFC07FFF80000
FFFC07FFFC0000
FFFC03FFFC0000
FFFC03FFFE0000
FFFC01FFFF0000
FFFC00FFFF0000
FFFC00FFFF8000
FFFC007FFF8000
FFFC003FFFC000
FFFC003FFFE000
FFFC001FFFE000
FFFC001FFFF000
FFFC000FFFF000
FFFC0007FFF800
FFFC0007FFFC00
FFFC0003FFFC00
FFFC0003FFFE00
FFFC0001FFFE00
FFFC0000FFFF00
FFFC0000FFFF80
FFFC00007FFF80
FFFC00003FFFC0
FFFC00003FFFE0
FFFC00001FFFE0
FFFC00001FFFF0
FFFC00000FFFF0
FFFC000007FFF8
FFFC000007FFFC
FFFC000003FFFC
FFFC000003FFFE
FFFC000001FFFE
FFFC000000FFFF
ENDCHAR
STARTCHAR L
ENCODING 76
SWIDTH 450 0
DWIDTH 72 0
BBX 56 112 8 0
BITMAP
FFFC0000000000
FFFC0000000000
FFFC0000000000
FFFC0000000000
FFFC0000000000
FFFC0000000000
FFFC0000000000
FFFC0000000000
FFFC0000000000
FFFC0000000000
FFFC0000000000
FFFC0000000000
FFFC0000000000
FFFC0000000000
FFFC0000000000
FFFC0000000000
FFFC0000000000
FFFC0000000000
FFFC0000000000
FFFC0000000000
FFFC0000000000
FFFC0000000000
FFFC0000000000
FFFC0000000000
FFFC0000000000
FFFC0000000000
FFFC0000000000
FFFC0000000000
FFFC0000000000
FFFC0000000000
FFFC0000000000
FFFC0000000000
FFFC0000000000
FFFC0000000000
FFFC0000000000
FFFC0000000000
FFFC0000000000
FFFC0000000000
FFFC0000000000
FFFC0000000000
FFFC0000000000
FFFC0000000000
FFFC0000000000
FFFC0000000000
FFFC0000000000
FFFC0000000000
FFFC0000000000
FFFC0000000000
FFFC0000000000
FFFC0000000000
FFFC0000000000
FFFC0000000000
FFFC0000000000
FFFC0000000000
FFFC0000000000
FFFC0000000000
FFFC0000000000
FFFC0000000000
FFFC0000000000
FFFC0000000000
FFFC0000000000
FFFC0000000000
FFFC0000000000
FFFC0000000000
FFFC0000000000
FFFC0000000000
FFFC0000000000
FFFC0000000000
FFFC0000000000
FFFC0000000000
FFFC0000000000
FFFC0000000000
FFFC0000000000
FFFC0000000000
FFFC0000000000
FFFC0000000000
FFFC0000000000
FFFC0000000000
FFFC0000000000
FFFC0000000000
FFFC0000000000
FFFC0000000000
FFFC0000000000
FFFC0000000000
FFFC0000000000
FFFC0000000000
FFFC0000000000
FFFC0000000000
FFFC0000000000
FFFC0000000000
FFFC0000000000
FFFC0000000000
FFFC0000000000
FFFC0000000000
FFFC0000000000
FFFC0000000000
FFFC0000000000
FFFC0000000000
FFFFFFFFFFFFFF
FFFFFFFFFFFFFF
FFFFFFFFFFFFFF
FFFFFFFFFFFFFF
FFFFFFFFFFFFFF
FFFFFFFFFFFFFF
FFFFFFFFFFFFFF
FFFFFFFFFFFFFF
FFFFFFFFFFFFFF
FFFFFFFFFFFFFF
FFFFFFFFFFFFFF
FFFFFFFFFFFFFF
FFFFFFFFFFFFFF
FFFFFFFFFFFFFF
ENDCHAR
STARTCHAR M
ENCODING 77
SWIDTH 450 0
DWIDTH 72 0
BBX 56 112 8 0
BITMAP
FFFC0000003FFF
FFFE0000007FFF
FFFE0000007FFF
FFFE0000007FFF
FFFF000000FFFF
FFFF000000FFFF
FFFF000000FFFF
FFFF800001FFFF
FFFF800001FFFF
FFFF800001FFFF
FFFFC00003FFFF
FFFFC00003FFFF
FFFFC00003FFFF
FFFFE00007FFFF
FFFFE00007FFFF
FFFFE00007FFFF
FFFFF0000FFFFF
FFFFF0000FFFFF
FFFFF0000FFFFF
FFFFF8001FFFFF
FFFFF8001FFFFF
FFFFF8001FFFFF
FFFFFC003FFFFF
FFFFFC003FFFFF
FFFFFC003FFFFF
FFFFFE007FFFFF
FFFFFE007FFFFF
FFFFFE007FFFFF
FFFFFF00FFFFFF
FFFFFF00FFFFFF
FFFFFF00FFFFFF
FFFFFF81FFFFFF
FFFFFF81FFFFFF
FFFFFF81FFFFFF
FFFFFFC3FFFFFF
FFFFFFC3FFFFFF
FFFFFFE7FFFFFF
FFFFFFE7FFFFFF
FFFFFFE7FFFFFF
FFFFFFFFFFFFFF
FFFFFFFFFFFFFF
FFFFFFFFFFFFFF
FFFFFFFFFFFFFF
FFFFFFFFFFFFFF
FFFFFFFFFFFFFF
FFFFFFFFFFFFFF
FFFFFFFFFFFFFF
FFFFFFFFFFBFFF
FFFCFFFFFF3FFF
FFFCFFFFFF3FFF
FFFC7FFFFE3FFF
FFFC7FFFFE3FFF
FFFC7FFFFE3FFF
FFFC3FFFFC3FFF
FFFC3FFFFC3FFF
FFFC3FFFFC3FFF
FFFC1FFFF83FFF
FFFC1FFFF83FFF
FFFC1FFFF83FFF
FFFC0FFFF03FFF
FFFC0FFFF03FFF
FFFC0FFFF03FFF
FFFC07FFE03FFF
FFFC07FFE03FFF
FFFC07FFE03FFF
FFFC03FFC03FFF
FFFC03FFC03FFF
FFFC03FFC03FFF
FFFC01FF803FFF
FFFC01FF803FFF
FFFC01FF803FFF
FFFC00FF003FFF
FFFC00FF003FFF
FFFC00FF003FFF
FFFC007E003FFF
FFFC007E003FFF
FFFC007E003FFF
FFFC003C003FFF
FFFC003C003FFF
FFFC003C003FFF
FFFC0018003FFF
FFFC0018003FFF
FFFC0000003FFF
FFFC0000003FFF
FFFC0000003FFF
FFFC0000003FFF
FFFC0000003FFF
FFFC0000003FFF
FFFC0000003FFF
FFFC0000003FFF
FFFC0000003FFF
FFFC0000003FFF
FFFC0000003FFF
FFFC0000003FFF
FFFC0000003FFF
FFFC0000003FFF
FFFC0000003FFF
FFFC0000003FFF
FFFC0000003FFF
FFFC0000003FFF
FFFC0000003FFF
FFFC0000003FFF
FFFC0000003FFF
FFFC0000003FFF
FFFC0000003FFF
FFFC0000003FFF
FFFC0000003FFF
FFFC0000003FFF
FFFC0000003FFF
FFFC0000003FFF
FFFC0000003FFF
FFFC0000003FFF
ENDCHAR
STARTCHAR N
ENCODING 78
SWIDTH 450 0
DWIDTH 72 0
BBX 56 112 8 0
BITMAP
FFFC0000003FFF
FFFE0000003FFF
FFFE0000003FFF
FFFE0000003FFF
FFFF0000003FFF
FFFF0000003FFF
FFFF0000003FFF
FFFF8000003FFF
FFFF8000003FFF
FFFFC000003FFF
FFFFC000003FFF
FFFFC000003FFF
FFFFE000003FFF
FFFFE000003FFF
FFFFF000003FFF
FFFFF000003FFF
FFFFF000003FFF
FFFFF800003FFF
FFFFF800003FFF
FFFFF800003FFF
FFFFFC00003FFF
FFFFFC00003FFF
FFFFFE00003FFF
FFFFFE00003FFF
FFFFFE00003FFF
FFFFFF00003FFF
FFFFFF00003FFF
FFFFFF80003FFF
FFFFFF80003FFF
FFFFFF80003FFF
FFFFFFC0003FFF
FFFFFFC0003FFF
FFFFFFC0003FFF
FFFFFFE0003FFF
FFFFFFE0003FFF
FFFFFFF0003FFF
FFFFFFF0003FFF
FFFFFFF0003FFF
FFFFFFF8003FFF
FFFFFFF8003FFF
FFFFFFF8003FFF
FFFFFFFC003FFF
FFFFFFFC003FFF
FFFCFFFE003FFF
FFFCFFFE003FFF
FFFC7FFE003FFF
FFFC7FFF003FFF
FFFC7FFF003FFF
FFFC3FFF803FFF
FFFC3FFF803FFF
FFFC3FFF803FFF
FFFC1FFFC03FFF
FFFC1FFFC03FFF
FFFC0FFFC03FFF
FFFC0FFFE03FFF
FFFC0FFFE03FFF
FFFC07FFF03FFF
FFFC07FFF03FFF
FFFC07FFF03FFF
FFFC03FFF83FFF
FFFC03FFF83FFF
FFFC01FFFC3FFF
FFFC01FFFC3FFF
FFFC01FFFC3FFF
FFFC00FFFE3FFF
FFFC00FFFE3FFF
FFFC007FFE3FFF
FFFC007FFF3FFF
FFFC007FFF3FFF
FFFC003FFFFFFF
FFFC003FFFFFFF
FFFC003FFFFFFF
FFFC001FFFFFFF
FFFC001FFFFFFF
FFFC000FFFFFFF
FFFC000FFFFFFF
FFFC000FFFFFFF
FFFC0007FFFFFF
FFFC0007FFFFFF
FFFC0003FFFFFF
FFFC0003FFFFFF
FFFC0003FFFFFF
FFFC0001FFFFFF
FFFC0001FFFFFF
FFFC0001FFFFFF
FFFC0000FFFFFF
FFFC0000FFFFFF
FFFC00007FFFFF
FFFC00007FFFFF
FFFC00007FFFFF
FFFC00003FFFFF
FFFC00003FFFFF
FFFC00003FFFFF
FFFC00001FFFFF
FFFC00001FFFFF
FFFC00000FFFFF
FFFC00000FFFFF
FFFC00000FFFFF
FFFC000007FFFF
FFFC000007FFFF
FFFC000003FFFF
FFFC000003FFFF
FFFC000003FFFF
FFFC000001FFFF
FFFC000001FFFF
FFFC000001FFFF
FFFC000000FFFF
FFFC000000FFFF
FFFC0000007FFF
FFFC0000007FFF
FFFC0000007FFF
FFFC0000003FFF
ENDCHAR
STARTCHAR O
ENCODING 79
SWIDTH 450 0
DWIDTH 72 0
BBX 56 112 8 0
BITMAP
000001FF800000
00001FFFF80000
00007FFFFE0000
0001FFFFFF8000
0007FFFFFFE000
000FFFFFFFF800
003FFFFFFFFC00
007FFFFFFFFE00
00FFFFFFFFFF00
01FFFFFFFFFF80
03FFFFFFFFFFC0
07FFFFFFFFFFE0
07FFFFFFFFFFE0
0FFFFFFFFFFFF0
1FFFFF01FFFFF8
1FFFFC003FFFF8
3FFFF0000FFFFC
3FFFE00007FFFC
3FFFC00003FFFC
7FFF800001FFFE
7FFF000000FFFE
7FFF000000FFFE
FFFE0000007FFF
FFFE0000007FFF
FFFC0000007FFF
FFFC0000003FFF
FFFC0000003FFF
FFFC0000003FFF
FFFC0000003FFF
FFFC0000003FFF
FFFC0000003FFF
FFFC0000003FFF
FFFC0000003FFF
FFFC0000003FFF
FFFC0000003FFF
FFFC0000003FFF
FFFC0000003FFF
FFFC0000003FFF
FFFC0000003FFF
FFFC0000003FFF
FFFC0000003FFF
FFFC0000003FFF
FFFC0000003FFF
FFFC0000003FFF
FFFC0000003FFF
FFFC0000003FFF
FFFC0000003FFF
FFFC0000003FFF
FFFC0000003FFF
FFFC0000003FFF
FFFC0000003FFF
FFFC0000003FFF
FFFC0000003FFF
FFFC0000003FFF
FFFC0000003FFF
FFFC0000003FFF
FFFC0000003FFF
FFFC0000003FFF
FFFC0000003FFF
FFFC0000003FFF
FFFC0000003FFF
FFFC0000003FFF
FFFC0000003FFF
FFFC0000003FFF
FFFC0000003FFF
FFFC0000003FFF
FFFC0000003FFF
FFFC0000003FFF
FFFC0000003FFF
FFFC0000003FFF
FFFC0000003FFF
FFFC0000003FFF
FFFC0000003FFF
FFFC0000003FFF
FFFC0000003FFF
FFFC0000003FFF
FFFC0000003FFF
FFFC0000003FFF
FFFC0000003FFF
FFFC0000003FFF
FFFC0000003FFF
FFFC0000003FFF
FFFC0000003FFF
FFFC0000003FFF
FFFC0000003FFF
FFFC0000003FFF
FFFC0000003FFF
FFFE0000007FFF
FFFE0000007FFF
FFFE0000007FFE
7FFF000000FFFE
7FFF000000FFFE
7FFF800001FFFE
3FFFC00003FFFC
3FFFE00007FFFC
3FFFF0000FFFFC
1FFFFC003FFFF8
1FFFFF00FFFFF8
0FFFFFFFFFFFF0
07FFFFFFFFFFE0
07FFFFFFFFFFE0
03FFFFFFFFFFC0
01FFFFFFFFFF80
00FFFFFFFFFF00
007FFFFFFFFE00
003FFFFFFFFC00
001FFFFFFFF800
0007FFFFFFE000
0003FFFFFFC000
0000FFFFFF0000
00001FFFF80000
000003FF800000
ENDCHAR
STARTCHAR P
ENCODING 80
SWIDTH 450 0
DWIDTH 72 0
BBX 56 112 8 0
BITMAP
FFFFFFF0000000
FFFFFFFF000000
FFFFFFFFE00000
FFFFFFFFF80000
FFFFFFFFFE0000
FFFFFFFFFF8000
FFFFFFFFFFC000
FFFFFFFFFFE000
FFFFFFFFFFF800
FFFFFFFFFFFC00
FFFFFFFFFFFE00
FFFFFFFFFFFF00
FFFFFFFFFFFF80
FFFFFFFFFFFF80
FFFC001FFFFFC0
FFFC0003FFFFE0
FFFC0000FFFFE0
FFFC00007FFFF0
FFFC00001FFFF8
FFFC00000FFFF8
FFFC000007FFF8
FFFC000003FFFC
FFFC000001FFFC
FFFC000001FFFE
FFFC000000FFFE
FFFC000000FFFE
FFFC0000007FFE
FFFC0000007FFE
FFFC0000007FFF
FFFC0000003FFF
FFFC0000003FFF
FFFC0000003FFF
FFFC0000003FFF
FFFC0000003FFF
FFFC0000003FFF
FFFC0000003FFF
FFFC0000003FFF
FFFC0000003FFF
FFFC0000007FFF
FFFC0000007FFF
FFFC0000007FFE
FFFC000000FFFE
FFFC000000FFFE
FFFC000001FFFE
FFFC000001FFFC
FFFC000003FFFC
FFFC000007FFFC
FFFC00000FFFF8
FFFC00001FFFF8
FFFC00003FFFF0
FFFC00007FFFE0
FFFC0001FFFFE0
FFFC000FFFFFC0
FFFFFFFFFFFF80
FFFFFFFFFFFF80
FFFFFFFFFFFF00
FFFFFFFFFFFE00
FFFFFFFFFFFC00
FFFFFFFFFFF800
FFFFFFFFFFF000
FFFFFFFFFFE000
FFFFFFFFFF8000
FFFFFFFFFF0000
FFFFFFFFFC0000
FFFFFFFFF00000
FFFFFFFF800000
FFFFFFF8000000
FFFC0000000000
FFFC0000000000
FFFC0000000000
FFFC0000000000
FFFC0000000000
FFFC0000000000
FFFC0000000000
FFFC0000000000
FFFC0000000000
FFFC0000000000
FFFC0000000000
FFFC0000000000
FFFC0000000000
FFFC0000000000
FFFC0000000000
FFFC0000000000
FFFC0000000000
FFFC0000000000
FFFC0000000000
FFFC0000000000
FFFC0000000000
FFFC0000000000
FFFC0000000000
FFFC0000000000
FFFC0000000000
FFFC0000000000
FFFC0000000000
FFFC0000000000
FFFC0000000000
FFFC0000000000
FFFC0000000000
FFFC0000000000
FFFC0000000000
FFFC0000000000
FFFC0000000000
FFFC0000000000
FFFC0000000000
FFFC0000000000
FFFC0000000000
FFFC0000000000
FFFC0000000000
FFFC0000000000
FFFC0000000000
FFFC0000000000
FFFC0000000000
ENDCHAR
STARTCHAR Q
ENCODING 81
SWIDTH 450 0
DWIDTH 72 0
BBX 56 112 8 0
BITMAP
000001FF800000
00001FFFF80000
0000FFFFFF0000
0003FFFFFFC000
0007FFFFFFE000
001FFFFFFFF800
003FFFFFFFFC00
007FFFFFFFFE00
00FFFFFFFFFF00
01FFFFFFFFFF80
03FFFFFFFFFFC0
07FFFFFFFFFFE0
07FFFFFFFFFFE0
0FFFFFFFFFFFF0
1FFFFF01FFFFF8
1FFFFC003FFFF8
3FFFF0000FFFFC
3FFFE00007FFFC
3FFFC00003FFFC
7FFF800001FFFE
7FFF000000FFFE
7FFF000000FFFE
FFFE0000007FFF
FFFE0000007FFF
FFFC0000007FFF
FFFC0000003FFF
FFFC0000003FFF
FFFC0000003FFF
FFFC0000003FFF
FFFC0000003FFF
FFFC0000003FFF
FFFC0000003FFF
FFFC0000003FFF
FFFC0000003FFF
FFFC0000003FFF
FFFC0000003FFF
FFFC0000003FFF
FFFC0000003FFF
FFFC0000003FFF
FFFC0000003FFF
FFFC0000003FFF
FFFC0000003FFF
FFFC0000003FFF
FFFC0000003FFF
FFFC0000003FFF
FFFC0000003FFF
FFFC0000003FFF
FFFC0000003FFF
FFFC0000003FFF
FFFC0000003FFF
FFFC0000003FFF
FFFC0000003FFF
FFFC0000003FFF
FFFC0000003FFF
FFFC0000003FFF
FFFC0000003FFF
FFFC0000003FFF
FFFC0000003FFF
FFFC0000003FFF
FFFC0000003FFF
FFFC0000003FFF
FFFC0000003FFF
FFFC0000003FFF
FFFC0000003FFF
FFFC0000003FFF
FFFC0000003FFF
FFFC0000003FFF
FFFC0000003FFF
FFFC0000003FFF
FFFC0000003FFF
FFFC0000003FFF
FFFC0000003FFF
FFFC0000003FFF
FFFC0000003FFF
FFFC0000003FFF
FFFC0000003FFF
FFFC0000003FFF
FFFC0000003FFF
FFFC0000003FFF
FFFC0000003FFF
FFFC0000003FFF
FFFC0000003FFF
FFFC0000003FFF
FFFC0000003FFF
FFFC0000003FFF
FFFC0000003FFF
FFFC0000003FFF
FFFE0000007FFF
FFFE0000007FFF
FFFE0000007FFE
7FFF000000FFFE
7FFF000000FFFE
7FFF800001FFFE
3FFFC00003FFFC
3FFFE00007FFFC
3FFFF0000FFFFC
1FFFFC003FFFF8
1FFFFF00FFFFF8
0FFFFFFFFFFFF0
07FFFFFFFFFFF0
07FFFFFFFFFFF0
03FFFFFFFFFFF0
01FFFFFFFFFFF8
00FFFFFFFFFFF8
007FFFFFFFFFF8
003FFFFFFFFFFC
001FFFFFFFFFFC
0007FFFFFFFFFE
0003FFFFFFFFFE
0000FFFFFFFFFE
00001FFFF87FFF
000003FF807FFF
ENDCHAR
STARTCHAR R
ENCODING 82
SWIDTH 450 0
DWIDTH 72 0
BBX 56 112 8 0
BITMAP
FFFFFFE0000000
FFFFFFFF000000
FFFFFFFFE00000
FFFFFFFFF80000
FFFFFFFFFE0000
FFFFFFFFFF8000
FFFFFFFFFFC000
FFFFFFFFFFE000
FFFFFFFFFFF800
FFFFFFFFFFFC00
FFFFFFFFFFFE00
FFFFFFFFFFFF00
FFFFFFFFFFFF00
FFFFFFFFFFFF80
FFFC003FFFFFC0
FFFC0007FFFFE0
FFFC0000FFFFE0
FFFC00007FFFF0
FFFC00001FFFF0
FFFC00000FFFF8
FFFC000007FFF8
FFFC000003FFFC
FFFC000003FFFC
FFFC000001FFFC
FFFC000000FFFE
FFFC000000FFFE
FFFC0000007FFE
FFFC0000007FFE
FFFC0000007FFF
FFFC0000003FFF
FFFC0000003FFF
FFFC0000003FFF
FFFC0000003FFF
FFFC0000003FFF
FFFC0000003FFF
FFFC0000003FFF
FFFC0000003FFF
FFFC0000003FFF
FFFC0000003FFF
FFFC0000007FFE
FFFC0000007FFE
FFFC0000007FFE
FFFC000000FFFE
FFFC000000FFFC
FFFC000001FFFC
FFFC000003FFFC
FFFC000007FFF8
FFFC00000FFFF8
FFFC00001FFFF8
FFFC00003FFFF0
FFFC00007FFFE0
FFFC0001FFFFE0
FFFC000FFFFFC0
FFFFFFFFFFFFC0
FFFFFFFFFFFF80
FFFFFFFFFFFF00
FFFFFFFFFFFE00
FFFFFFFFFFFC00
FFFFFFFFFFF800
FFFFFFFFFFF000
FFFFFFFFFFE000
FFFFFFFFFF8000
FFFFFFFFFF0000
FFFFFFFFFF0000
FFFFFFFFFF0000
FFFFFFFFFF0000
FFFFFFFFFF8000
FFFC003FFF8000
FFFC001FFF8000
FFFC001FFFC000
FFFC001FFFC000
FFFC000FFFC000
FFFC000FFFE000
FFFC000FFFE000
FFFC0007FFE000
FFFC0007FFF000
FFFC0007FFF000
FFFC0003FFF000
FFFC0003FFF800
FFFC0003FFF800
FFFC0001FFF800
FFFC0001FFFC00
FFFC0001FFFC00
FFFC0000FFFC00
FFFC0000FFFE00
FFFC0000FFFE00
FFFC00007FFE00
FFFC00007FFF00
FFFC00007FFF00
FFFC00003FFF00
FFFC00003FFF80
FFFC00003FFF80
FFFC00001FFF80
FFFC00001FFFC0
FFFC00001FFFC0
FFFC00000FFFC0
FFFC00000FFFE0
FFFC00000FFFE0
FFFC000007FFE0
FFFC000007FFF0
FFFC000007FFF0
FFFC000003FFF0
FFFC000003FFF8
FFFC000003FFF8
FFFC000001FFF8
FFFC000001FFFC
FFFC000001FFFC
FFFC000000FFFC
FFFC000000FFFE
FFFC000000FFFE
FFFC0000007FFE
FFFC0000007FFF
ENDCHAR
STARTCHAR S
ENCODING 83
SWIDTH 450 0
DWIDTH 72 0
BBX 56 112 8 0
BITMAP
000001FF800000
00001FFFF80000
0000FFFFFF0000
0003FFFFFFC000
0007FFFFFFE000
001FFFFFFFF800
003FFFFFFFFC00
007FFFFFFFFE00
00FFFFFFFFFF00
01FFFFFFFFFF80
03FFFFFFFFFFC0
07FFFFFFFFFFE0
07FFFFFFFFFFE0
0FFFFFFFFFFFF0
1FFFFF80FFFFF8
1FFFFC003FFFF8
3FFFF0000FFFFC
3FFFE00007FFFC
3FFFC00003FFFC
7FFF800001FFFE
7FFF000000FFFE
7FFF000000FFFE
FFFE0000007FFE
FFFE0000007FFF
FFFC0000007FFF
FFFC0000003FFF
FFFC0000003FFF
FFFC0000003FFF
FFFC0000000000
FFFC0000000000
FFFC0000000000
FFFC0000000000
FFFE0000000000
FFFE0000000000
7FFF0000000000
7FFF0000000000
7FFF8000000000
3FFFC000000000
3FFFE000000000
3FFFF000000000
1FFFF800000000
1FFFFC00000000
0FFFFE00000000
07FFFF00000000
07FFFF80000000
03FFFFE0000000
01FFFFF0000000
00FFFFF8000000
007FFFFC000000
003FFFFE000000
001FFFFF000000
000FFFFF800000
0007FFFFE00000
0003FFFFF00000
0000FFFFF80000
00007FFFFC0000
00003FFFFE0000
00001FFFFF0000
00000FFFFF8000
000007FFFFE000
000003FFFFF000
000000FFFFF800
0000007FFFFC00
0000003FFFFE00
0000001FFFFF00
0000000FFFFF80
00000007FFFFC0
00000003FFFFE0
00000001FFFFE0
000000007FFFF0
000000003FFFF0
000000001FFFF8
000000000FFFFC
0000000007FFFC
0000000003FFFC
0000000001FFFE
0000000000FFFE
0000000000FFFE
00000000007FFE
00000000007FFF
00000000003FFF
00000000003FFF
00000000003FFF
00000000003FFF
FFFC0000003FFF
FFFC0000003FFF
FFFC0000003FFF
FFFC0000007FFF
FFFE0000007FFF
FFFE0000007FFF
7FFF000000FFFE
7FFF000000FFFE
7FFF800001FFFE
3FFFC00003FFFC
3FFFE00007FFFC
3FFFF0000FFFFC
1FFFF8003FFFF8
1FFFFF00FFFFF8
0FFFFFFFFFFFF0
07FFFFFFFFFFE0
07FFFFFFFFFFE0
03FFFFFFFFFFC0
01FFFFFFFFFF80
00FFFFFFFFFF00
007FFFFFFFFE00
003FFFFFFFFC00
001FFFFFFFF800
0007FFFFFFE000
0003FFFFFFC000
0000FFFFFF0000
00001FFFF80000
000001FFC00000
ENDCHAR
STARTCHAR T
ENCODING 84
SWIDTH 450 0
DWIDTH 72 0
BBX 56 112 8 0
BITMAP
FFFFFFFFFFFFFF
FFFFFFFFFFFFFF
FFFFFFFFFFFFFF
FFFFFFFFFFFFFF
FFFFFFFFFFFFFF
FFFFFFFFFFFFFF
FFFFFFFFFFFFFF
FFFFFFFFFFFFFF
FFFFFFFFFFFFFF
FFFFFFFFFFFFFF
FFFFFFFFFFFFFF
FFFFFFFFFFFFFF
FFFFFFFFFFFFFF
FFFFFFFFFFFFFF
000007FFE00000
000007FFE00000
000007FFE00000
000007FFE00000
000007FFE00000
000007FFE00000
000007FFE00000
000007FFE00000
000007FFE00000
000007FFE00000
000007FFE00000
000007FFE00000
000007FFE00000
000007FFE00000
000007FFE00000
000007FFE00000
000007FFE00000
000007FFE00000
000007FFE00000
000007FFE00000
000007FFE00000
000007FFE00000
000007FFE00000
000007FFE00000
000007FFE00000
000007FFE00000
000007FFE00000
000007FFE00000
000007FFE00000
000007FFE00000
000007FFE00000
000007FFE00000
000007FFE00000
000007FFE00000
000007FFE00000
000007FFE00000
000007FFE00000
000007FFE00000
000007FFE00000
000007FFE00000
000007FFE00000
000007FFE00000
000007FFE00000
000007FFE00000
000007FFE00000
000007FFE00000
000007FFE00000
000007FFE00000
000007FFE00000
000007FFE00000
000007FFE00000
000007FFE00000
000007FFE00000
000007FFE00000
000007FFE00000
000007FFE00000
000007FFE00000
000007FFE00000
000007FFE00000
000007FFE00000
000007FFE00000
000007FFE00000
000007FFE00000
000007FFE00000
000007FFE00000
000007FFE00000
000007FFE00000
000007FFE00000
000007FFE00000
000007FFE00000
000007FFE00000
000007FFE00000
000007FFE00000
000007FFE00000
000007FFE00000
000007FFE00000
000007FFE00000
000007FFE00000
000007FFE00000
000007FFE00000
000007FFE00000
000007FFE00000
000007FFE00000
000007FFE00000
000007FFE00000
000007FFE00000
000007FFE00000
000007FFE00000
000007FFE00000
000007FFE00000
000007FFE00000
000007FFE00000
000007FFE00000
000007FFE00000
000007FFE00000
000007FFE00000
000007FFE00000
000007FFE00000
ENDCHAR
STARTCHAR U
ENCODING 85
SWIDTH 450 0
DWIDTH 72 0
BBX 56 112 8 0
BITMAP
FFFC0000003FFF
FFFC0000003FFF
FFFC0000003FFF
FFFC0000003FFF
FFFC0000003FFF
FFFC0000003FFF
FFFC0000003FFF
FFFC0000003FFF
FFFC0000003FFF
FFFC0000003FFF
FFFC0000003FFF
FFFC0000003FFF
FFFC0000003FFF
FFFC0000003FFF
FFFC0000003FFF
FFFC0000003FFF
FFFC0000003FFF
FFFC0000003FFF
FFFC0000003FFF
FFFC0000003FFF
FFFC0000003FFF
FFFC0000003FFF
FFFC0000003FFF
FFFC0000003FFF
FFFC0000003FFF
FFFC0000003FFF
FFFC0000003FFF
FFFC0000003FFF
FFFC0000003FFF
FFFC0000003FFF
FFFC0000003FFF
FFFC0000003FFF
FFFC0000003FFF
FFFC0000003FFF
FFFC0000003FFF
FFFC0000003FFF
FFFC0000003FFF
FFFC0000003FFF
FFFC0000003FFF
FFFC0000003FFF
FFFC0000003FFF
FFFC0000003FFF
FFFC0000003FFF
FFFC0000003FFF
FFFC0000003FFF
FFFC0000003FFF
FFFC0000003FFF
FFFC0000003FFF
FFFC0000003FFF
FFFC0000003FFF
FFFC0000003FFF
FFFC0000003FFF
FFFC0000003FFF
FFFC0000003FFF
FFFC0000003FFF
FFFC0000003FFF
FFFC0000003FFF
FFFC0000003FFF
FFFC0000003FFF
FFFC0000003FFF
FFFC0000003FFF
FFFC0000003FFF
FFFC0000003FFF
FFFC0000003FFF
FFFC0000003FFF
FFFC0000003FFF
FFFC0000003FFF
FFFC0000003FFF
FFFC0000003FFF
FFFC0000003FFF
FFFC0000003FFF
FFFC0000003FFF
FFFC0000003FFF
FFFC0000003FFF
FFFC0000003FFF
FFFC0000003FFF
FFFC0000003FFF
FFFC0000003FFF
FFFC0000003FFF
FFFC0000003FFF
FFFC0000003FFF
FFFC0000003FFF
FFFC0000003FFF
FFFC0000003FFF
FFFC0000003FFF
FFFC0000003FFF
FFFC0000003FFF
FFFE0000007FFF
FFFE0000007FFF
FFFE0000007FFE
7FFF000000FFFE
7FFF000000FFFE
7FFF800001FFFE
3FFFC00003FFFC
3FFFE00007FFFC
3FFFF0000FFFFC
1FFFFC003FFFF8
1FFFFF00FFFFF8
0FFFFFFFFFFFF0
07FFFFFFFFFFE0
07FFFFFFFFFFE0
03FFFFFFFFFFC0
01FFFFFFFFFF80
00FFFFFFFFFF00
007FFFFFFFFE00
003FFFFFFFFC00
001FFFFFFFF800
0007FFFFFFE000
0003FFFFFFC000
0000FFFFFF0000
00001FFFF80000
000003FF800000
ENDCHAR
STARTCHAR V
ENCODING 86
SWIDTH 450 0
DWIDTH 72 0
BBX 56 112 8 0
BITMAP
FFFC0000003FFF
FFFC0000003FFF
FFFC0000003FFF
7FFE0000007FFE
7FFE0000007FFE
7FFE0000007FFE
7FFE0000007FFE
7FFE0000007FFE
3FFF0000007FFE
3FFF000000FFFC
3FFF000000FFFC
3FFF000000FFFC
3FFF000000FFFC
1FFF800000FFFC
1FFF800001FFF8
1FFF800001FFF8
1FFF800001FFF8
1FFF800001FFF8
0FFFC00001FFF8
0FFFC00001FFF8
0FFFC00003FFF0
0FFFC00003FFF0
0FFFC00003FFF0
07FFE00003FFF0
07FFE00003FFF0
07FFE00003FFF0
07FFE00007FFE0
07FFE00007FFE0
03FFF00007FFE0
03FFF00007FFE0
03FFF00007FFE0
03FFF0000FFFC0
03FFF0000FFFC0
01FFF8000FFFC0
01FFF8000FFFC0
01FFF8000FFFC0
01FFF8000FFFC0
01FFF8001FFF80
00FFFC001FFF80
00FFFC001FFF80
00FFFC001FFF80
00FFFC001FFF80
00FFFC001FFF80
007FFE003FFF00
007FFE003FFF00
007FFE003FFF00
007FFE003FFF00
007FFE003FFF00
003FFF007FFE00
003FFF007FFE00
003FFF007FFE00
003FFF007FFE00
003FFF007FFE00
001FFF807FFE00
001FFF80FFFC00
001FFF80FFFC00
001FFF80FFFC00
001FFF80FFFC00
000FFFC0FFFC00
000FFFC1FFFC00
000FFFC1FFF800
000FFFC1FFF800
000FFFC1FFF800
0007FFE1FFF800
0007FFE1FFF800
0007FFE3FFF000
0007FFE3FFF000
0007FFE3FFF000
0003FFF3FFF000
0003FFF3FFF000
0003FFF7FFF000
0003FFFFFFE000
0003FFFFFFE000
0001FFFFFFE000
0001FFFFFFE000
0001FFFFFFE000
0001FFFFFFE000
0001FFFFFFC000
0000FFFFFFC000
0000FFFFFFC000
0000FFFFFFC000
0000FFFFFFC000
0000FFFFFF8000
00007FFFFF8000
00007FFFFF8000
00007FFFFF8000
00007FFFFF8000
00007FFFFF8000
00003FFFFF0000
00003FFFFF0000
00003FFFFF0000
00003FFFFF0000
00003FFFFF0000
00001FFFFE0000
00001FFFFE0000
00001FFFFE0000
00001FFFFE0000
00001FFFFE0000
00000FFFFE0000
00000FFFFC0000
00000FFFFC0000
00000FFFFC0000
00000FFFFC0000
000007FFFC0000
000007FFFC0000
000007FFF80000
000007FFF80000
000007FFF80000
000003FFF80000
000003FFF80000
000003FFF00000
000003FFF00000
ENDCHAR
STARTCHAR W
ENCODING 87
SWIDTH 450 0
DWIDTH 72 0
BBX 56 112 8 0
BITMAP
FFFC0000003FFF
FFFC0000003FFF
FFFC0000003FFF
FFFC0000003FFF
FFFC0000003FFF
FFFC0000003FFF
FFFC0000003FFF
FFFE0000003FFF
FFFE0000007FFF
7FFE0000007FFE
7FFE0000007FFE
7FFE0000007FFE
7FFE0000007FFE
7FFE0000007FFE
7FFE0000007FFE
7FFE0000007FFE
7FFE0000007FFE
7FFE0000007FFE
7FFE0000007FFE
7FFE0000007FFE
7FFE0000007FFE
7FFE0000007FFE
7FFE0000007FFE
7FFF0000007FFE
7FFF000000FFFC
3FFF000000FFFC
3FFF000000FFFC
3FFF000000FFFC
3FFF000000FFFC
3FFF000000FFFC
3FFF000000FFFC
3FFF000000FFFC
3FFF000000FFFC
3FFF000000FFFC
3FFF000000FFFC
3FFF000000FFFC
3FFF000000FFFC
3FFF000000FFFC
3FFF000000FFFC
3FFF801800FFFC
1FFF801801FFF8
1FFF801801FFF8
1FFF803C01FFF8
1FFF803C01FFF8
1FFF803C01FFF8
1FFF807E01FFF8
1FFF807E01FFF8
1FFF807E01FFF8
1FFF807E01FFF8
1FFF80FF01FFF8
1FFF80FF01FFF8
1FFF80FF01FFF8
1FFF81FF81FFF8
1FFF81FF81FFF8
1FFF81FF81FFF8
1FFF81FFC1FFF8
0FFFC3FFC3FFF0
0FFFC3FFC3FFF0
0FFFC3FFC3FFF0
0FFFC7FFE3FFF0
0FFFC7FFE3FFF0
0FFFC7FFE3FFF0
0FFFCFFFF3FFF0
0FFFCFFFF3FFF0
0FFFCFFFF3FFF0
0FFFCFFFF3FFF0
0FFFFFFFFFFFF0
0FFFFFFFFFFFF0
0FFFFFFFFFFFF0
0FFFFFFFFFFFF0
0FFFFFFFFFFFF0
0FFFFFFFFFFFE0
07FFFFFFFFFFE0
07FFFFFFFFFFE0
07FFFFFFFFFFE0
07FFFFFFFFFFE0
07FFFFFFFFFFE0
07FFFFFFFFFFE0
07FFFFFFFFFFE0
07FFFFFFFFFFE0
07FFFFFFFFFFE0
07FFFFFFFFFFE0
07FFFFFFFFFFE0
07FFFFFFFFFFE0
07FFFFFFFFFFE0
07FFFFFFFFFFE0
07FFFFFFFFFFE0
03FFFFFFFFFFC0
03FFFFFFFFFFC0
03FFFFFFFFFFC0
03FFFFE7FFFFC0
03FFFFE7FFFFC0
03FFFFE7FFFFC0
03FFFFC3FFFFC0
03FFFFC3FFFFC0
03FFFFC3FFFFC0
03FFFF81FFFFC0
03FFFF81FFFFC0
03FFFF81FFFFC0
03FFFF81FFFFC0
03FFFF00FFFFC0
03FFFF00FFFFC0
03FFFF00FFFFC0
01FFFE007FFF80
01FFFE007FFF80
01FFFE007FFF80
01FFFE007FFF80
01FFFC003FFF80
01FFFC003FFF80
01FFFC003FFF80
01FFF8001FFF80
01FFF8001FFF80
ENDCHAR
STARTCHAR X
ENCODING 88
SWIDTH 450 0
DWIDTH 72 0
BBX 56 112 8 0
BITMAP
FFFE0000007FFF
FFFE0000007FFF
7FFE0000007FFE
7FFF000000FFFE
7FFF000000FFFE
3FFF000000FFFC
3FFF800001FFFC
3FFF800001FFFC
1FFF800001FFFC
1FFFC00003FFF8
1FFFC00003FFF8
1FFFC00003FFF8
0FFFC00003FFF0
0FFFE00007FFF0
0FFFE00007FFF0
07FFE00007FFE0
07FFF0000FFFE0
07FFF0000FFFE0
07FFF0000FFFE0
03FFF0000FFFC0
03FFF8001FFFC0
03FFF8001FFFC0
01FFF8001FFF80
01FFFC003FFF80
01FFFC003FFF80
00FFFC003FFF00
00FFFE007FFF00
00FFFE007FFF00
00FFFE007FFF00
007FFE007FFE00
007FFF00FFFE00
007FFF00FFFE00
003FFF00FFFC00
003FFF81FFFC00
003FFF81FFFC00
001FFF81FFF800
001FFFC3FFF800
001FFFC3FFF800
001FFFC3FFF800
000FFFC3FFF000
000FFFE7FFF000
000FFFE7FFF000
0007FFE7FFE000
0007FFFFFFE000
0007FFFFFFE000
0003FFFFFFC000
0003FFFFFFC000
0003FFFFFFC000
0003FFFFFFC000
0001FFFFFF8000
0001FFFFFF8000
0001FFFFFF8000
0000FFFFFF0000
0000FFFFFF0000
0000FFFFFF0000
00007FFFFE0000
00007FFFFE0000
0000FFFFFF0000
0000FFFFFF0000
0000FFFFFF0000
0001FFFFFF8000
0001FFFFFF8000
0001FFFFFF8000
0003FFFFFFC000
0003FFFFFFC000
0003FFFFFFC000
0003FFFFFFC000
0007FFFFFFE000
0007FFFFFFE000
0007FFF7FFE000
000FFFE7FFF000
000FFFE7FFF000
000FFFC3FFF000
001FFFC3FFF800
001FFFC3FFF800
001FFFC3FFF800
001FFF81FFF800
003FFF81FFFC00
003FFF81FFFC00
003FFF00FFFC00
007FFF00FFFE00
007FFF00FFFE00
007FFE007FFE00
00FFFE007FFF00
00FFFE007FFF00
00FFFE007FFF00
00FFFC003FFF00
01FFFC003FFF80
01FFFC003FFF80
01FFF8001FFF80
03FFF8001FFFC0
03FFF8001FFFC0
03FFF8000FFFC0
07FFF0000FFFC0
07FFF0000FFFE0
07FFF0000FFFE0
07FFE00007FFE0
0FFFE00007FFF0
0FFFE00007FFF0
0FFFC00003FFF0
1FFFC00003FFF8
1FFFC00003FFF8
1FFFC00003FFF8
1FFF800001FFF8
3FFF800001FFFC
3FFF800001FFFC
3FFF000000FFFC
7FFF000000FFFE
7FFF000000FFFE
7FFE0000007FFE
FFFE0000007FFF
FFFE0000007FFF
ENDCHAR
STARTCHAR Y
ENCODING 89
SWIDTH 450 0
DWIDTH 72 0
BBX 56 112 8 0
BITMAP
FFFE0000007FFF
FFFE0000007FFF
7FFE000000FFFE
7FFE000000FFFE
7FFF000000FFFE
7FFF000001FFFC
3FFF000001FFFC
3FFF800003FFF8
3FFF800003FFF8
1FFF800003FFF8
1FFF800007FFF0
1FFFC00007FFF0
1FFFC00007FFF0
0FFFC0000FFFE0
0FFFC0000FFFE0
0FFFE0001FFFC0
0FFFE0001FFFC0
07FFE0001FFFC0
07FFE0003FFF80
07FFF0003FFF80
07FFF0003FFF80
03FFF0007FFF00
03FFF0007FFF00
03FFF800FFFF00
01FFF800FFFE00
01FFF800FFFE00
01FFFC01FFFC00
01FFFC01FFFC00
00FFFC01FFFC00
00FFFC03FFF800
00FFFE03FFF800
00FFFE03FFF800
007FFE07FFF000
007FFE07FFF000
007FFF0FFFF000
007FFF0FFFE000
003FFF0FFFE000
003FFF1FFFC000
003FFF9FFFC000
001FFF9FFFC000
001FFFFFFF8000
001FFFFFFF8000
001FFFFFFF8000
000FFFFFFF0000
000FFFFFFF0000
000FFFFFFE0000
000FFFFFFE0000
0007FFFFFE0000
0007FFFFFC0000
0007FFFFFC0000
0007FFFFFC0000
0003FFFFF80000
0003FFFFF80000
0003FFFFF80000
0001FFFFF00000
0001FFFFF00000
0001FFFFE00000
0001FFFFE00000
0000FFFFE00000
0000FFFFC00000
0000FFFFC00000
0000FFFFC00000
00007FFF800000
00007FFF800000
00007FFF000000
00007FFF000000
00007FFF000000
0000FFFE000000
0000FFFE000000
0000FFFE000000
0001FFFC000000
0001FFFC000000
0001FFFC000000
0003FFF8000000
0003FFF8000000
0007FFF0000000
0007FFF0000000
0007FFF0000000
000FFFE0000000
000FFFE0000000
000FFFE0000000
001FFFC0000000
001FFFC0000000
001FFFC0000000
003FFF80000000
003FFF80000000
007FFF00000000
007FFF00000000
007FFF00000000
00FFFE00000000
00FFFE00000000
00FFFE00000000
01FFFC00000000
01FFFC00000000
03FFF800000000
03FFF800000000
03FFF800000000
07FFF000000000
07FFF000000000
07FFF000000000
0FFFE000000000
0FFFE000000000
0FFFE000000000
1FFFC000000000
1FFFC000000000
3FFF8000000000
3FFF8000000000
3FFF8000000000
7FFF0000000000
7FFF0000000000
7FFF0000000000
FFFE0000000000
ENDCHAR
STARTCHAR Z
ENCODING 90
SWIDTH 450 0
DWIDTH 72 0
BBX 56 112 8 0
BITMAP
FFFFFFFFFFFFFF
FFFFFFFFFFFFFF
FFFFFFFFFFFFFF
FFFFFFFFFFFFFF
FFFFFFFFFFFFFF
FFFFFFFFFFFFFF
FFFFFFFFFFFFFF
FFFFFFFFFFFFFF
FFFFFFFFFFFFFF
FFFFFFFFFFFFFF
FFFFFFFFFFFFFF
FFFFFFFFFFFFFF
FFFFFFFFFFFFFF
FFFFFFFFFFFFFF
0000000000FFFF
0000000000FFFE
0000000001FFFE
0000000001FFFC
0000000003FFFC
0000000003FFF8
0000000007FFF8
0000000007FFF0
000000000FFFF0
000000000FFFE0
000000001FFFE0
000000001FFFC0
000000003FFFC0
000000003FFF80
000000007FFF80
000000007FFF80
00000000FFFF00
00000000FFFF00
00000000FFFE00
00000001FFFE00
00000001FFFC00
00000003FFFC00
00000003FFF800
00000007FFF800
00000007FFF000
0000000FFFF000
0000000FFFE000
0000001FFFE000
0000001FFFC000
0000003FFFC000
0000003FFF8000
0000007FFF8000
0000007FFF0000
000000FFFF0000
000000FFFE0000
000001FFFE0000
000001FFFC0000
000003FFFC0000
000003FFF80000
000007FFF80000
000007FFF80000
00000FFFF00000
00000FFFF00000
00001FFFE00000
00001FFFE00000
00001FFFC00000
00003FFFC00000
00003FFF800000
00007FFF800000
00007FFF000000
0000FFFF000000
0000FFFE000000
0001FFFE000000
0001FFFC000000
0003FFFC000000
0003FFF8000000
0007FFF8000000
0007FFF0000000
000FFFF0000000
000FFFE0000000
001FFFE0000000
001FFFC0000000
003FFFC0000000
003FFF80000000
007FFF80000000
007FFF00000000
00FFFF00000000
00FFFF00000000
01FFFE00000000
01FFFE00000000
01FFFC00000000
03FFFC00000000
03FFF800000000
07FFF800000000
07FFF000000000
0FFFF000000000
0FFFE000000000
1FFFE000000000
1FFFC000000000
3FFFC000000000
3FFF8000000000
7FFF8000000000
7FFF0000000000
FFFF0000000000
FFFFFFFFFFFFFF
FFFFFFFFFFFFFF
FFFFFFFFFFFFFF
FFFFFFFFFFFFFF
FFFFFFFFFFFFFF
FFFFFFFFFFFFFF
FFFFFFFFFFFFFF
FFFFFFFFFFFFFF
FFFFFFFFFFFFFF
FFFFFFFFFFFFFF
FFFFFFFFFFFFFF
FFFFFFFFFFFFFF
FFFFFFFFFFFFFF
FFFFFFFFFFFFFF
ENDCHAR
STARTCHAR bracketleft
ENCODING 91
SWIDTH 450 0
DWIDTH 72 0
BBX 32 112 20 0
BITMAP
FFFFFFFF
FFFFFFFF
FFFFFFFF
FFFFFFFF
FFFFFFFF
FFFFFFFF
FFFFFFFF
FFFFFFFF
FFFFFFFF
FFFFFFFF
FFFFFFFF
FFFFFFFF
FFFFFFFF
FFFFFFFF
FFFFFFFE
FFFE0000
FFFE0000
FFFE0000
FFFE0000
FFFE0000
FFFE0000
FFFE0000
FFFE0000
FFFE0000
FFFE0000
FFFE0000
FFFE0000
FFFE0000
FFFE0000
FFFE0000
FFFE0000
FFFE0000
FFFE0000
FFFE0000
FFFE0000
FFFE0000
FFFE0000
FFFE0000
FFFE0000
FFFE0000
FFFE0000
FFFE0000
FFFE0000
FFFE0000
FFFE0000
FFFE0000
FFFE0000
FFFE0000
FFFE0000
FFFE0000
FFFE0000
FFFE0000
FFFE0000
FFFE0000
FFFE0000
FFFE0000
FFFE0000
FFFE0000
FFFE0000
FFFE0000
FFFE0000
FFFE0000
FFFE0000
FFFE0000
FFFE0000
FFFE0000
FFFE0000
FFFE0000
FFFE0000
FFFE0000
FFFE0000
FFFE0000
FFFE0000
FFFE0000
FFFE0000
FFFE0000
FFFE0000
FFFE0000
FFFE0000
FFFE0000
FFFE0000
FFFE0000
FFFE0000
FFFE0000
FFFE0000
FFFE0000
FFFE0000
FFFE0000
FFFE0000
FFFE0000
FFFE0000
FFFE0000
FFFE0000
FFFE0000
FFFE0000
FFFE0000
FFFE0000
FFFFFFFE
FFFFFFFF
FFFFFFFF
FFFFFFFF
FFFFFFFF
FFFFFFFF
FFFFFFFF
FFFFFFFF
FFFFFFFF
FFFFFFFF
FFFFFFFF
FFFFFFFF
FFFFFFFF
FFFFFFFF
FFFFFFFF
ENDCHAR
STARTCHAR backslash
ENCODING 92
SWIDTH 450 0
DWIDTH 72 0
BBX 54 112 10 0
BITMAP
FFFE0000000000
FFFE0000000000
FFFF0000000000
7FFF0000000000
7FFF0000000000
7FFF8000000000
3FFF8000000000
3FFF8000000000
3FFFC000000000
1FFFC000000000
1FFFC000000000
0FFFE000000000
0FFFE000000000
0FFFE000000000
07FFF000000000
07FFF000000000
07FFF000000000
03FFF800000000
03FFF800000000
03FFFC00000000
01FFFC00000000
01FFFC00000000
01FFFE00000000
00FFFE00000000
00FFFE00000000
00FFFF00000000
007FFF00000000
007FFF00000000
007FFF80000000
003FFF80000000
003FFF80000000
001FFFC0000000
001FFFC0000000
001FFFC0000000
000FFFE0000000
000FFFE0000000
000FFFF0000000
0007FFF0000000
0007FFF0000000
0007FFF8000000
0003FFF8000000
0003FFF8000000
0003FFFC000000
0001FFFC000000
0001FFFC000000
0001FFFE000000
0000FFFE000000
0000FFFE000000
0000FFFF000000
00007FFF000000
00007FFF000000
00003FFF800000
00003FFF800000
00003FFF800000
00001FFFC00000
00001FFFC00000
00001FFFE00000
00000FFFE00000
00000FFFE00000
00000FFFF00000
000007FFF00000
000007FFF00000
000007FFF80000
000003FFF80000
000003FFF80000
000003FFFC0000
000001FFFC0000
000001FFFC0000
000001FFFE0000
000000FFFE0000
000000FFFE0000
0000007FFF0000
0000007FFF0000
0000007FFF8000
0000003FFF8000
0000003FFF8000
0000003FFFC000
0000001FFFC000
0000001FFFC000
0000001FFFE000
0000000FFFE000
0000000FFFE000
0000000FFFF000
00000007FFF000
00000007FFF000
00000007FFF800
00000003FFF800
00000003FFF800
00000003FFFC00
00000001FFFC00
00000001FFFC00
00000000FFFE00
00000000FFFE00
00000000FFFF00
000000007FFF00
000000007FFF00
000000007FFF80
000000003FFF80
000000003FFF80
000000003FFFC0
000000001FFFC0
000000001FFFC0
000000001FFFE0
000000000FFFE0
000000000FFFE0
000000000FFFF0
0000000007FFF0
0000000007FFF0
0000000007FFF8
0000000003FFF8
0000000003FFFC
0000000001FFF8
ENDCHAR
STARTCHAR bracketright
ENCODING 93
SWIDTH 450 0
DWIDTH 72 0
BBX 32 112 20 0
BITMAP
FFFFFFFF
FFFFFFFF
FFFFFFFF
FFFFFFFF
FFFFFFFF
FFFFFFFF
FFFFFFFF
FFFFFFFF
FFFFFFFF
FFFFFFFF
FFFFFFFF
FFFFFFFF
FFFFFFFF
FFFFFFFF
7FFFFFFF
00007FFF
00007FFF
00007FFF
00007FFF
00007FFF
00007FFF
00007FFF
00007FFF
00007FFF
00007FFF
00007FFF
00007FFF
00007FFF
00007FFF
00007FFF
00007FFF
00007FFF
00007FFF
00007FFF
00007FFF
00007FFF
00007FFF
00007FFF
00007FFF
00007FFF
00007FFF
00007FFF
00007FFF
00007FFF
00007FFF
00007FFF
00007FFF
00007FFF
00007FFF
00007FFF
00007FFF
00007FFF
00007FFF
00007FFF
00007FFF
00007FFF
00007FFF
00007FFF
00007FFF
00007FFF
00007FFF
00007FFF
00007FFF
00007FFF
00007FFF
00007FFF
00007FFF
00007FFF
00007FFF
00007FFF
00007FFF
00007FFF
00007FFF
00007FFF
00007FFF
00007FFF
00007FFF
00007FFF
00007FFF
00007FFF
00007FFF
00007FFF
00007FFF
00007FFF
00007FFF
00007FFF
00007FFF
00007FFF
00007FFF
00007FFF
00007FFF
00007FFF
00007FFF
00007FFF
00007FFF
00007FFF
00007FFF
7FFFFFFF
FFFFFFFF
FFFFFFFF
FFFFFFFF
FFFFFFFF
FFFFFFFF
FFFFFFFF
FFFFFFFF
FFFFFFFF
FFFFFFFF
FFFFFFFF
FFFFFFFF
FFFFFFFF
FFFFFFFF
FFFFFFFF
ENDCHAR
STARTCHAR asciicircum
ENCODING 94
SWIDTH 450 0
DWIDTH 72 0
BBX 44 20 14 116
BITMAP
0003FFF80000
0007FFFC0000
000FFFFE0000
000FFFFF0000
001FFFFF8000
003FFFFF8000
007FFFFFC000
00FFFFFFE000
00FFFFFFF000
01FFFFFFF800
03FFF9FFF800
07FFF0FFFC00
0FFFE07FFE00
0FFFC07FFF00
1FFF803FFF80
3FFF801FFF80
7FFF000FFFC0
FFFE0007FFE0
FFFC0007FFF0
FFF80003FFF0
ENDCHAR
STARTCHAR underscore
ENCODING 95
SWIDTH 450 0
DWIDTH 72 0
BBX 72 9 0 -9
BITMAP
FFFFFFFFFFFFFFFFFF
FFFFFFFFFFFFFFFFFF
FFFFFFFFFFFFFFFFFF
FFFFFFFFFFFFFFFFFF
FFFFFFFFFFFFFFFFFF
FFFFFFFFFFFFFFFFFF
FFFFFFFFFFFFFFFFFF
FFFFFFFFFFFFFFFFFF
FFFFFFFFFFFFFFFFFF
ENDCHAR
STARTCHAR grave
ENCODING 96
SWIDTH 450 0
DWIDTH 72 0
BBX 28 21 22 107
BITMAP
FFFC0000
7FFE0000
3FFF0000
1FFF0000
0FFF8000
0FFFC000
07FFC000
03FFE000
01FFF000
00FFF000
007FF800
007FFC00
003FFC00
001FFE00
000FFF00
0007FF00
0003FF80
0003FFC0
0001FFC0
0000FFE0
00007FF0
ENDCHAR
STARTCHAR a
ENCODING 97
SWIDTH 492 0
DWIDTH 79 0
BBX 63 85 8 0
BITMAP
000003FFF8000000
00001FFFFF000000
00007FFFFFC00000
0001FFFFFFF00000
0007FFFFFFFC0000
000FFFFFFFFE0000
001FFFFFFFFF0000
003FFFFFFFFF8000
007FFFFFFFFFC000
00FFFFFFFFFFE000
01FFFFFFFFFFF000
01FFFFFFFFFFF000
03FFFFFFFFFFF800
03FFFFFFFFFFFC00
07FFFF803FFFFC00
07FFFC0007FFFC00
0FFFF80003FFFE00
0FFFF00001FFFE00
0FFFE00000FFFE00
0FFFC000007FFF00
1FFFC000007FFF00
1FFFC000007FFF00
1FFF8000003FFF00
1FFF8000003FFF00
1FFF8000003FFF00
1FFF8000003FFF00
1FFF8000003FFF00
1FFF8000003FFF00
00000000003FFF00
00000000003FFF00
00000000003FFF00
00000000007FFF00
00000000007FFF00
0000000000FFFF00
0000000003FFFF00
000003FFFFFFFF00
00007FFFFFFFFF00
0003FFFFFFFFFF00
000FFFFFFFFFFF00
001FFFFFFFFFFF00
007FFFFFFFFFFF00
00FFFFFFFFFFFF00
01FFFFFFFFFFFF00
03FFFFFFFFFFFF00
07FFFFFFFFFFFF00
0FFFFFFFFFFFFF00
0FFFFFFFFFFFFF00
1FFFFFFFFFFFFF00
3FFFFFFFFFBFFF00
3FFFFFFFF83FFF00
7FFFF000003FFF00
7FFFC000003FFF00
7FFF8000003FFF00
FFFF0000003FFF00
FFFE0000003FFF00
FFFE0000003FFF00
FFFC0000003FFF00
FFFC0000003FFF00
FFFC0000003FFF00
FFFC0000003FFF00
FFFC0000003FFF00
FFFC0000003FFF00
FFFC0000003FFF00
FFFC0000007FFF00
FFFC0000007FFF00
FFFE0000007FFF00
FFFF000000FFFF80
7FFF800001FFFF80
7FFFC00003FFFFC0
7FFFE00007FFFFE0
3FFFFC003FFFFFF8
3FFFFFFFFFFFFFFE
1FFFFFFFFFFFFFFE
1FFFFFFFFFFFFFFE
0FFFFFFFFFFFFFFE
07FFFFFFFFFFFFFE
03FFFFFFFFFFFFFE
01FFFFFFFFFFFFFE
00FFFFFFFFFFFFFE
007FFFFFFFFE7FFE
003FFFFFFFFC3FFE
001FFFFFFFF01FFE
0007FFFFFFC007FE
0000FFFFFF0001FE
00001FFFF000003E
ENDCHAR
STARTCHAR b
ENCODING 98
SWIDTH 450 0
DWIDTH 72 0
BBX 56 113 8 0
BITMAP
FFFC0000000000
FFFC0000000000
FFFC0000000000
FFFC0000000000
FFFC0000000000
FFFC0000000000
FFFC0000000000
FFFC0000000000
FFFC0000000000
FFFC0000000000
FFFC0000000000
FFFC0000000000
FFFC0000000000
FFFC0000000000
FFFC0000000000
FFFC0000000000
FFFC0000000000
FFFC0000000000
FFFC0000000000
FFFC0000000000
FFFC0000000000
FFFC0000000000
FFFC0000000000
FFFC0000000000
FFFC0000000000
FFFC0000000000
FFFC0000000000
FFFC0000000000
FFFC03FFC00000
FFFC1FFFFC0000
FFFCFFFFFF0000
FFFFFFFFFFC000
FFFFFFFFFFF000
FFFFFFFFFFF800
FFFFFFFFFFFC00
FFFFFFFFFFFE00
FFFFFFFFFFFF00
FFFFFFFFFFFF80
FFFFFFFFFFFFC0
FFFFFFFFFFFFE0
FFFFFFFFFFFFF0
FFFFFFFFFFFFF0
FFFFFF81FFFFF8
FFFFFC003FFFF8
FFFFF0000FFFFC
FFFFE00007FFFC
FFFFC00003FFFE
FFFF800001FFFE
FFFF000000FFFE
FFFF000000FFFF
FFFE0000007FFF
FFFE0000007FFF
FFFC0000003FFF
FFFC0000003FFF
FFFC0000003FFF
FFFC0000003FFF
FFFC0000003FFF
FFFC0000003FFF
FFFC0000003FFF
FFFC0000003FFF
FFFC0000003FFF
FFFC0000003FFF
FFFC0000003FFF
FFFC0000003FFF
FFFC0000003FFF
FFFC0000003FFF
FFFC0000003FFF
FFFC0000003FFF
FFFC0000003FFF
FFFC0000003FFF
FFFC0000003FFF
FFFC0000003FFF
FFFC0000003FFF
FFFC0000003FFF
FFFC0000003FFF
FFFC0000003FFF
FFFC0000003FFF
FFFC0000003FFF
FFFC0000003FFF
FFFC0000003FFF
FFFC0000003FFF
FFFC0000003FFF
FFFC0000003FFF
FFFC0000003FFF
FFFC0000003FFF
FFFC0000003FFF
FFFC0000003FFF
FFFC0000003FFF
FFFC0000003FFF
FFFE0000007FFF
FFFE0000007FFF
FFFF000000FFFF
FFFF000000FFFE
FFFF800001FFFE
FFFFC00003FFFE
FFFFE00007FFFC
FFFFF0000FFFFC
FFFFFC003FFFF8
FFFFFF81FFFFF8
FFFFFFFFFFFFF0
FFFFFFFFFFFFF0
FFFFFFFFFFFFE0
FFFFFFFFFFFFC0
FFFFFFFFFFFF80
FFFFFFFFFFFF00
FFFFFFFFFFFE00
FFFFFFFFFFFC00
FFFFFFFFFFF800
FFFFFFFFFFE000
FFFFFFFFFFC000
FFFCFFFFFF0000
FFFC1FFFFC0000
FFFC01FF800000
ENDCHAR
STARTCHAR c
ENCODING 99
SWIDTH 450 0
DWIDTH 72 0
BBX 56 85 8 0
BITMAP
000001FF800000
00001FFFF80000
0000FFFFFF0000
0003FFFFFFC000
0007FFFFFFE000
001FFFFFFFF800
003FFFFFFFFC00
007FFFFFFFFE00
00FFFFFFFFFF00
01FFFFFFFFFF80
03FFFFFFFFFFC0
07FFFFFFFFFFE0
0FFFFFFFFFFFF0
0FFFFFFFFFFFF0
1FFFFF81FFFFF8
1FFFFC003FFFF8
3FFFF0000FFFFC
3FFFE00007FFFC
7FFFC00003FFFE
7FFF800001FFFE
7FFF000000FFFE
FFFE000000FFFF
FFFE0000007FFF
FFFE0000007FFF
FFFC0000003FFF
FFFC0000003FFF
FFFC0000003FFF
FFFC0000003FFF
FFFC0000000000
FFFC0000000000
FFFC0000000000
FFFC0000000000
FFFC0000000000
FFFC0000000000
FFFC0000000000
FFFC0000000000
FFFC0000000000
FFFC0000000000
FFFC0000000000
FFFC0000000000
FFFC0000000000
FFFC0000000000
FFFC0000000000
FFFC0000000000
FFFC0000000000
FFFC0000000000
FFFC0000000000
FFFC0000000000
FFFC0000000000
FFFC0000000000
FFFC0000000000
FFFC0000000000
FFFC0000000000
FFFC0000000000
FFFC0000000000
FFFC0000000000
FFFC0000000000
FFFC0000003FFF
FFFC0000003FFF
FFFC0000003FFF
FFFC0000003FFF
FFFE0000007FFF
FFFE0000007FFF
FFFE000000FFFF
7FFF000000FFFE
7FFF800001FFFE
7FFFC00003FFFE
3FFFE00007FFFC
3FFFF0000FFFFC
1FFFFC003FFFF8
1FFFFF81FFFFF8
0FFFFFFFFFFFF0
0FFFFFFFFFFFE0
07FFFFFFFFFFE0
03FFFFFFFFFFC0
01FFFFFFFFFF80
00FFFFFFFFFF00
007FFFFFFFFE00
003FFFFFFFFC00
001FFFFFFFF800
000FFFFFFFE000
0003FFFFFFC000
0000FFFFFF0000
00003FFFF80000
000003FF800000
ENDCHAR
STARTCHAR d
ENCODING 100
SWIDTH 450 0
DWIDTH 72 0
BBX 56 113 8 0
BITMAP
00000000003FFF
00000000003FFF
00000000003FFF
00000000003FFF
00000000003FFF
00000000003FFF
00000000003FFF
00000000003FFF
00000000003FFF
00000000003FFF
00000000003FFF
00000000003FFF
00000000003FFF
00000000003FFF
00000000003FFF
00000000003FFF
00000000003FFF
00000000003FFF
00000000003FFF
00000000003FFF
00000000003FFF
00000000003FFF
00000000003FFF
00000000003FFF
00000000003FFF
00000000003FFF
00000000003FFF
00000000003FFF
000003FFC03FFF
00003FFFF83FFF
0000FFFFFF3FFF
0003FFFFFFFFFF
000FFFFFFFFFFF
001FFFFFFFFFFF
003FFFFFFFFFFF
007FFFFFFFFFFF
00FFFFFFFFFFFF
01FFFFFFFFFFFF
03FFFFFFFFFFFF
07FFFFFFFFFFFF
0FFFFFFFFFFFFF
0FFFFFFFFFFFFF
1FFFFF81FFFFFF
1FFFFC003FFFFF
3FFFF0000FFFFF
3FFFE00007FFFF
7FFFC00003FFFF
7FFF800001FFFF
7FFF000000FFFF
FFFE000000FFFF
FFFE0000007FFF
FFFE0000007FFF
FFFC0000003FFF
FFFC0000003FFF
FFFC0000003FFF
FFFC0000003FFF
FFFC0000003FFF
FFFC0000003FFF
FFFC0000003FFF
FFFC0000003FFF
FFFC0000003FFF
FFFC0000003FFF
FFFC0000003FFF
FFFC0000003FFF
FFFC0000003FFF
FFFC0000003FFF
FFFC0000003FFF
FFFC0000003FFF
FFFC0000003FFF
FFFC0000003FFF
FFFC0000003FFF
FFFC0000003FFF
FFFC0000003FFF
FFFC0000003FFF
FFFC0000003FFF
FFFC0000003FFF
FFFC0000003FFF
FFFC0000003FFF
FFFC0000003FFF
FFFC0000003FFF
FFFC0000003FFF
FFFC0000003FFF
FFFC0000003FFF
FFFC0000003FFF
FFFC0000003FFF
FFFC0000003FFF
FFFC0000003FFF
FFFC0000003FFF
FFFC0000003FFF
FFFE0000007FFF
FFFE0000007FFF
FFFE000000FFFF
7FFF000000FFFF
7FFF800001FFFF
7FFFC00003FFFF
3FFFE00007FFFF
3FFFF0000FFFFF
1FFFFC003FFFFF
1FFFFF81FFFFFF
0FFFFFFFFFFFFF
0FFFFFFFFFFFFF
07FFFFFFFFFFFF
03FFFFFFFFFFFF
01FFFFFFFFFFFF
00FFFFFFFFFFFF
007FFFFFFFFFFF
003FFFFFFFFFFF
001FFFFFFFFFFF
000FFFFFFFFFFF
0003FFFFFFFFFF
0000FFFFFE3FFF
00003FFFF83FFF
000003FF803FFF
ENDCHAR
STARTCHAR e
ENCODING 101
SWIDTH 450 0
DWIDTH 72 0
BBX 56 85 8 0
BITMAP
000003FFC00000
00003FFFFC0000
0000FFFFFF0000
0003FFFFFFC000
000FFFFFFFF000
001FFFFFFFF800
003FFFFFFFFC00
007FFFFFFFFE00
00FFFFFFFFFF00
01FFFFFFFFFF80
03FFFFFFFFFFC0
07FFFFFFFFFFE0
0FFFFFFFFFFFF0
0FFFFFFFFFFFF0
1FFFFF81FFFFF8
1FFFFC003FFFF8
3FFFF0000FFFFC
3FFFE00007FFFC
7FFFC00003FFFE
7FFF800001FFFE
7FFF000000FFFE
FFFE000000FFFF
FFFE0000007FFF
FFFE0000007FFF
FFFC0000003FFF
FFFC0000003FFF
FFFC0000003FFF
FFFC0000003FFF
FFFC0000003FFF
FFFC0000003FFF
FFFC0000003FFF
FFFC0000003FFF
FFFC0000003FFF
FFFC0000003FFF
FFFC0000003FFF
FFFFFFFFFFFFFF
FFFFFFFFFFFFFF
FFFFFFFFFFFFFF
FFFFFFFFFFFFFF
FFFFFFFFFFFFFF
FFFFFFFFFFFFFF
FFFFFFFFFFFFFF
FFFFFFFFFFFFFF
FFFFFFFFFFFFFF
FFFFFFFFFFFFFF
FFFFFFFFFFFFFF
FFFFFFFFFFFFFF
FFFFFFFFFFFFFF
FFFFFFFFFFFFFF
FFFC0000000000
FFFC0000000000
FFFC0000000000
FFFC0000000000
FFFC0000000000
FFFC0000000000
FFFC0000000000
FFFC0000000000
FFFC0000000000
FFFC0000000000
FFFC0000000000
FFFC0000000000
FFFE0000006000
FFFE0000007800
FFFF000000FE00
7FFF000000FF80
7FFF800001FFE0
7FFFC00003FFF8
3FFFE00007FFFC
3FFFF0000FFFFC
1FFFFC003FFFF8
1FFFFF81FFFFF8
0FFFFFFFFFFFF0
0FFFFFFFFFFFF0
07FFFFFFFFFFE0
03FFFFFFFFFFC0
01FFFFFFFFFF80
00FFFFFFFFFF00
007FFFFFFFFE00
003FFFFFFFFC00
001FFFFFFFF800
000FFFFFFFE000
0003FFFFFFC000
0000FFFFFF0000
00003FFFF80000
000003FF800000
ENDCHAR
STARTCHAR f
ENCODING 102
SWIDTH 450 0
DWIDTH 72 0
BBX 56 113 8 0
BITMAP
00000007FF8000
0000003FFFF000
000000FFFFFC00
000001FFFFFE00
000007FFFFFF80
00000FFFFFFFC0
00001FFFFFFFE0
00003FFFFFFFF0
00003FFFFFFFF0
00007FFFFFFFF8
0000FFFFFFFFFC
0000FFFFFFFFFC
0001FFFFFFFFFE
0001FFFFFFFFFE
0001FFFF03FFFE
0003FFFC00FFFF
0003FFF8007FFF
0003FFF8007FFF
0003FFF0003FFF
0003FFF0003FFF
0003FFF0003FFF
0003FFF0000000
0003FFF0000000
0003FFF0000000
0003FFF0000000
0003FFF0000000
0003FFF0000000
0003FFF0000000
0003FFF0000000
0003FFF0000000
0003FFF0000000
0003FFF0000000
0003FFF0000000
0003FFF0000000
0003FFF0000000
0003FFF0000000
0003FFF0000000
0003FFF0000000
0003FFF0000000
0003FFF0000000
0003FFF0000000
0003FFF0000000
FFFFFFFFFFFF80
FFFFFFFFFFFF80
FFFFFFFFFFFF80
FFFFFFFFFFFF80
FFFFFFFFFFFF80
FFFFFFFFFFFF80
FFFFFFFFFFFF80
FFFFFFFFFFFF80
FFFFFFFFFFFF80
FFFFFFFFFFFF80
FFFFFFFFFFFF80
FFFFFFFFFFFF80
FFFFFFFFFFFF80
FFFFFFFFFFFF80
0003FFF0000000
0003FFF0000000
0003FFF0000000
0003FFF0000000
0003FFF0000000
0003FFF0000000
0003FFF0000000
0003FFF0000000
0003FFF0000000
0003FFF0000000
0003FFF0000000
0003FFF0000000
0003FFF0000000
0003FFF0000000
0003FFF0000000
0003FFF0000000
0003FFF0000000
0003FFF0000000
0003FFF0000000
0003FFF0000000
0003FFF0000000
0003FFF0000000
0003FFF0000000
0003FFF0000000
0003FFF0000000
0003FFF0000000
0003FFF0000000
0003FFF0000000
0003FFF0000000
0003FFF0000000
0003FFF0000000
0003FFF0000000
0003FFF0000000
0003FFF0000000
0003FFF0000000
0003FFF0000000
0003FFF0000000
0003FFF0000000
0003FFF0000000
0003FFF0000000
0003FFF0000000
0003FFF0000000
0003FFF0000000
0003FFF0000000
0003FFF0000000
0003FFF0000000
0003FFF0000000
0003FFF0000000
0003FFF0000000
0003FFF0000000
0003FFF0000000
0003FFF0000000
0003FFF0000000
0003FFF0000000
0003FFF0000000
0003FFF0000000
0003FFF0000000
ENDCHAR
STARTCHAR g
ENCODING 103
SWIDTH 450 0
DWIDTH 72 0
BBX 56 113 8 -28
BITMAP
000003FFFFFFFF
00003FFFFFFFFF
0000FFFFFFFFFF
0003FFFFFFFFFF
0007FFFFFFFFFF
001FFFFFFFFFFF
003FFFFFFFFFFF
007FFFFFFFFFFF
00FFFFFFFFFFFF
01FFFFFFFFFFFF
03FFFFFFFFFFFF
07FFFFFFFFFFFF
0FFFFFFFFFFFFF
0FFFFFFFFFFFFF
1FFFFF01FFFFF8
1FFFFC003FFFF8
3FFFF0000FFFFC
3FFFE00007FFFC
7FFFC00003FFFE
7FFF800001FFFE
7FFF000000FFFE
FFFF000000FFFF
FFFE0000007FFF
FFFE0000007FFF
FFFC0000003FFF
FFFC0000003FFF
FFFC0000003FFF
FFFC0000003FFF
FFFC0000003FFF
FFFC0000003FFF
FFFC0000003FFF
FFFC0000003FFF
FFFC0000007FFF
FFFE0000007FFF
FFFE0000007FFF
FFFF000000FFFE
7FFF000001FFFE
7FFF800001FFFE
7FFFC00003FFFC
3FFFE00007FFFC
3FFFF8001FFFFC
1FFFFE007FFFF8
1FFFFFFFFFFFF8
0FFFFFFFFFFFF0
07FFFFFFFFFFE0
07FFFFFFFFFFC0
03FFFFFFFFFFC0
01FFFFFFFFFF80
00FFFFFFFFFF00
007FFFFFFFFE00
003FFFFFFFFC00
001FFFFFFFF000
003FFFFFFFE000
007FFFFFFF8000
007FFFFFFE0000
00FFFFFFF00000
00FFFFFE000000
00FFFF80000000
01FFFE00000000
01FFFC00000000
01FFFC00000000
01FFF800000000
01FFF800000000
01FFF800000000
01FFF800000000
01FFF800000000
01FFF800000000
01FFFC00000000
01FFFE00000000
01FFFF00000000
00FFFFC0000000
00FFFFFFFF8000
007FFFFFFFF000
007FFFFFFFFC00
007FFFFFFFFE00
01FFFFFFFFFF00
03FFFFFFFFFFC0
07FFFFFFFFFFE0
0FFFFFFFFFFFE0
0FFFFFFFFFFFF0
1FFFFFFFFFFFF8
3FFFFFFFFFFFFC
3FFFFFFFFFFFFC
7FFFFFFFFFFFFE
7FFFFFFFFFFFFE
7FFFC00003FFFE
FFFF000001FFFF
FFFE000000FFFF
FFFE0000007FFF
FFFC0000003FFF
FFFC0000003FFF
FFFC0000003FFF
FFFC0000003FFF
FFFC0000003FFF
FFFC0000003FFF
FFFE0000007FFF
FFFE000000FFFF
FFFF000000FFFF
7FFFC00003FFFE
7FFFFFFFFFFFFE
7FFFFFFFFFFFFE
3FFFFFFFFFFFFC
3FFFFFFFFFFFFC
1FFFFFFFFFFFF8
0FFFFFFFFFFFF0
0FFFFFFFFFFFF0
07FFFFFFFFFFE0
03FFFFFFFFFFC0
01FFFFFFFFFF80
007FFFFFFFFE00
003FFFFFFFFC00
000FFFFFFFF000
0001FFFFFF8000
ENDCHAR
STARTCHAR h
ENCODING 104
SWIDTH 450 0
DWIDTH 72 0
BBX 56 113 8 0
BITMAP
FFFC0000000000
FFFC0000000000
FFFC0000000000
FFFC0000000000
FFFC0000000000
FFFC0000000000
FFFC0000000000
FFFC0000000000
FFFC0000000000
FFFC0000000000
FFFC0000000000
FFFC0000000000
FFFC0000000000
FFFC0000000000
FFFC0000000000
FFFC0000000000
FFFC0000000000
FFFC0000000000
FFFC0000000000
FFFC0000000000
FFFC0000000000
FFFC0000000000
FFFC0000000000
FFFC0000000000
FFFC0000000000
FFFC0000000000
FFFC0000000000
FFFC0000000000
FFFC03FFC00000
FFFC3FFFFC0000
FFFCFFFFFF0000
FFFFFFFFFFC000
FFFFFFFFFFF000
FFFFFFFFFFF800
FFFFFFFFFFFC00
FFFFFFFFFFFE00
FFFFFFFFFFFF00
FFFFFFFFFFFF80
FFFFFFFFFFFFC0
FFFFFFFFFFFFE0
FFFFFFFFFFFFF0
FFFFFFFFFFFFF0
FFFFFF81FFFFF8
FFFFFC003FFFF8
FFFFF0000FFFFC
FFFFE00007FFFC
FFFFC00003FFFE
FFFF800001FFFE
FFFF000000FFFE
FFFE000000FFFF
FFFE0000007FFF
FFFE0000007FFF
FFFC0000003FFF
FFFC0000003FFF
FFFC0000003FFF
FFFC0000003FFF
FFFC0000003FFF
FFFC0000003FFF
FFFC0000003FFF
FFFC0000003FFF
FFFC0000003FFF
FFFC0000003FFF
FFFC0000003FFF
FFFC0000003FFF
FFFC0000003FFF
FFFC0000003FFF
FFFC0000003FFF
FFFC0000003FFF
FFFC0000003FFF
FFFC0000003FFF
FFFC0000003FFF
FFFC0000003FFF
FFFC0000003FFF
FFFC0000003FFF
FFFC0000003FFF
FFFC0000003FFF
FFFC0000003FFF
FFFC0000003FFF
FFFC0000003FFF
FFFC0000003FFF
FFFC0000003FFF
FFFC0000003FFF
FFFC0000003FFF
FFFC0000003FFF
FFFC0000003FFF
FFFC0000003FFF
FFFC0000003FFF
FFFC0000003FFF
FFFC0000003FFF
FFFC0000003FFF
FFFC0000003FFF
FFFC0000003FFF
FFFC0000003FFF
FFFC0000003FFF
FFFC0000003FFF
FFFC0000003FFF
FFFC0000003FFF
FFFC0000003FFF
FFFC0000003FFF
FFFC0000003FFF
FFFC0000003FFF
FFFC0000003FFF
FFFC0000003FFF
FFFC0000003FFF
FFFC0000003FFF
FFFC0000003FFF
FFFC0000003FFF
FFFC0000003FFF
FFFC0000003FFF
FFFC0000003FFF
FFFC0000003FFF
FFFC0000003FFF
FFFC0000003FFF
ENDCHAR
STARTCHAR i
ENCODING 105
SWIDTH 261 0
DWIDTH 42 0
BBX 22 113 10 0
BITMAP
0FE000
3FF000
3FF800
7FFC00
7FFC00
FFFC00
FFFC00
FFFC00
FFFC00
7FFC00
7FF800
3FF800
1FE000
078000
000000
000000
000000
000000
000000
000000
000000
000000
000000
000000
000000
000000
000000
000000
FFFC00
FFFC00
FFFC00
FFFC00
FFFC00
FFFC00
FFFC00
FFFC00
FFFC00
FFFC00
FFFC00
FFFC00
FFFC00
FFFC00
FFFC00
FFFC00
FFFC00
FFFC00
FFFC00
FFFC00
FFFC00
FFFC00
FFFC00
FFFC00
FFFC00
FFFC00
FFFC00
FFFC00
FFFC00
FFFC00
FFFC00
FFFC00
FFFC00
FFFC00
FFFC00
FFFC00
FFFC00
FFFC00
FFFC00
FFFC00
FFFC00
FFFC00
FFFC00
FFFC00
FFFC00
FFFC00
FFFC00
FFFC00
FFFC00
FFFC00
FFFC00
FFFC00
FFFC00
FFFC00
FFFC00
FFFC00
FFFC00
FFFC00
FFFC00
FFFC00
FFFC00
FFFC00
FFFC00
FFFC00
FFFE00
FFFE00
FFFE00
7FFF00
7FFF00
7FFFC0
7FFFF0
3FFFFC
3FFFFC
1FFFFC
1FFFFC
0FFFFC
0FFFFC
07FFFC
03FFFC
01FFFC
00FFFC
003FFC
001FFC
0007FC
00007C
ENDCHAR
STARTCHAR j
ENCODING 106
SWIDTH 450 0
DWIDTH 72 0
BBX 42 141 15 -28
BITMAP
00000000FE00
00000003FF00
00000003FF80
00000007FFC0
00000007FFC0
0000000FFFC0
0000000FFFC0
0000000FFFC0
0000000FFFC0
00000007FFC0
00000007FF80
00000003FF00
00000001FE00
000000007800
000000000000
000000000000
000000000000
000000000000
000000000000
000000000000
000000000000
000000000000
000000000000
000000000000
000000000000
000000000000
000000000000
000000000000
0000000FFFC0
0000000FFFC0
0000000FFFC0
0000000FFFC0
0000000FFFC0
0000000FFFC0
0000000FFFC0
0000000FFFC0
0000000FFFC0
0000000FFFC0
0000000FFFC0
0000000FFFC0
0000000FFFC0
0000000FFFC0
0000000FFFC0
0000000FFFC0
0000000FFFC0
0000000FFFC0
0000000FFFC0
0000000FFFC0
0000000FFFC0
0000000FFFC0
0000000FFFC0
0000000FFFC0
0000000FFFC0
0000000FFFC0
0000000FFFC0
0000000FFFC0
0000000FFFC0
0000000FFFC0
0000000FFFC0
0000000FFFC0
0000000FFFC0
0000000FFFC0
0000000FFFC0
0000000FFFC0
0000000FFFC0
0000000FFFC0
0000000FFFC0
0000000FFFC0
0000000FFFC0
0000000FFFC0
0000000FFFC0
0000000FFFC0
0000000FFFC0
0000000FFFC0
0000000FFFC0
0000000FFFC0
0000000FFFC0
0000000FFFC0
0000000FFFC0
0000000FFFC0
0000000FFFC0
0000000FFFC0
0000000FFFC0
0000000FFFC0
0000000FFFC0
0000000FFFC0
0000000FFFC0
0000000FFFC0
0000000FFFC0
0000000FFFC0
0000000FFFC0
0000000FFFC0
0000000FFFC0
0000000FFFC0
0000000FFFC0
0000000FFFC0
0000000FFFC0
0000000FFFC0
0000000FFFC0
0000000FFFC0
0000000FFFC0
0000000FFFC0
0000000FFFC0
0000000FFFC0
0000000FFFC0
0000000FFFC0
0000000FFFC0
0000000FFFC0
0000000FFFC0
0000000FFFC0
0000000FFFC0
0000000FFFC0
0000000FFFC0
0000000FFFC0
0000000FFFC0
0000000FFFC0
0000000FFFC0
0000000FFFC0
0000000FFFC0
0000000FFFC0
FFFC000FFFC0
FFFC000FFFC0
FFFC000FFFC0
FFFE001FFFC0
FFFE001FFFC0
FFFF003FFFC0
7FFFC0FFFF80
7FFFFFFFFF80
3FFFFFFFFF80
3FFFFFFFFF00
3FFFFFFFFF00
1FFFFFFFFE00
0FFFFFFFFC00
07FFFFFFFC00
07FFFFFFF800
03FFFFFFF000
00FFFFFFC000
007FFFFF8000
003FFFFF0000
000FFFFC0000
0001FFE00000
ENDCHAR
STARTCHAR k
ENCODING 107
SWIDTH 450 0
DWIDTH 72 0
BBX 56 113 8 0
BITMAP
FFFC0000000000
FFFC0000000000
FFFC0000000000
FFFC0000000000
FFFC0000000000
FFFC0000000000
FFFC0000000000
FFFC0000000000
FFFC0000000000
FFFC0000000000
FFFC0000000000
FFFC0000000000
FFFC0000000000
FFFC0000000000
FFFC0000000000
FFFC0000000000
FFFC0000000000
FFFC0000000000
FFFC0000000000
FFFC0000000000
FFFC0000000000
FFFC0000000000
FFFC0000000000
FFFC0000000000
FFFC0000000000
FFFC0000000000
FFFC0000000000
FFFC0000000000
FFFC000000FFFF
FFFC000001FFFE
FFFC000003FFFE
FFFC000003FFFC
FFFC000007FFFC
FFFC000007FFF8
FFFC00000FFFF8
FFFC00000FFFF0
FFFC00001FFFE0
FFFC00003FFFE0
FFFC00003FFFC0
FFFC00007FFFC0
FFFC00007FFF80
FFFC0000FFFF00
FFFC0000FFFF00
FFFC0001FFFE00
FFFC0003FFFE00
FFFC0003FFFC00
FFFC0007FFFC00
FFFC0007FFF800
FFFC000FFFF000
FFFC000FFFF000
FFFC001FFFE000
FFFC003FFFE000
FFFC003FFFC000
FFFC007FFFC000
FFFC007FFF8000
FFFC00FFFF0000
FFFC00FFFF0000
FFFC01FFFE0000
FFFC03FFFE0000
FFFC03FFFC0000
FFFC07FFFC0000
FFFC07FFF80000
FFFC0FFFF00000
FFFC0FFFF00000
FFFC1FFFE00000
FFFC3FFFE00000
FFFC3FFFC00000
FFFC7FFFC00000
FFFC7FFF800000
FFFCFFFF000000
FFFCFFFF000000
FFFDFFFF000000
FFFFFFFF800000
FFFFFFFFC00000
FFFFFFFFC00000
FFFFFFFFE00000
FFFFFFFFE00000
FFFFFFFFF00000
FFFFFFFFF00000
FFFFFFFFF80000
FFFFFFFFFC0000
FFFFFFFFFC0000
FFFFFFFFFE0000
FFFFFFFFFE0000
FFFFFFFFFF0000
FFFFFEFFFF8000
FFFFFE7FFF8000
FFFFFC7FFFC000
FFFFFC3FFFC000
FFFFF83FFFE000
FFFFF01FFFE000
FFFFF00FFFF000
FFFFE00FFFF800
FFFFE007FFF800
FFFFC007FFFC00
FFFF8003FFFC00
FFFF8003FFFE00
FFFF0001FFFE00
FFFF0000FFFF00
FFFE0000FFFF80
FFFE00007FFF80
FFFC00007FFFC0
FFFC00003FFFC0
FFFC00001FFFE0
FFFC00001FFFE0
FFFC00000FFFF0
FFFC00000FFFF8
FFFC000007FFF8
FFFC000007FFFC
FFFC000003FFFC
FFFC000001FFFE
FFFC000001FFFE
FFFC000000FFFF
ENDCHAR
STARTCHAR l
ENCODING 108
SWIDTH 272 0
DWIDTH 44 0
BBX 28 113 8 0
BITMAP
FFFC0000
FFFC0000
FFFC0000
FFFC0000
FFFC0000
FFFC0000
FFFC0000
FFFC0000
FFFC0000
FFFC0000
FFFC0000
FFFC0000
FFFC0000
FFFC0000
FFFC0000
FFFC0000
FFFC0000
FFFC0000
FFFC0000
FFFC0000
FFFC0000
FFFC0000
FFFC0000
FFFC0000
FFFC0000
FFFC0000
FFFC0000
FFFC0000
FFFC0000
FFFC0000
FFFC0000
FFFC0000
FFFC0000
FFFC0000
FFFC0000
FFFC0000
FFFC0000
FFFC0000
FFFC0000
FFFC0000
FFFC0000
FFFC0000
FFFC0000
FFFC0000
FFFC0000
FFFC0000
FFFC0000
FFFC0000
FFFC0000
FFFC0000
FFFC0000
FFFC0000
FFFC0000
FFFC0000
FFFC0000
FFFC0000
FFFC0000
FFFC0000
FFFC0000
FFFC0000
FFFC0000
FFFC0000
FFFC0000
FFFC0000
FFFC0000
FFFC0000
FFFC0000
FFFC0000
FFFC0000
FFFC0000
FFFC0000
FFFC0000
FFFC0000
FFFC0000
FFFC0000
FFFC0000
FFFC0000
FFFC0000
FFFC0000
FFFC0000
FFFC0000
FFFC0000
FFFC0000
FFFC0000
FFFC0000
FFFC0000
FFFC0000
FFFC0000
FFFC0000
FFFC0000
FFFC0000
FFFC0000
FFFC0000
FFFC0000
FFFC0000
FFFE0000
FFFF0000
FFFF8000
7FFFE000
7FFFFFF0
7FFFFFF0
3FFFFFF0
1FFFFFF0
1FFFFFF0
0FFFFFF0
07FFFFF0
03FFFFF0
01FFFFF0
00FFFFF0
007FFFF0
001FFFF0
0007FFF0
0000FFF0
ENDCHAR
STARTCHAR m
ENCODING 109
SWIDTH 714 0
DWIDTH 114 0
BBX 99 85 8 0
BITMAP
FFFC03FFC0000000FFF8000000
FFFC3FFFFC000007FFFF000000
FFFCFFFFFF00003FFFFFC00000
FFFFFFFFFFC000FFFFFFF00000
FFFFFFFFFFF001FFFFFFFC0000
FFFFFFFFFFF807FFFFFFFE0000
FFFFFFFFFFFC0FFFFFFFFF8000
FFFFFFFFFFFE1FFFFFFFFFC000
FFFFFFFFFFFF3FFFFFFFFFE000
FFFFFFFFFFFFFFFFFFFFFFF000
FFFFFFFFFFFFFFFFFFFFFFF000
FFFFFFFFFFFFFFFFFFFFFFF800
FFFFFFFFFFFFFFFFFFFFFFFC00
FFFFFFFFFFFFFFFFFFFFFFFE00
FFFFFF01FFFFFFFFE03FFFFE00
FFFFFC003FFFFFFF0007FFFF00
FFFFF0000FFFFFFC0003FFFF00
FFFFE00007FFFFF80000FFFF80
FFFFC00003FFFFF000007FFF80
FFFF800001FFFFE000007FFF80
FFFF000000FFFFC000003FFFC0
FFFE000000FFFFC000001FFFC0
FFFE0000007FFF8000001FFFC0
FFFE0000007FFF8000000FFFC0
FFFC0000003FFF8000000FFFC0
FFFC0000003FFF0000000FFFE0
FFFC0000003FFF0000000FFFE0
FFFC0000003FFF0000000FFFE0
FFFC0000003FFF0000000FFFE0
FFFC0000003FFF0000000FFFE0
FFFC0000003FFF0000000FFFE0
FFFC0000003FFF0000000FFFE0
FFFC0000003FFF0000000FFFE0
FFFC0000003FFF0000000FFFE0
FFFC0000003FFF0000000FFFE0
FFFC0000003FFF0000000FFFE0
FFFC0000003FFF0000000FFFE0
FFFC0000003FFF0000000FFFE0
FFFC0000003FFF0000000FFFE0
FFFC0000003FFF0000000FFFE0
FFFC0000003FFF0000000FFFE0
FFFC0000003FFF0000000FFFE0
FFFC0000003FFF0000000FFFE0
FFFC0000003FFF0000000FFFE0
FFFC0000003FFF0000000FFFE0
FFFC0000003FFF0000000FFFE0
FFFC0000003FFF0000000FFFE0
FFFC0000003FFF0000000FFFE0
FFFC0000003FFF0000000FFFE0
FFFC0000003FFF0000000FFFE0
FFFC0000003FFF0000000FFFE0
FFFC0000003FFF0000000FFFE0
FFFC0000003FFF0000000FFFE0
FFFC0000003FFF0000000FFFE0
FFFC0000003FFF0000000FFFE0
FFFC0000003FFF0000000FFFE0
FFFC0000003FFF0000000FFFE0
FFFC0000003FFF0000000FFFE0
FFFC0000003FFF0000000FFFE0
FFFC0000003FFF0000000FFFE0
FFFC0000003FFF0000000FFFE0
FFFC0000003FFF0000000FFFE0
FFFC0000003FFF0000000FFFE0
FFFC0000003FFF0000000FFFE0
FFFC0000003FFF0000000FFFE0
FFFC0000003FFF0000000FFFE0
FFFC0000003FFF0000000FFFE0
FFFC0000003FFF0000000FFFE0
FFFC0000003FFF0000000FFFE0
FFFC0000003FFF0000000FFFE0
FFFC0000003FFF0000000FFFE0
FFFC0000003FFF0000000FFFE0
FFFC0000003FFF0000000FFFE0
FFFC0000003FFF0000000FFFE0
FFFC0000003FFF0000000FFFE0
FFFC0000003FFF0000000FFFE0
FFFC0000003FFF0000000FFFE0
FFFC0000003FFF0000000FFFE0
FFFC0000003FFF0000000FFFE0
FFFC0000003FFF0000000FFFE0
FFFC0000003FFF0000000FFFE0
FFFC0000003FFF0000000FFFE0
FFFC0000003FFF0000000FFFE0
FFFC0000003FFF0000000FFFE0
FFFC0000003FFF0000000FFFE0
ENDCHAR
STARTCHAR n
ENCODING 110
SWIDTH 450 0
DWIDTH 72 0
BBX 56 85 8 0
BITMAP
FFFC03FFC00000
FFFC3FFFFC0000
FFFCFFFFFF0000
FFFFFFFFFFC000
FFFFFFFFFFF000
FFFFFFFFFFF800
FFFFFFFFFFFC00
FFFFFFFFFFFE00
FFFFFFFFFFFF00
FFFFFFFFFFFF80
FFFFFFFFFFFFC0
FFFFFFFFFFFFE0
FFFFFFFFFFFFF0
FFFFFFFFFFFFF0
FFFFFF81FFFFF8
FFFFFC003FFFF8
FFFFF0000FFFFC
FFFFE00007FFFC
FFFFC00003FFFE
FFFF800001FFFE
FFFF000000FFFE
FFFE000000FFFF
FFFE0000007FFF
FFFE0000007FFF
FFFC0000003FFF
FFFC0000003FFF
FFFC0000003FFF
FFFC0000003FFF
FFFC0000003FFF
FFFC0000003FFF
FFFC0000003FFF
FFFC0000003FFF
FFFC0000003FFF
FFFC0000003FFF
FFFC0000003FFF
FFFC0000003FFF
FFFC0000003FFF
FFFC0000003FFF
FFFC0000003FFF
FFFC0000003FFF
FFFC0000003FFF
FFFC0000003FFF
FFFC0000003FFF
FFFC0000003FFF
FFFC0000003FFF
FFFC0000003FFF
FFFC0000003FFF
FFFC0000003FFF
FFFC0000003FFF
FFFC0000003FFF
FFFC0000003FFF
FFFC0000003FFF
FFFC0000003FFF
FFFC0000003FFF
FFFC0000003FFF
FFFC0000003FFF
FFFC0000003FFF
FFFC0000003FFF
FFFC0000003FFF
FFFC0000003FFF
FFFC0000003FFF
FFFC0000003FFF
FFFC0000003FFF
FFFC0000003FFF
FFFC0000003FFF
FFFC0000003FFF
FFFC0000003FFF
FFFC0000003FFF
FFFC0000003FFF
FFFC0000003FFF
FFFC0000003FFF
FFFC0000003FFF
FFFC0000003FFF
FFFC0000003FFF
FFFC0000003FFF
FFFC0000003FFF
FFFC0000003FFF
FFFC0000003FFF
FFFC0000003FFF
FFFC0000003FFF
FFFC0000003FFF
FFFC0000003FFF
FFFC0000003FFF
FFFC0000003FFF
FFFC0000003FFF
ENDCHAR
STARTCHAR o
ENCODING 111
SWIDTH 450 0
DWIDTH 72 0
BBX 56 85 8 0
BITMAP
000003FFC00000
00003FFFFC0000
0000FFFFFF0000
0003FFFFFFC000
000FFFFFFFF000
001FFFFFFFF800
003FFFFFFFFC00
007FFFFFFFFE00
00FFFFFFFFFF00
01FFFFFFFFFF80
03FFFFFFFFFFC0
07FFFFFFFFFFE0
0FFFFFFFFFFFF0
0FFFFFFFFFFFF0
1FFFFF81FFFFF8
1FFFFC003FFFF8
3FFFF0000FFFFC
3FFFE00007FFFC
7FFFC00003FFFE
7FFF800001FFFE
7FFF000000FFFE
FFFE000000FFFF
FFFE0000007FFF
FFFE0000007FFF
FFFC0000003FFF
FFFC0000003FFF
FFFC0000003FFF
FFFC0000003FFF
FFFC0000003FFF
FFFC0000003FFF
FFFC0000003FFF
FFFC0000003FFF
FFFC0000003FFF
FFFC0000003FFF
FFFC0000003FFF
FFFC0000003FFF
FFFC0000003FFF
FFFC0000003FFF
FFFC0000003FFF
FFFC0000003FFF
FFFC0000003FFF
FFFC0000003FFF
FFFC0000003FFF
FFFC0000003FFF
FFFC0000003FFF
FFFC0000003FFF
FFFC0000003FFF
FFFC0000003FFF
FFFC0000003FFF
FFFC0000003FFF
FFFC0000003FFF
FFFC0000003FFF
FFFC0000003FFF
FFFC0000003FFF
FFFC0000003FFF
FFFC0000003FFF
FFFC0000003FFF
FFFC0000003FFF
FFFC0000003FFF
FFFC0000003FFF
FFFC0000003FFF
FFFE0000007FFF
FFFE0000007FFF
FFFF000000FFFF
7FFF000000FFFE
7FFF800001FFFE
7FFFC00003FFFE
3FFFE00007FFFC
3FFFF0000FFFFC
1FFFFC003FFFF8
1FFFFF81FFFFF8
0FFFFFFFFFFFF0
0FFFFFFFFFFFE0
07FFFFFFFFFFE0
03FFFFFFFFFFC0
01FFFFFFFFFF80
00FFFFFFFFFF00
007FFFFFFFFE00
003FFFFFFFFC00
001FFFFFFFF800
000FFFFFFFE000
0003FFFFFFC000
0000FFFFFF0000
00003FFFF80000
000003FF800000
ENDCHAR
STARTCHAR p
ENCODING 112
SWIDTH 450 0
DWIDTH 72 0
BBX 56 113 8 -28
BITMAP
FFFC03FFC00000
FFFC3FFFFC0000
FFFCFFFFFF0000
FFFFFFFFFFC000
FFFFFFFFFFF000
FFFFFFFFFFF800
FFFFFFFFFFFC00
FFFFFFFFFFFE00
FFFFFFFFFFFF00
FFFFFFFFFFFF80
FFFFFFFFFFFFC0
FFFFFFFFFFFFE0
FFFFFFFFFFFFF0
FFFFFFFFFFFFF0
FFFFFF81FFFFF8
FFFFFC003FFFF8
FFFFF0000FFFFC
FFFFE00007FFFC
FFFFC00003FFFE
FFFF800001FFFE
FFFF000000FFFE
FFFE000000FFFF
FFFE0000007FFF
FFFE0000007FFF
FFFC0000003FFF
FFFC0000003FFF
FFFC0000003FFF
FFFC0000003FFF
FFFC0000003FFF
FFFC0000003FFF
FFFC0000003FFF
FFFC0000003FFF
FFFC0000003FFF
FFFC0000003FFF
FFFC0000003FFF
FFFC0000003FFF
FFFC0000003FFF
FFFC0000003FFF
FFFC0000003FFF
FFFC0000003FFF
FFFC0000003FFF
FFFC0000003FFF
FFFC0000003FFF
FFFC0000003FFF
FFFC0000003FFF
FFFC0000003FFF
FFFC0000003FFF
FFFC0000003FFF
FFFC0000003FFF
FFFC0000003FFF
FFFC0000003FFF
FFFC0000003FFF
FFFC0000003FFF
FFFC0000003FFF
FFFC0000003FFF
FFFC0000003FFF
FFFC0000003FFF
FFFC0000003FFF
FFFC0000003FFF
FFFC0000003FFF
FFFC0000003FFF
FFFE0000007FFF
FFFE0000007FFF
FFFE000000FFFF
FFFF000000FFFE
FFFF800001FFFE
FFFFC00003FFFE
FFFFE00007FFFC
FFFFF0000FFFFC
FFFFFC003FFFF8
FFFFFF81FFFFF8
FFFFFFFFFFFFF0
FFFFFFFFFFFFE0
FFFFFFFFFFFFE0
FFFFFFFFFFFFC0
FFFFFFFFFFFF80
FFFFFFFFFFFF00
FFFFFFFFFFFE00
FFFFFFFFFFFC00
FFFFFFFFFFF800
FFFFFFFFFFE000
FFFFFFFFFFC000
FFFCFFFFFF0000
FFFC1FFFF80000
FFFC01FF800000
FFFC0000000000
FFFC0000000000
FFFC0000000000
FFFC0000000000
FFFC0000000000
FFFC0000000000
FFFC0000000000
FFFC0000000000
FFFC0000000000
FFFC0000000000
FFFC0000000000
FFFC0000000000
FFFC0000000000
FFFC0000000000
FFFC0000000000
FFFC0000000000
FFFC0000000000
FFFC0000000000
FFFC0000000000
FFFC0000000000
FFFC0000000000
FFFC0000000000
FFFC0000000000
FFFC0000000000
FFFC0000000000
FFFC0000000000
FFFC0000000000
FFFC0000000000
ENDCHAR
STARTCHAR q
ENCODING 113
SWIDTH 450 0
DWIDTH 72 0
BBX 56 113 8 -28
BITMAP
000003FFC03FFF
00003FFFF83FFF
0000FFFFFF3FFF
0003FFFFFFFFFF
000FFFFFFFFFFF
001FFFFFFFFFFF
003FFFFFFFFFFF
007FFFFFFFFFFF
00FFFFFFFFFFFF
01FFFFFFFFFFFF
03FFFFFFFFFFFF
07FFFFFFFFFFFF
0FFFFFFFFFFFFF
0FFFFFFFFFFFFF
1FFFFF81FFFFFF
1FFFFC003FFFFF
3FFFF0000FFFFF
3FFFE00007FFFF
7FFFC00003FFFF
7FFF800001FFFF
7FFF000000FFFF
FFFE000000FFFF
FFFE0000007FFF
FFFE0000007FFF
FFFC0000003FFF
FFFC0000003FFF
FFFC0000003FFF
FFFC0000003FFF
FFFC0000003FFF
FFFC0000003FFF
FFFC0000003FFF
FFFC0000003FFF
FFFC0000003FFF
FFFC0000003FFF
FFFC0000003FFF
FFFC0000003FFF
FFFC0000003FFF
FFFC0000003FFF
FFFC0000003FFF
FFFC0000003FFF
FFFC0000003FFF
FFFC0000003FFF
FFFC0000003FFF
FFFC0000003FFF
FFFC0000003FFF
FFFC0000003FFF
FFFC0000003FFF
FFFC0000003FFF
FFFC0000003FFF
FFFC0000003FFF
FFFC0000003FFF
FFFC0000003FFF
FFFC0000003FFF
FFFC0000003FFF
FFFC0000003FFF
FFFC0000003FFF
FFFC0000003FFF
FFFC0000003FFF
FFFC0000003FFF
FFFC0000003FFF
FFFC0000003FFF
FFFE0000007FFF
FFFE0000007FFF
FFFE000000FFFF
7FFF000000FFFF
7FFF800001FFFF
7FFFC00003FFFF
3FFFE00007FFFF
3FFFF0000FFFFF
1FFFFC003FFFFF
1FFFFF81FFFFFF
0FFFFFFFFFFFFF
0FFFFFFFFFFFFF
07FFFFFFFFFFFF
03FFFFFFFFFFFF
01FFFFFFFFFFFF
00FFFFFFFFFFFF
007FFFFFFFFFFF
003FFFFFFFFFFF
001FFFFFFFFFFF
0007FFFFFFFFFF
0003FFFFFFBFFF
0000FFFFFF3FFF
00001FFFF83FFF
000003FFC03FFF
00000000003FFF
00000000003FFF
00000000003FFF
00000000003FFF
00000000003FFF
00000000003FFF
00000000003FFF
00000000003FFF
00000000003FFF
00000000003FFF
00000000003FFF
00000000003FFF
00000000003FFF
00000000003FFF
00000000003FFF
00000000003FFF
00000000003FFF
00000000003FFF
00000000003FFF
00000000003FFF
00000000003FFF
00000000003FFF
00000000003FFF
00000000003FFF
00000000003FFF
00000000003FFF
00000000003FFF
00000000003FFF
ENDCHAR
STARTCHAR r
ENCODING 114
SWIDTH 359 0
DWIDTH 57 0
BBX 43 85 7 0
BITMAP
FFFE01FFFFE0
FFFE1FFFFFE0
FFFE7FFFFFE0
FFFFFFFFFFE0
FFFFFFFFFFE0
FFFFFFFFFFE0
FFFFFFFFFFE0
FFFFFFFFFFE0
FFFFFFFFFFE0
FFFFFFFFFFE0
FFFFFFFFFFE0
FFFFFFFFFFE0
FFFFFFFFFFE0
FFFFFFFFFFE0
FFFFFF87FFE0
FFFFFC07FFE0
FFFFF807FFE0
FFFFE007FFE0
FFFFE007FFE0
FFFFC007FFE0
FFFF8007FFE0
FFFF00000000
FFFF00000000
FFFE00000000
FFFE00000000
FFFE00000000
FFFE00000000
FFFE00000000
FFFE00000000
FFFE00000000
FFFE00000000
FFFE00000000
FFFE00000000
FFFE00000000
FFFE00000000
FFFE00000000
FFFE00000000
FFFE00000000
FFFE00000000
FFFE00000000
FFFE00000000
FFFE00000000
FFFE00000000
FFFE00000000
FFFE00000000
FFFE00000000
FFFE00000000
FFFE00000000
FFFE00000000
FFFE00000000
FFFE00000000
FFFE00000000
FFFE00000000
FFFE00000000
FFFE00000000
FFFE00000000
FFFE00000000
FFFE00000000
FFFE00000000
FFFE00000000
FFFE00000000
FFFE00000000
FFFE00000000
FFFE00000000
FFFE00000000
FFFE00000000
FFFE00000000
FFFE00000000
FFFE00000000
FFFE00000000
FFFE00000000
FFFE00000000
FFFE00000000
FFFE00000000
FFFE00000000
FFFE00000000
FFFE00000000
FFFE00000000
FFFE00000000
FFFE00000000
FFFE00000000
FFFE00000000
FFFE00000000
FFFE00000000
FFFE00000000
ENDCHAR
STARTCHAR s
ENCODING 115
SWIDTH 404 0
DWIDTH 65 0
BBX 49 85 8 0
BITMAP
00001FF8000000
0000FFFF800000
0007FFFFE00000
000FFFFFF80000
003FFFFFFE0000
007FFFFFFF0000
00FFFFFFFF8000
01FFFFFFFFC000
03FFFFFFFFE000
07FFFFFFFFF000
0FFFFFFFFFF800
1FFFFFFFFFF800
1FFFFFFFFFFC00
3FFFFFFFFFFC00
3FFFF81FFFFE00
7FFFE003FFFE00
7FFFC001FFFF00
7FFF8000FFFF00
FFFF00007FFF00
FFFE00003FFF80
FFFE00003FFF80
FFFC00001FFF80
FFFC00001FFF80
FFFC00001FFF80
FFFC00001FFF80
FFFC00001FFF80
FFFC00001FFF80
FFFC00001FFF80
FFFC0000000000
FFFE0000000000
FFFE0000000000
FFFF0000000000
7FFF8000000000
7FFFC000000000
3FFFF000000000
3FFFFFE0000000
3FFFFFFF000000
1FFFFFFFC00000
0FFFFFFFF00000
0FFFFFFFFC0000
07FFFFFFFE0000
03FFFFFFFF8000
01FFFFFFFFC000
00FFFFFFFFE000
007FFFFFFFF000
001FFFFFFFF000
000FFFFFFFF800
0003FFFFFFFC00
00007FFFFFFC00
0000007FFFFE00
00000007FFFE00
00000001FFFF00
00000000FFFF00
000000007FFF00
000000007FFF00
000000003FFF80
000000003FFF80
FFFC00001FFF80
FFFC00001FFF80
FFFC00001FFF80
FFFC00001FFF80
FFFC00001FFF80
FFFC00001FFF80
FFFC00001FFF80
FFFE00003FFF80
FFFE00003FFF80
FFFF00007FFF00
7FFF8000FFFF00
7FFFC001FFFF00
7FFFE003FFFE00
3FFFFC1FFFFE00
3FFFFFFFFFFC00
1FFFFFFFFFFC00
1FFFFFFFFFF800
0FFFFFFFFFF800
07FFFFFFFFF000
03FFFFFFFFE000
01FFFFFFFFC000
00FFFFFFFF8000
007FFFFFFF0000
003FFFFFFE0000
000FFFFFF80000
0007FFFFE00000
0000FFFF800000
00001FF8000000
ENDCHAR
STARTCHAR t
ENCODING 116
SWIDTH 272 0
DWIDTH 44 0
BBX 36 113 4 0
BITMAP
01FFF80000
01FFF80000
01FFF80000
01FFF80000
01FFF80000
01FFF80000
01FFF80000
01FFF80000
01FFF80000
01FFF80000
01FFF80000
01FFF80000
01FFF80000
01FFF80000
01FFF80000
01FFF80000
01FFF80000
01FFF80000
01FFF80000
01FFF80000
01FFF80000
01FFF80000
01FFF80000
01FFF80000
01FFF80000
01FFF80000
01FFF80000
01FFF80000
FFFFFFFFF0
FFFFFFFFF0
FFFFFFFFF0
FFFFFFFFF0
FFFFFFFFF0
FFFFFFFFF0
FFFFFFFFF0
FFFFFFFFF0
FFFFFFFFF0
FFFFFFFFF0
FFFFFFFFF0
FFFFFFFFF0
FFFFFFFFF0
FFFFFFFFF0
01FFF80000
01FFF80000
01FFF80000
01FFF80000
01FFF80000
01FFF80000
01FFF80000
01FFF80000
01FFF80000
01FFF80000
01FFF80000
01FFF80000
01FFF80000
01FFF80000
01FFF80000
01FFF80000
01FFF80000
01FFF80000
01FFF80000
01FFF80000
01FFF80000
01FFF80000
01FFF80000
01FFF80000
01FFF80000
01FFF80000
01FFF80000
01FFF80000
01FFF80000
01FFF80000
01FFF80000
01FFF80000
01FFF80000
01FFF80000
01FFF80000
01FFF80000
01FFF80000
01FFF80000
01FFF80000
01FFF80000
01FFF80000
01FFF80000
01FFF80000
01FFF80000
01FFF80000
01FFF80000
01FFF80000
01FFF80000
01FFF80000
01FFF80000
01FFF80000
01FFFC0000
01FFFC0000
01FFFC0000
00FFFE0000
00FFFF0000
00FFFFE000
007FFFFFF0
007FFFFFF0
007FFFFFF0
003FFFFFF0
001FFFFFF0
001FFFFFF0
000FFFFFF0
0007FFFFF0
0003FFFFF0
0001FFFFF0
00007FFFF0
00003FFFF0
00000FFFF0
000000FFF0
ENDCHAR
STARTCHAR u
ENCODING 117
SWIDTH 450 0
DWIDTH 72 0
BBX 56 85 8 0
BITMAP
FFFC0000003FFF
FFFC0000003FFF
FFFC0000003FFF
FFFC0000003FFF
FFFC0000003FFF
FFFC0000003FFF
FFFC0000003FFF
FFFC0000003FFF
FFFC0000003FFF
FFFC0000003FFF
FFFC0000003FFF
FFFC0000003FFF
FFFC0000003FFF
FFFC0000003FFF
FFFC0000003FFF
FFFC0000003FFF
FFFC0000003FFF
FFFC0000003FFF
FFFC0000003FFF
FFFC0000003FFF
FFFC0000003FFF
FFFC0000003FFF
FFFC0000003FFF
FFFC0000003FFF
FFFC0000003FFF
FFFC0000003FFF
FFFC0000003FFF
FFFC0000003FFF
FFFC0000003FFF
FFFC0000003FFF
FFFC0000003FFF
FFFC0000003FFF
FFFC0000003FFF
FFFC0000003FFF
FFFC0000003FFF
FFFC0000003FFF
FFFC0000003FFF
FFFC0000003FFF
FFFC0000003FFF
FFFC0000003FFF
FFFC0000003FFF
FFFC0000003FFF
FFFC0000003FFF
FFFC0000003FFF
FFFC0000003FFF
FFFC0000003FFF
FFFC0000003FFF
FFFC0000003FFF
FFFC0000003FFF
FFFC0000003FFF
FFFC0000003FFF
FFFC0000003FFF
FFFC0000003FFF
FFFC0000003FFF
FFFC0000003FFF
FFFC0000003FFF
FFFC0000003FFF
FFFC0000003FFF
FFFC0000003FFF
FFFC0000003FFF
FFFC0000003FFF
FFFE0000007FFF
FFFE0000007FFF
FFFE000000FFFF
7FFF000000FFFF
7FFF800001FFFF
7FFFC00003FFFF
3FFFE00007FFFF
3FFFF0000FFFFF
1FFFFC003FFFFF
1FFFFF81FFFFFF
0FFFFFFFFFFFFF
0FFFFFFFFFFFFF
07FFFFFFFFFFFF
03FFFFFFFFFFFF
01FFFFFFFFFFFF
00FFFFFFFFFFFF
007FFFFFFFFFFF
003FFFFFFFFFFF
001FFFFFFFFFFF
0007FFFFFFFFFF
0003FFFFFFFFFF
0000FFFFFE3FFF
00001FFFF83FFF
000003FF803FFF
ENDCHAR
STARTCHAR v
ENCODING 118
SWIDTH 450 0
DWIDTH 72 0
BBX 56 85 8 0
BITMAP
FFFC0000003FFF
FFFC0000003FFF
FFFC0000003FFF
FFFE0000007FFF
7FFE0000007FFE
7FFE0000007FFE
7FFE0000007FFE
7FFE0000007FFE
7FFF000000FFFE
3FFF000000FFFC
3FFF000000FFFC
3FFF000000FFFC
3FFF000000FFFC
3FFF800001FFFC
1FFF800001FFF8
1FFF800001FFF8
1FFF800001FFF8
1FFF800001FFF8
1FFFC00003FFF8
0FFFC00003FFF0
0FFFC00003FFF0
0FFFC00003FFF0
0FFFC00003FFF0
0FFFE00007FFF0
07FFE00007FFE0
07FFE00007FFE0
07FFE00007FFE0
07FFE00007FFE0
07FFF0000FFFE0
03FFF0000FFFC0
03FFF0000FFFC0
03FFF0000FFFC0
03FFF0000FFFC0
03FFF8001FFFC0
01FFF8001FFF80
01FFF8001FFF80
01FFF8001FFF80
01FFF8001FFF80
01FFFC003FFF80
00FFFC003FFF00
00FFFC003FFF00
00FFFC003FFF00
00FFFC003FFF00
00FFFE007FFF00
007FFE007FFE00
007FFE007FFE00
007FFE007FFE00
007FFE007FFE00
007FFF00FFFE00
003FFF00FFFC00
003FFF00FFFC00
003FFF00FFFC00
003FFF00FFFC00
003FFF81FFFC00
001FFF81FFF800
001FFF81FFF800
001FFF81FFF800
001FFF81FFF800
001FFFC3FFF800
000FFFC3FFF000
000FFFC3FFF000
000FFFC3FFF000
000FFFC3FFF000
000FFFE7FFF000
0007FFE7FFE000
0007FFE7FFE000
0007FFE7FFE000
0007FFE7FFE000
0007FFFFFFE000
0003FFFFFFC000
0003FFFFFFC000
0003FFFFFFC000
0003FFFFFFC000
0003FFFFFFC000
0001FFFFFF8000
0001FFFFFF8000
0001FFFFFF8000
0001FFFFFF8000
0001FFFFFF8000
0000FFFFFF0000
0000FFFFFF0000
0000FFFFFF0000
0000FFFFFF0000
0000FFFFFF0000
00007FFFFE0000
ENDCHAR
STARTCHAR w
ENCODING 119
SWIDTH 712 0
DWIDTH 114 0
BBX 99 85 7 0
BITMAP
FFFE0000001FFF80000007FFE0
7FFE0000001FFF80000007FFE0
7FFE0000003FFFC0000007FFE0
7FFE0000003FFFC0000007FFE0
7FFF0000003FFFC000000FFFE0
7FFF0000003FFFC000000FFFC0
3FFF0000003FFFC000000FFFC0
3FFF0000007FFFE000000FFFC0
3FFF0000007FFFE000000FFFC0
3FFF8000007FFFE000001FFFC0
3FFF8000007FFFE000001FFF80
1FFF8000007FFFE000001FFF80
1FFF800000FFFFF000001FFF80
1FFF800000FFFFF000001FFF80
1FFFC00000FFFFF000003FFF80
1FFFC00000FFFFF000003FFF00
0FFFC00000FFFFF000003FFF00
0FFFC00001FFFFF800003FFF00
0FFFC00001FFFFF800003FFF00
0FFFC00001FFFFF800007FFF00
0FFFE00001FFFFF800007FFE00
07FFE00001FFFFF800007FFE00
07FFE00003FFFFFC00007FFE00
07FFE00003FFFFFC00007FFE00
07FFE00003FFFFFC0000FFFE00
07FFF00003FFFFFC0000FFFC00
03FFF00003FFFFFC0000FFFC00
03FFF00007FFFFFE0000FFFC00
03FFF00007FFFFFE0000FFFC00
03FFF00007FFFFFE0001FFFC00
03FFF80007FFFFFE0001FFF800
01FFF80007FFFFFE0001FFF800
01FFF8000FFFFFFF0001FFF800
01FFF8000FFFFFFF0001FFF800
01FFF8000FFFFFFF0003FFF800
01FFFC000FFFFFFF0003FFF000
00FFFC000FFFFFFF0003FFF000
00FFFC001FFFFFFF8003FFF000
00FFFC001FFF9FFF8003FFF000
00FFFC001FFF9FFF8007FFF000
00FFFE001FFF9FFF8007FFE000
007FFE001FFF9FFF8007FFE000
007FFE003FFF9FFFC007FFE000
007FFE003FFF0FFFC007FFE000
007FFE003FFF0FFFC00FFFE000
007FFF003FFF0FFFC00FFFC000
003FFF003FFF0FFFC00FFFC000
003FFF007FFF0FFFE00FFFC000
003FFF007FFE07FFE00FFFC000
003FFF007FFE07FFE01FFFC000
003FFF807FFE07FFE01FFF8000
001FFF807FFE07FFE01FFF8000
001FFF80FFFE07FFF01FFF8000
001FFF80FFFC03FFF01FFF8000
001FFF80FFFC03FFF03FFF8000
001FFFC0FFFC03FFF03FFF0000
000FFFC0FFFC03FFF03FFF0000
000FFFC1FFFC03FFF83FFF0000
000FFFC1FFF801FFF83FFF0000
000FFFC1FFF801FFF87FFF0000
000FFFE1FFF801FFF87FFE0000
0007FFE1FFF801FFF87FFE0000
0007FFE3FFF801FFFC7FFE0000
0007FFE3FFF000FFFC7FFE0000
0007FFE3FFF000FFFCFFFE0000
0007FFF3FFF000FFFCFFFC0000
0003FFF3FFF000FFFCFFFC0000
0003FFF7FFF000FFFEFFFC0000
0003FFF7FFE0007FFEFFFC0000
0003FFF7FFE0007FFFFFFC0000
0003FFFFFFE0007FFFFFF80000
0001FFFFFFE0007FFFFFF80000
0001FFFFFFE0007FFFFFF80000
0001FFFFFFC0003FFFFFF80000
0001FFFFFFC0003FFFFFF80000
0001FFFFFFC0003FFFFFF80000
0000FFFFFFC0003FFFFFF00000
0000FFFFFFC0003FFFFFF00000
0000FFFFFF80001FFFFFF00000
0000FFFFFF80001FFFFFF00000
0000FFFFFF80001FFFFFF00000
00007FFFFF80001FFFFFE00000
00007FFFFF80001FFFFFE00000
00007FFFFF00000FFFFFE00000
00007FFFFF00000FFFFFE00000
ENDCHAR
STARTCHAR x
ENCODING 120
SWIDTH 450 0
DWIDTH 72 0
BBX 56 85 8 0
BITMAP
FFFC0000003FFF
FFFE0000007FFF
7FFE0000007FFE
7FFF000000FFFE
3FFF000000FFFC
3FFF800001FFFC
1FFF800001FFF8
1FFFC00003FFF8
0FFFC00003FFF0
0FFFE00007FFF0
07FFE00007FFE0
07FFF0000FFFE0
03FFF0000FFFC0
03FFF8001FFFC0
01FFF8001FFF80
01FFFC003FFF80
00FFFC003FFF00
00FFFE007FFF00
007FFE007FFE00
007FFF00FFFE00
003FFF00FFFC00
003FFF81FFFC00
001FFF81FFF800
001FFFC3FFF800
000FFFC3FFF000
000FFFE7FFF000
0007FFE7FFE000
0007FFFFFFE000
0003FFFFFFC000
0003FFFFFFC000
0001FFFFFF8000
0001FFFFFF8000
0000FFFFFF0000
0000FFFFFF0000
00007FFFFE0000
00007FFFFE0000
00003FFFFC0000
00003FFFFC0000
00001FFFF80000
00001FFFF80000
00000FFFF00000
00000FFFF00000
000007FFE00000
00000FFFF00000
00000FFFF00000
00001FFFF80000
00001FFFF80000
00003FFFFC0000
00003FFFFC0000
00007FFFFE0000
00007FFFFE0000
0000FFFFFF0000
0000FFFFFF0000
0001FFFFFF8000
0001FFFFFF8000
0003FFFFFFC000
0003FFFFFFC000
0007FFFFFFE000
0007FFE7FFE000
000FFFE7FFF000
000FFFC3FFF000
001FFFC3FFF800
001FFF81FFF800
003FFF81FFFC00
003FFF00FFFC00
007FFF00FFFE00
007FFE007FFE00
00FFFE007FFF00
00FFFC003FFF00
01FFFC003FFF80
01FFF8001FFF80
03FFF8001FFFC0
03FFF0000FFFC0
07FFF0000FFFE0
07FFE00007FFE0
0FFFE00007FFF0
0FFFC00003FFF0
1FFFC00003FFF8
1FFF800001FFF8
3FFF800001FFFC
3FFF000000FFFC
7FFF000000FFFE
7FFE0000007FFE
FFFE0000007FFF
FFFC0000003FFF
ENDCHAR
STARTCHAR y
ENCODING 121
SWIDTH 450 0
DWIDTH 72 0
BBX 56 113 8 -28
BITMAP
07FFF000007FFF
03FFF000007FFF
03FFF000007FFF
03FFF000007FFF
03FFF000007FFE
03FFF80000FFFE
01FFF80000FFFE
01FFF80000FFFE
01FFF80000FFFE
01FFF80000FFFC
01FFFC0000FFFC
00FFFC0001FFFC
00FFFC0001FFFC
00FFFC0001FFFC
00FFFC0001FFF8
00FFFE0001FFF8
007FFE0003FFF8
007FFE0003FFF8
007FFE0003FFF8
007FFE0003FFF0
007FFF0003FFF0
003FFF0007FFF0
003FFF0007FFF0
003FFF0007FFF0
003FFF0007FFE0
003FFF8007FFE0
001FFF800FFFE0
001FFF800FFFE0
001FFF800FFFE0
001FFF800FFFC0
001FFFC00FFFC0
000FFFC01FFFC0
000FFFC01FFFC0
000FFFC01FFFC0
000FFFC01FFF80
000FFFE01FFF80
0007FFE01FFF80
0007FFE03FFF80
0007FFE03FFF80
0007FFE03FFF00
0007FFF03FFF00
0003FFF03FFF00
0003FFF07FFF00
0003FFF07FFF00
0003FFF07FFE00
0003FFF87FFE00
0001FFF87FFE00
0001FFF8FFFE00
0001FFF8FFFE00
0001FFF8FFFC00
0001FFFCFFFC00
0000FFFCFFFC00
0000FFFDFFFC00
0000FFFDFFFC00
0000FFFDFFF800
0000FFFFFFF800
00007FFFFFF800
00007FFFFFF800
00007FFFFFF800
00007FFFFFF000
00007FFFFFF000
00003FFFFFF000
00003FFFFFF000
00003FFFFFF000
00003FFFFFE000
00003FFFFFE000
00001FFFFFE000
00001FFFFFE000
00001FFFFFE000
00001FFFFFC000
00000FFFFFC000
00000FFFFFC000
00000FFFFFC000
00000FFFFFC000
00000FFFFF8000
000007FFFF8000
000007FFFF8000
000007FFFF8000
000007FFFF8000
000007FFFF0000
000003FFFF0000
000003FFFF0000
000003FFFF0000
000003FFFF0000
000003FFFE0000
000001FFFE0000
000001FFFE0000
000001FFFE0000
000001FFFE0000
000001FFFC0000
000000FFFC0000
000000FFFC0000
000000FFFC0000
000000FFFC0000
000001FFF80000
004001FFF80000
00E003FFF80000
01F007FFF80000
03F80FFFF80000
07FFFFFFF00000
0FFFFFFFF00000
1FFFFFFFE00000
3FFFFFFFE00000
7FFFFFFFC00000
FFFFFFFFC00000
FFFFFFFF800000
7FFFFFFF000000
3FFFFFFE000000
1FFFFFFC000000
0FFFFFF8000000
03FFFFE0000000
00FFFF80000000
003FFE00000000
ENDCHAR
STARTCHAR z
ENCODING 122
SWIDTH 450 0
DWIDTH 72 0
BBX 56 85 8 0
BITMAP
FFFFFFFFFFFFFF
FFFFFFFFFFFFFF
FFFFFFFFFFFFFF
FFFFFFFFFFFFFF
FFFFFFFFFFFFFF
FFFFFFFFFFFFFF
FFFFFFFFFFFFFF
FFFFFFFFFFFFFF
FFFFFFFFFFFFFF
FFFFFFFFFFFFFF
FFFFFFFFFFFFFF
FFFFFFFFFFFFFF
FFFFFFFFFFFFFF
FFFFFFFFFFFFFF
0000000003FFFF
0000000003FFFE
0000000007FFFE
000000000FFFFC
000000000FFFF8
000000001FFFF8
000000003FFFF0
000000007FFFE0
000000007FFFE0
00000000FFFFC0
00000001FFFF80
00000001FFFF00
00000003FFFF00
00000007FFFE00
00000007FFFC00
0000000FFFFC00
0000001FFFF800
0000001FFFF000
0000003FFFF000
0000007FFFE000
0000007FFFC000
000000FFFFC000
000001FFFF8000
000001FFFF0000
000003FFFF0000
000007FFFE0000
00000FFFFC0000
00000FFFF80000
00001FFFF80000
00003FFFF00000
00003FFFE00000
00007FFFE00000
0000FFFFC00000
0000FFFF800000
0001FFFF800000
0003FFFF000000
0003FFFE000000
0007FFFE000000
000FFFFC000000
000FFFF8000000
001FFFF8000000
003FFFF0000000
007FFFE0000000
007FFFC0000000
00FFFFC0000000
01FFFF80000000
01FFFF00000000
03FFFF00000000
07FFFE00000000
07FFFC00000000
0FFFFC00000000
1FFFF800000000
1FFFF000000000
3FFFF000000000
7FFFE000000000
7FFFC000000000
FFFF8000000000
FFFFFFFFFFFFFF
FFFFFFFFFFFFFF
FFFFFFFFFFFFFF
FFFFFFFFFFFFFF
FFFFFFFFFFFFFF
FFFFFFFFFFFFFF
FFFFFFFFFFFFFF
FFFFFFFFFFFFFF
FFFFFFFFFFFFFF
FFFFFFFFFFFFFF
FFFFFFFFFFFFFF
FFFFFFFFFFFFFF
FFFFFFFFFFFFFF
FFFFFFFFFFFFFF
ENDCHAR
STARTCHAR braceleft
ENCODING 123
SWIDTH 450 0
DWIDTH 72 0
BBX 38 128 17 -13
BITMAP
00000000FC
00000007FC
0000001FFC
0000007FFC
000001FFFC
000003FFFC
000007FFFC
00000FFFFC
00001FFFFC
00003FFFFC
00007FFFFC
00007FFFFC
0000FFFFFC
0001FFFFC0
0001FFFF00
0001FFFE00
0003FFF800
0003FFF800
0007FFF000
0007FFE000
0007FFE000
0007FFC000
0007FFC000
0007FFC000
0007FFC000
0007FFC000
0007FFC000
0007FFC000
0007FFC000
0007FFC000
0007FFC000
0007FFC000
0007FFC000
0007FFC000
0007FFC000
0007FFC000
0007FFC000
0007FFC000
0007FFC000
0007FFC000
0007FFC000
0007FFC000
0007FFC000
0007FFC000
0007FFC000
0007FFC000
000FFF8000
000FFF8000
000FFF8000
000FFF8000
001FFF8000
001FFF0000
003FFF0000
007FFF0000
00FFFE0000
01FFFC0000
07FFFC0000
3FFFF80000
FFFFF00000
FFFFE00000
FFFFC00000
FFFF000000
FFFC000000
FFE0000000
FFC0000000
FFFC000000
FFFF000000
FFFF800000
FFFFC00000
FFFFF00000
FFFFF80000
0FFFF80000
03FFFC0000
00FFFE0000
007FFE0000
003FFF0000
003FFF0000
001FFF8000
000FFF8000
000FFF8000
000FFF8000
000FFF8000
0007FFC000
0007FFC000
0007FFC000
0007FFC000
0007FFC000
0007FFC000
0007FFC000
0007FFC000
0007FFC000
0007FFC000
0007FFC000
0007FFC000
0007FFC000
0007FFC000
0007FFC000
0007FFC000
0007FFC000
0007FFC000
0007FFC000
0007FFC000
0007FFC000
0007FFC000
0007FFC000
0007FFC000
0007FFC000
0007FFE000
0007FFE000
0007FFF000
0003FFF000
0003FFF800
0003FFFC00
0001FFFF00
0001FFFF80
0000FFFFF0
00007FFFFC
00007FFFFC
00003FFFFC
00001FFFFC
00000FFFFC
000007FFFC
000003FFFC
000001FFFC
0000007FFC
0000003FFC
0000000FFC
00000001FC
ENDCHAR
STARTCHAR bar
ENCODING 124
SWIDTH 450 0
DWIDTH 72 0
BBX 14 141 29 -15
BITMAP
FFFC
FFFC
FFFC
FFFC
FFFC
FFFC
FFFC
FFFC
FFFC
FFFC
FFFC
FFFC
FFFC
FFFC
FFFC
FFFC
FFFC
FFFC
FFFC
FFFC
FFFC
FFFC
FFFC
FFFC
FFFC
FFFC
FFFC
FFFC
FFFC
FFFC
FFFC
FFFC
FFFC
FFFC
FFFC
FFFC
FFFC
FFFC
FFFC
FFFC
FFFC
FFFC
FFFC
FFFC
FFFC
FFFC
FFFC
FFFC
FFFC
FFFC
FFFC
FFFC
FFFC
FFFC
FFFC
FFFC
FFFC
FFFC
FFFC
FFFC
FFFC
FFFC
FFFC
FFFC
FFFC
FFFC
FFFC
FFFC
FFFC
FFFC
FFFC
FFFC
FFFC
FFFC
FFFC
FFFC
FFFC
FFFC
FFFC
FFFC
FFFC
FFFC
FFFC
FFFC
FFFC
FFFC
FFFC
FFFC
FFFC
FFFC
FFFC
FFFC
FFFC
FFFC
FFFC
FFFC
FFFC
FFFC
FFFC
FFFC
FFFC
FFFC
FFFC
FFFC
FFFC
FFFC
FFFC
FFFC
FFFC
FFFC
FFFC
FFFC
FFFC
FFFC
FFFC
FFFC
FFFC
FFFC
FFFC
FFFC
FFFC
FFFC
FFFC
FFFC
FFFC
FFFC
FFFC
FFFC
FFFC
FFFC
FFFC
FFFC
FFFC
FFFC
FFFC
FFFC
FFFC
FFFC
FFFC
FFFC
FFFC
ENDCHAR
STARTCHAR braceright
ENCODING 125
SWIDTH 450 0
DWIDTH 72 0
BBX 38 128 17 -13
BITMAP
FC00000000
FF80000000
FFE0000000
FFF8000000
FFFE000000
FFFF000000
FFFF800000
FFFFC00000
FFFFE00000
FFFFF00000
FFFFF80000
FFFFF80000
FFFFFC0000
0FFFFE0000
03FFFE0000
01FFFE0000
007FFF0000
007FFF0000
003FFF0000
001FFF8000
001FFF8000
000FFF8000
000FFF8000
000FFF8000
000FFF8000
000FFF8000
000FFF8000
000FFF8000
000FFF8000
000FFF8000
000FFF8000
000FFF8000
000FFF8000
000FFF8000
000FFF8000
000FFF8000
000FFF8000
000FFF8000
000FFF8000
000FFF8000
000FFF8000
000FFF8000
000FFF8000
000FFF8000
000FFF8000
000FFF8000
000FFFC000
0007FFC000
0007FFC000
0007FFC000
0007FFE000
0003FFE000
0003FFF000
0003FFF800
0001FFFC00
0000FFFE00
0000FFFF80
00007FFFF0
00003FFFFC
00001FFFFC
00000FFFFC
000003FFFC
000000FFFC
0000001FFC
0000000FFC
000000FFFC
000003FFFC
000007FFFC
00000FFFFC
00003FFFFC
00007FFFFC
00007FFFC0
0000FFFF00
0001FFFC00
0001FFF800
0003FFF000
0003FFF000
0007FFE000
0007FFC000
0007FFC000
0007FFC000
0007FFC000
000FFF8000
000FFF8000
000FFF8000
000FFF8000
000FFF8000
000FFF8000
000FFF8000
000FFF8000
000FFF8000
000FFF8000
000FFF8000
000FFF8000
000FFF8000
000FFF8000
000FFF8000
000FFF8000
000FFF8000
000FFF8000
000FFF8000
000FFF8000
000FFF8000
000FFF8000
000FFF8000
000FFF8000
000FFF8000
001FFF8000
001FFF8000
003FFF8000
003FFF0000
007FFF0000
00FFFF0000
03FFFE0000
07FFFE0000
3FFFFC0000
FFFFF80000
FFFFF80000
FFFFF00000
FFFFE00000
FFFFC00000
FFFF800000
FFFF000000
FFFE000000
FFF8000000
FFF0000000
FFC0000000
FE00000000
ENDCHAR
STARTCHAR asciitilde
ENCODING 126
SWIDTH 450 0
DWIDTH 72 0
BBX 62 20 5 33
BITMAP
000C000000000000
00FC00000FFE0000
0FFE0000FFFFC000
FFFF000FFFFFF000
FFFF807FFFFFFC00
7FFFFFFFFFFFFE00
7FFFFFFFFFFFFF00
7FFFFFFFFFFFFF80
3FFFFFFFFFFFFFC0
1FFFFFFFFFFFFFE0
1FFFFFFFFFFFFFE0
0FFFFFFFFFFFFFF0
07FFFFFFFFFFFFF8
03FFFFFFFFFFFFF8
01FFFFFFFFFFFFF8
00FFFFFFFE0FFFFC
003FFFFFE003FFFC
000FFFFE0001FFE0
0003FFE00000FE00
000018000000E000
ENDCHAR
STARTCHAR uni0080
ENCODING 128
SWIDTH 450 0
DWIDTH 72 0
BBX 12 82 30 7
BITMAP
0600
0600
0600
0600
0600
0F00
0F00
0F00
0F00
0F00
0F00
0F00
0F00
0F00
0F00
0F00
0F00
0F00
0F00
0F00
0F00
0F00
1F80
3FC0
7FE0
FFF0
FFF0
FFF0
FFF0
FFF0
FFE0
FFE0
7FE0
7FE0
7FE0
7FE0
7FE0
7FE0
7FE0
7FE0
FFE0
FFF0
FFF0
FFF0
FFF0
FFF0
FFF0
FFF0
FFF0
FFF0
FFF0
FFF0
FFF0
FFF0
FFF0
7FE0
7FE0
7FE0
7FE0
7FE0
7FE0
7FE0
7FE0
7FE0
7FE0
7FE0
7FE0
7FE0
0F00
0F00
0F00
0F00
0F00
0F00
0F00
0F00
0F00
0F00
0F00
0F00
0F00
0600
ENDCHAR
STARTCHAR uni0081
ENCODING 129
SWIDTH 450 0
DWIDTH 72 0
BBX 16 116 28 -6
BITMAP
0180
0180
01C0
03C0
03C0
03C0
07E0
07E0
07E0
07E0
07E0
07E0
07E0
07E0
07E0
07E0
07E0
07E0
07E0
07E0
07E0
07E0
07E0
07E0
07E0
07E0
07E0
07E0
03C0
03C0
03C0
03C0
03C0
03C0
03C0
03C0
03C0
03C0
03C0
03C0
03C0
03C0
03C0
03C0
0FF0
1FF8
3FFC
FFFF
FFFF
FFFF
FFFF
FFFF
7FFE
7FFE
7FFE
7FFE
7FFE
7FFE
7FFE
7FFE
7FFE
7FFE
7FFE
7FFE
7FFE
7FFE
7FFE
7FFE
7FFE
7FFE
7FFE
7FFE
7FFE
7FFE
7FFE
7FFE
7FFE
7FFE
7FFE
7FFE
7FFE
7FFE
3FFC
3FFC
3FFC
3FFC
3FFC
1FFC
1FFC
1FFC
1FFC
1FFC
1FFC
1FFC
1FFC
1FF8
1FF8
1FF8
1FF8
1FF8
1FF8
1FF8
03C0
03C0
03C0
03C0
03C0
03C0
03C0
03C0
03C0
03C0
03C0
03C0
03C0
0180
ENDCHAR
STARTCHAR uni0082
ENCODING 130
SWIDTH 450 0
DWIDTH 72 0
BBX 56 122 8 -11
BITMAP
00020000008000
0006000000C000
0006000000C000
0006000001C000
0007000001E000
000F000001E000
000F000001E000
000F000001E000
000F000001E000
000F000001E000
000F000001E000
000F000001E000
000F000001E000
000F000001E000
000F000001E000
000F000001E000
000F000001E000
000F000001E000
000F000001E000
000F000001E000
000F000001E000
000F000003E000
001F800003E000
001F800003E000
001F800003F000
001F800003F000
001F800003F000
001F800003F000
001F800003F000
001F800003F000
001F800003F000
001F800003F000
001F800003F000
001F800003F000
001F800003F000
001F800003F000
001F800003F000
7FFFC000FFFFFF
FFFFFFFFFFFFFF
FFFFFFFFFFFFFF
FFFFFFFFFFFFFF
FFFFFFFFFFFFFF
FFFFFFFFFFFFFF
FFFFFFE3FFFFFF
FFFFE00007FFFF
FFFFE00007FFFF
FFFFE00007FFFF
FFFFE00007FFFE
7FFFE00007FFFE
7FFFE00007FFFE
3FFFE00007FFFC
3FFFE00007FFFC
3FFFE00007FFFC
1FFFE00007FFF8
3FFFE00007FFF8
1FFFE00007FFF8
1FFFE00007FFF8
1FFFE00007FFF8
0FFFE00007FFF0
0FFFE00007FFF0
1FFFE00007FFF0
0FFFE00007FFF0
1FFFE00007FFF0
0FFFE00007FFF0
0FFFE00007FFF8
1FFFE00007FFF0
0FFFE00007FFF8
1FFFE00007FFF0
0FFFE00007FFF8
1FFFE00007FFF8
1FFFE00007FFF8
1FFFE00007FFF8
3FFFE00007FFF8
3FFFE00007FFF8
3FFFE00007FFFC
3FFFE00007FFFC
3FFFE00007FFFC
7FFFE00007FFFE
7FFFE00007FFFE
7FFFE00007FFFE
FFFFE00007FFFF
FFFFE00007FFFF
FFFFE00007FFFF
FFFFFFFFFFFFFF
01FFFFFFFFFFC0
01FFFFFFFFFFC0
01FFFFFFFFFFC0
01FFFFFFFFFFC0
01FFFFFFFFFFC0
01FFFFFFFFFFC0
01FFFFFFFFFFC0
01FFFFFFFFFFC0
01FFFFFFFFFF80
01FFFFFFFFFF80
01FFFFFFFFFF80
01FFFFFFFFFF80
01FFFFFFFFFF80
01FFFFFFFFFF80
01FFFFFFFFFF80
01FFFFFFFFFF80
01FFFFFFFFFF80
01FFFFFFFFFF80
01FFFFFFFFFF80
01FFFFFFFFFF80
01FFFFFFFFFF80
01FFFFFFFFFF80
01FFFFFFFFFF80
01FFFFFFFFFF80
01FFFFFFFFFF80
01FFFFFFFFFF80
01FFFFFFFFFF80
01FFFFFFFFFF80
01FFFFFFFFFF80
00FFFFFFFFFF80
007FFFFFFFFE00
000007FFE00000
000007FFC00000
000007FFC00000
000007FFC00000
000007FFC00000
000007FFC00000
00000010000000
ENDCHAR
STARTCHAR uni0083
ENCODING 131
SWIDTH 450 0
DWIDTH 72 0
BBX 55 55 11 16
BITMAP
00E00000000700
01F00000001F80
03FC0000003FC0
07FE0000007FE0
0FFF000000FFF0
1FFF800001FFF8
3FFFC00003FFFC
7FFFE00007FFFE
FFFFF0000FFFFE
FFFFF8001FFFFE
7FFFFC003FFFFE
3FFFFE007FFFFC
3FFFFF00FFFFF8
1FFFFF81FFFFF0
0FFFFFC3FFFFE0
07FFFFE7FFFFC0
03FFFFFFFFFF80
01FFFFFFFFFF00
00FFFFFFFFFE00
007FFFFFFFFC00
003FFFFFFFF800
001FFFFFFFF000
000FFFFFFFE000
0007FFFFFFC000
0003FFFFFF8000
0001FFFFFF0000
0000FFFFFE0000
00007FFFFE0000
0000FFFFFF0000
0001FFFFFF8000
0003FFFFFFC000
0007FFFFFFE000
000FFFFFFFF000
001FFFFFFFF000
003FFFFFFFF800
007FFFFFFFFC00
00FFFFFFFFFE00
01FFFFFFFFFF80
03FFFFEFFFFFC0
07FFFFC7FFFFE0
0FFFFFC3FFFFF0
1FFFFF81FFFFF8
3FFFFE00FFFFFC
7FFFFC007FFFFC
7FFFF8003FFFFE
FFFFF0001FFFFE
FFFFE0000FFFFE
7FFFC00007FFFE
3FFF800003FFFC
1FFF000001FFF8
0FFE000000FFF0
07FC0000007FE0
03F80000003FC0
01F00000000F80
00E00000000600
ENDCHAR
STARTCHAR uni008C
ENCODING 140
SWIDTH 450 0
DWIDTH 72 0
BBX 52 70 10 10
BITMAP
FFFFFFFFFFFFF0
FFFFFFFFFFFFF0
FFFFFFFFFFFFF0
FFFFFFFFFFFFF0
FFFFFFFFFFFFF0
FFFFFFFFFFFFF0
FFFFFFFFFFFFF0
FFFFFFFFFFFFF0
FFFFFFFFFFFFF0
FFFFFFFFFFFFF0
0FFFFFFFFFFF00
0FFFFFFFFFFF00
0FFFFFFFFFFF00
0FFFFFFFFFFF00
0FFFFFFFFFFF00
0FFFFFFFFFFF00
0FFFFFFFFFFF00
0FFFFFFFFFFF00
0FFFFFFFFFFF00
0FFFFFFFFFFF00
0FFFFFFFFFFF00
07FFFFFFFFFE00
03FFFFFFFFFC00
01FFFFFFFFF800
00FFFFFFFFF000
007FFFFFFFE000
003FFFFFFFC000
001FFFFFFF8000
000FFFFFFF0000
0007FFFFFE0000
0003FFFFFC0000
0001FFFFF80000
0000FFFFF00000
00007FFFE00000
00003FFFC00000
00003FFFC00000
00007FFFE00000
0000FFFFF00000
0001FFFFF80000
0003FFFFFC0000
0007FFFFFE0000
000FFFFFFF0000
001FFFFFFF8000
003FFFFFFFC000
007FFFFFFFE000
00FFFFFFFFF000
01FFFFFFFFF800
03FFFFFFFFFC00
07FFFFFFFFFE00
0FFFFFFFFFFF00
0FFFFFFFFFFF00
0FFFFFFFFFFF00
0FFFFFFFFFFF00
0FFFFFFFFFFF00
0FFFFFFFFFFF00
0FFFFFFFFFFF00
0FFFFFFFFFFF00
0FFFFFFFFFFF00
0FFFFFFFFFFF00
0FFFFFFFFFFF00
FFFFFFFFFFFFF0
FFFFFFFFFFFFF0
FFFFFFFFFFFFF0
FFFFFFFFFFFFF0
FFFFFFFFFFFFF0
FFFFFFFFFFFFF0
FFFFFFFFFFFFF0
FFFFFFFFFFFFF0
FFFFFFFFFFFFF0
FFFFFFFFFFFFF0
ENDCHAR
STARTCHAR uni008D
ENCODING 141
SWIDTH 450 0
DWIDTH 72 0
BBX 70 73 1 12
BITMAP
000007FFF000000000
7FFFFFFFF800000000
7FFFFFFFFC00000000
FFFFFFFFFC00000000
7FFFFFFFFC00000000
3FFFFFFFF800000000
0000000FF000000000
0000001FE000000000
0000003FC000000000
0000007F8000000000
000000FF0000000000
000001FE0000000000
000003FC0000000000
000003F80000000000
000007F00000000000
00000FE00000000000
00001FE00000000000
00003FC0000FFFFFE0
00007F80003FFFFFF8
0000FF00003FFFFFFC
0001FE00003FFFFFFC
0003FC00003FFFFFF8
0007F800001FFFFFF0
000FF0000000000FF0
001FE0000000000FE0
003FC0000000001FC0
007F80000000003F80
00FF00000000007F00
01FE0000000000FE00
03FC0000000001FC00
07F80000000003FC00
07F00000000007F800
0FE00000000007F000
1FC0000000000FE000
3FFFFFFFFC001FC000
7FFFFFFFFE003F8000
FFFFFFFFFF007F8000
FFFFFFFFFF00FF0000
7FFFFFFFFE01FE0000
3FFFFFFFFC01FC0000
000000000003F80000
000000000007F00000
00000000000FE00000
00000000001FFF8000
00000000001FFFFFF8
00000000003FFFFFFC
00000000003FFFFFFC
00000000003FFFFFF8
00000000001FFFFFF8
00007FFFF000000000
0000FFFFF800000000
0001FFFFFC00000000
0001FFFFFC00000000
0000FFFFF800000000
00003FFFF800000000
0000000FF000000000
0000001FE000000000
0000003FC000000000
0000007F8000000000
0000007F0000000000
000000FE0000000000
000001FC0000000000
000003F80000000000
000007F00000000000
00000FF00000000000
00001FE00000000000
00003FC00000000000
00007F800000000000
0000FFFFFE00000000
0000FFFFFE00000000
0001FFFFFF00000000
0001FFFFFF00000000
0000FFFFFE00000000
ENDCHAR
STARTCHAR uni008E
ENCODING 142
SWIDTH 450 0
DWIDTH 72 0
BBX 65 94 4 -5
BITMAP
0000001FF800000000
0000001FF800000000
0000001FF800000000
0000001FF800000000
0000001FF800000000
0000001FF800000000
0000001FF800000000
0000001FF800000000
0000001FF800000000
0000001FF800000000
0000001FF800000000
0000001FF800000000
0000001FF800000000
0000001FF800000000
0000001FF800000000
0000001FF800000000
0000001FF800000000
0000001FF800000000
0000001FF800000000
0000001FF800000000
0000001FF800000000
0000001FF800000000
0000001FF800000000
0000001FF800000000
0000001FF800000000
0000001FF800000000
0000001FF800000000
0000001FF800000000
0000001FF800000000
0000001FF800000000
0000001FF800000000
0000001FF800000000
0000001FF800000000
0000001FF800000000
0000001FF800000000
0000001FF800000000
0000001FF800000000
0000001FF800000000
0000001FF800000000
0000001FF800000000
0200001FF800004000
0700001FF80000E000
0F80001FF80001F000
1FC0001FF80003F800
1FE0001FF80007F800
3FF0001FF8000FFC00
7FF8001FF8001FFE00
FFFC001FF8003FFF00
FFFE001FF8007FFF80
7FFF001FF800FFFF00
3FFF801FF801FFFE00
1FFFC01FF803FFF800
0FFFE01FF807FFF000
07FFF01FF80FFFE000
03FFF81FF81FFFC000
01FFFC1FF83FFF8000
00FFFE1FF87FFF0000
007FFF1FF8FFFE0000
003FFF9FF9FFFC0000
001FFFDFFBFFF80000
000FFFFFFFFFF00000
0007FFFFFFFFE00000
0003FFFFFFFFC00000
0001FFFFFFFF800000
0000FFFFFFFF000000
00007FFFFFFE000000
00003FFFFFFC000000
00001FFFFFF8000000
00000FFFFFF0000000
000007FFFFE0000000
000003FFFFC0000000
000001FFFF80000000
000000FFFF00000000
0000007FFE00000000
0000003FFC00000000
0000001FF800000000
0000000FF000000000
00000007E000000000
00000003C000000000
000000018000000000
000000000000000000
000000000000000000
000000000000000000
1FFFFFFFFFFFFFF800
1FFFFFFFFFFFFFF800
1FFFFFFFFFFFFFF800
1FFFFFFFFFFFFFF800
1FFFFFFFFFFFFFF800
1FFFFFFFFFFFFFF800
1FFFFFFFFFFFFFF800
1FFFFFFFFFFFFFF800
1FFFFFFFFFFFFFF800
1FFFFFFFFFFFFFF800
1FFFFFFFFFFFFFF800
ENDCHAR
STARTCHAR uni0097
ENCODING 151
SWIDTH 450 0
DWIDTH 72 0
BBX 1 1 0 0
BITMAP
00
ENDCHAR
STARTCHAR uni0098
ENCODING 152
SWIDTH 450 0
DWIDTH 72 0
BBX 1 1 0 0
BITMAP
00
ENDCHAR
STARTCHAR uni0099
ENCODING 153
SWIDTH 450 0
DWIDTH 72 0
BBX 1 1 0 0
BITMAP
00
ENDCHAR
STARTCHAR uni009A
ENCODING 154
SWIDTH 450 0
DWIDTH 72 0
BBX 1 1 0 0
BITMAP
00
ENDCHAR
STARTCHAR uni009B
ENCODING 155
SWIDTH 450 0
DWIDTH 72 0
BBX 1 1 0 0
BITMAP
00
ENDCHAR
STARTCHAR uni009C
ENCODING 156
SWIDTH 450 0
DWIDTH 72 0
BBX 1 1 0 0
BITMAP
00
ENDCHAR
STARTCHAR uni009D
ENCODING 157
SWIDTH 450 0
DWIDTH 72 0
BBX 1 1 0 0
BITMAP
00
ENDCHAR
STARTCHAR uni009E
ENCODING 158
SWIDTH 450 0
DWIDTH 72 0
BBX 1 1 0 0
BITMAP
00
ENDCHAR
STARTCHAR uni009F
ENCODING 159
SWIDTH 450 0
DWIDTH 72 0
BBX 1 1 0 0
BITMAP
00
ENDCHAR
STARTCHAR uni00A0
ENCODING 160
SWIDTH 450 0
DWIDTH 72 0
BBX 1 1 0 0
BITMAP
00
ENDCHAR
STARTCHAR exclamdown
ENCODING 161
SWIDTH 450 0
DWIDTH 72 0
BBX 1 1 0 0
BITMAP
00
ENDCHAR
STARTCHAR cent
ENCODING 162
SWIDTH 450 0
DWIDTH 72 0
BBX 1 1 0 0
BITMAP
00
ENDCHAR
STARTCHAR sterling
ENCODING 163
SWIDTH 450 0
DWIDTH 72 0
BBX 56 113 8 0
BITMAP
0000007FFE0000
000003FFFF8000
00000FFFFFE000
00003FFFFFF800
00007FFFFFFC00
0001FFFFFFFF00
0003FFFFFFFF80
0007FFFFFFFFC0
000FFFFFFFFFE0
000FFFFFFFFFE0
001FFFFFFFFFF0
003FFFFFFFFFF8
003FFFFFFFFFF8
007FFFFFFFFFFC
007FFFF01FFFFC
00FFFFC007FFFE
00FFFF0001FFFE
00FFFF0000FFFE
01FFFE0000FFFF
01FFFC00007FFF
01FFFC00007FFF
01FFF800003FFF
01FFF800003FFF
01FFF800003FFF
01FFF800000000
01FFF800000000
01FFF800000000
01FFF800000000
01FFF800000000
01FFF800000000
01FFF800000000
01FFF800000000
01FFF800000000
01FFF800000000
01FFF800000000
01FFF800000000
01FFF800000000
01FFF800000000
01FFF800000000
01FFF800000000
01FFF800000000
01FFF800000000
01FFF800000000
01FFF800000000
01FFF800000000
01FFF800000000
01FFF800000000
01FFF800000000
01FFF800000000
FFFFFFFFFE0000
FFFFFFFFFE0000
FFFFFFFFFE0000
FFFFFFFFFE0000
FFFFFFFFFE0000
FFFFFFFFFE0000
FFFFFFFFFE0000
FFFFFFFFFE0000
FFFFFFFFFE0000
FFFFFFFFFE0000
FFFFFFFFFE0000
FFFFFFFFFE0000
FFFFFFFFFE0000
FFFFFFFFFE0000
01FFF800000000
01FFF800000000
01FFF800000000
01FFF800000000
01FFF800000000
01FFF800000000
01FFF800000000
01FFF800000000
01FFF800000000
01FFF800000000
01FFF800000000
01FFF800000000
01FFF800000000
01FFF800000000
01FFF800000000
01FFF800000000
01FFF800000000
01FFF800000000
01FFF800000000
01FFF800000000
01FFF800000000
01FFF800000000
01FFF800000000
01FFF800000000
01FFF800000000
01FFF800000000
01FFF800000000
01FFF800000000
01FFF800000000
01FFF800000000
03FFF800000000
03FFF800000000
03FFF800000000
07FFF000000000
0FFFF000000000
3FFFF000000000
FFFFFFFFFFFFFF
FFFFFFFFFFFFFF
FFFFFFFFFFFFFF
FFFFFFFFFFFFFF
FFFFFFFFFFFFFF
FFFFFFFFFFFFFF
FFFFFFFFFFFFFF
FFFFFFFFFFFFFF
FFFFFFFFFFFFFF
FFFFFFFFFFFFFF
FFFFFFFFFFFFFF
FFFFFFFFFFFFFF
FFFFFFFFFFFFFF
FFFFFFFFFFFFFF
ENDCHAR
STARTCHAR currency
ENCODING 164
SWIDTH 450 0
DWIDTH 72 0
BBX 1 1 0 0
BITMAP
00
ENDCHAR
STARTCHAR yen
ENCODING 165
SWIDTH 450 0
DWIDTH 72 0
BBX 1 1 0 0
BITMAP
00
ENDCHAR
STARTCHAR brokenbar
ENCODING 166
SWIDTH 450 0
DWIDTH 72 0
BBX 1 1 0 0
BITMAP
00
ENDCHAR
STARTCHAR section
ENCODING 167
SWIDTH 812 0
DWIDTH 130 0
BBX 114 85 8 0
BITMAP
00000000FFFF800000001FFFF00000
00000000FFFF000000001FFFE00000
00000001FFFE000000003FFFE00000
00000003FFFE000000003FFFC00000
00000003FFFC000000007FFF800000
00000007FFFC000000007FFF800000
00000007FFF800000000FFFF000000
0000000FFFF800000001FFFF000000
0000000FFFF000000001FFFE000000
0000001FFFE000000003FFFE000000
0000003FFFE000000003FFFC000000
0000003FFFC000000007FFF8000000
0000007FFFC00000000FFFF8000000
0000007FFFE00000000FFFFC000000
000000FFFFE00000001FFFFC000000
000000FFFFF00000001FFFFE000000
000001FFFFF00000003FFFFE000000
000003FFFFF80000003FFFFF000000
000003FFFFF80000007FFFFF800000
000007FFFFFC000000FFFFFF800000
000007FFFFFE000000FFFFFFC00000
00000FFFFFFE000001FFFFFFC00000
00001FFFFFFF000001FFFFFFE00000
00001FFFFFFF000003FFFFFFE00000
00003FFFFFFF800003FFFFFFF00000
00003FFFFFFF800007FFFFFFF80000
00007FFFFFFFC0000FFFFFFFF80000
00007FFFBFFFE0000FFFF7FFFC0000
0000FFFF1FFFE0001FFFF3FFFC0000
0001FFFF1FFFF0001FFFE1FFFE0000
0001FFFE0FFFF0003FFFC1FFFE0000
0003FFFE0FFFF8003FFFC0FFFF0000
0003FFFC07FFF8007FFF80FFFF8000
0007FFFC03FFFC00FFFF807FFF8000
0007FFF803FFFE00FFFF007FFFC000
000FFFF001FFFE01FFFF003FFFC000
001FFFF001FFFF01FFFE001FFFE000
001FFFE000FFFF03FFFC001FFFF000
003FFFE000FFFF87FFFC000FFFF000
003FFFC0007FFF87FFF8000FFFF800
007FFF80003FFFCFFFF80007FFF800
00FFFF80003FFFEFFFF00003FFFC00
00FFFF00001FFFFFFFE00003FFFC00
01FFFF00001FFFFFFFE00001FFFE00
01FFFE00000FFFFFFFC00001FFFE00
03FFFE00000FFFFFFFC00000FFFF00
03FFFC000007FFFFFF800000FFFF00
07FFF8000003FFFFFF8000007FFF80
0FFFF8000003FFFFFF0000003FFF80
0FFFF0000001FFFFFF0000003FFF80
1FFFF0000001FFFFFF0000001FFFC0
1FFFF0000000FFFFFF0000001FFFC0
3FFFF0000000FFFFFF0000001FFFC0
3FFFF0000000FFFFFF0000000FFFC0
7FFFF00000007FFFFF0000000FFFC0
FFFFF00000007FFFFF0000000FFFC0
FFFFF00000007FFFFF0000000FFFC0
FFFFF80000007FFFFF0000000FFFC0
FFFFF80000007FFFFF0000000FFFC0
FFFFF80000007FFFFF0000000FFFC0
FFFFF8000000FFFFFF0000001FFFC0
FFFFF8000000FFFFFF0000001FFFC0
FFFFFC000000FFFFFF8000001FFFC0
FFFFFC000001FFFFFF8000003FFF80
FFFFFE000003FFFFFFC000003FFF80
FFFFFF000003FFFFFFE000007FFF80
FFFFFF000007FFFFFFF00000FFFF80
FFFFFFC0000FFFFFFFF80001FFFF00
FFFFFFE0003FFFFFFFFC0003FFFF00
FFFFFFF8007FFFF7FFFF000FFFFE00
FF3FFFFF07FFFFE7FFFFE07FFFFE00
FE3FFFFFFFFFFFE3FFFFFFFFFFFC00
FE1FFFFFFFFFFFC3FFFFFFFFFFF800
FC0FFFFFFFFFFF81FFFFFFFFFFF800
FC0FFFFFFFFFFF80FFFFFFFFFFF000
F807FFFFFFFFFF007FFFFFFFFFE000
F803FFFFFFFFFE003FFFFFFFFFC000
F001FFFFFFFFFC001FFFFFFFFF8000
E000FFFFFFFFF8000FFFFFFFFF0000
E0003FFFFFFFE00007FFFFFFFE0000
C0001FFFFFFFC00001FFFFFFF80000
C00007FFFFFF000000FFFFFFF00000
800001FFFFFC0000003FFFFFC00000
8000007FFFF000000007FFFE000000
00000007FF0000000000FFF0000000
ENDCHAR
STARTCHAR dieresis
ENCODING 168
SWIDTH 450 0
DWIDTH 72 0
BBX 1 1 0 0
BITMAP
00
ENDCHAR
STARTCHAR copyright
ENCODING 169
SWIDTH 716 0
DWIDTH 115 0
BBX 99 113 8 0
BITMAP
00000000007FFFC00000000000
000000000FFFFFFC0000000000
000000007FFFFFFFC000000000
00000003FFFFFFFFF000000000
0000000FFFFFFFFFFE00000000
0000003FFFFFFFFFFF00000000
000000FFFFFFFFFFFFC0000000
000001FFFFFFFFFFFFF0000000
000007FFFFFFFFFFFFF8000000
00000FFFFFFFFFFFFFFE000000
00001FFFFFFFFFFFFFFF000000
00007FFFFFFFFFFFFFFF800000
0000FFFFFFFFFFFFFFFFC00000
0001FFFFFFFFFFFFFFFFE00000
0003FFFFFFE000FFFFFFF00000
0007FFFFFC00000FFFFFF80000
000FFFFFF0000001FFFFFC0000
001FFFFFC00000007FFFFE0000
001FFFFF000000001FFFFF0000
003FFFFC000000000FFFFF8000
007FFFF80000000003FFFFC000
00FFFFE00000000001FFFFC000
00FFFFC00000000000FFFFE000
01FFFF8000000000007FFFF000
03FFFF000001F000003FFFF000
03FFFE00003FFF80001FFFF800
07FFFC0001FFFFE0000FFFF800
07FFF80007FFFFF80007FFFC00
0FFFF8000FFFFFFE0003FFFC00
0FFFF0003FFFFFFF0001FFFE00
1FFFE0007FFFFFFF8001FFFE00
1FFFE000FFFFFFFFE000FFFF00
1FFFC001FFFFFFFFE000FFFF00
3FFFC003FFFFFFFFF0007FFF00
3FFF8007FFFFFFFFF8007FFF80
3FFF8007FFFFFFFFFC003FFF80
7FFF000FFFFFFFFFFE003FFF80
7FFF001FFFFFFFFFFE001FFFC0
7FFE001FFFFFFFFFFF001FFFC0
7FFE003FFFF803FFFF001FFFC0
FFFE003FFFE001FFFF800FFFC0
FFFE003FFFC000FFFF800FFFC0
FFFC007FFF80007FFF800FFFC0
FFFC007FFF00003FFF800FFFE0
FFFC007FFF00001FFFC00FFFE0
FFFC007FFE00001FFFC00FFFE0
FFFC007FFE00001FFFC00FFFE0
FFFC007FFE00000FFFC007FFE0
FFFC00FFFE00000FFFC007FFE0
FFFC00000000000FFFC007FFE0
FFFC00000000000FFFC007FFE0
FFFC00000000000FFFC007FFE0
FFFC00000000000FFFC007FFE0
FFFC00000000000FFFC007FFE0
FFFC00000000000FFFC007FFE0
FFFC00000000000FFFC007FFE0
FFFC00000000000FFFC007FFE0
FFFC00000000000FFFC007FFE0
FFFC00000000000FFFC007FFE0
FFFC00000000000FFFC007FFE0
FFFC00000000000FFFC007FFE0
FFFC00000000000FFFC007FFE0
FFFC00000000000FFFC007FFE0
FFFC00FFFE00000FFFC007FFE0
FFFC00FFFE00000FFFC007FFE0
FFFC007FFE00000FFFC007FFE0
FFFC007FFE00001FFFC007FFE0
FFFC007FFE00001FFFC00FFFE0
FFFC007FFF00001FFFC00FFFE0
FFFC007FFF80003FFF800FFFE0
FFFC007FFF80007FFF800FFFC0
FFFE003FFFC000FFFF800FFFC0
FFFE003FFFF001FFFF000FFFC0
7FFE001FFFFC0FFFFF001FFFC0
7FFF001FFFFFFFFFFE001FFFC0
7FFF001FFFFFFFFFFE001FFF80
7FFF000FFFFFFFFFFC003FFF80
3FFF8007FFFFFFFFFC003FFF80
3FFF8007FFFFFFFFF8007FFF80
3FFFC003FFFFFFFFF0007FFF00
1FFFC001FFFFFFFFE000FFFF00
1FFFE000FFFFFFFFC000FFFF00
1FFFE0007FFFFFFF8001FFFE00
0FFFF0001FFFFFFF0003FFFE00
0FFFF8000FFFFFFC0003FFFC00
07FFFC0003FFFFF00007FFFC00
07FFFC0000FFFFC0000FFFF800
03FFFE00001FFE00001FFFF800
03FFFF0000000000003FFFF000
01FFFF8000000000007FFFE000
00FFFFC00000000000FFFFE000
00FFFFF00000000001FFFFC000
007FFFF80000000003FFFFC000
003FFFFC000000000FFFFF8000
001FFFFF000000001FFFFF0000
001FFFFFC00000007FFFFE0000
000FFFFFF0000003FFFFFC0000
0007FFFFFE00000FFFFFF80000
0003FFFFFFF001FFFFFFF00000
0001FFFFFFFFFFFFFFFFE00000
0000FFFFFFFFFFFFFFFFC00000
00007FFFFFFFFFFFFFFF800000
00001FFFFFFFFFFFFFFF000000
00000FFFFFFFFFFFFFFC000000
000007FFFFFFFFFFFFF8000000
000001FFFFFFFFFFFFF0000000
000000FFFFFFFFFFFFC0000000
0000003FFFFFFFFFFF00000000
0000000FFFFFFFFFFC00000000
00000001FFFFFFFFF000000000
000000007FFFFFFF8000000000
0000000007FFFFFC0000000000
00000000003FFF000000000000
ENDCHAR
STARTCHAR ordfeminine
ENCODING 170
SWIDTH 450 0
DWIDTH 72 0
BBX 1 1 0 0
BITMAP
00
ENDCHAR
STARTCHAR guillemotleft
ENCODING 171
SWIDTH 450 0
DWIDTH 72 0
BBX 54 58 9 24
BITMAP
00000020000004
0000006000000C
000001E000001C
000003E000007C
000007E00000FC
00000FE00001FC
00003FE00003FC
00007FE0000FFC
0000FFE0001FFC
0001FFE0003FFC
0007FFE000FFFC
000FFFE001FFFC
001FFFE003FFFC
007FFFE007FFFC
00FFFFC01FFFF8
01FFFF803FFFF0
03FFFF007FFFE0
0FFFFC00FFFFC0
1FFFF803FFFF00
3FFFF007FFFE00
7FFFE00FFFFC00
FFFF801FFFF800
FFFF001FFFE000
FFFE001FFFC000
FFFC001FFF8000
FFF8001FFF0000
FFE0001FFE0000
FFC0001FF80000
FF80001FF00000
FF80001FF00000
FFC0001FFC0000
FFF0001FFE0000
FFF8001FFF0000
FFFC001FFF8000
FFFE001FFFC000
FFFF001FFFF000
FFFFC01FFFF800
7FFFE00FFFFC00
3FFFF003FFFE00
0FFFF801FFFF80
07FFFE00FFFFC0
03FFFF007FFFE0
01FFFF803FFFF0
007FFFC00FFFF8
003FFFE007FFFC
001FFFE003FFFC
000FFFE001FFFC
0007FFE0007FFC
0001FFE0003FFC
0000FFE0001FFC
00007FE0000FFC
00003FE00003FC
00000FE00001FC
000007E00000FC
000003E000007C
000001E000001C
0000006000000C
00000020000004
ENDCHAR
STARTCHAR logicalnot
ENCODING 172
SWIDTH 450 0
DWIDTH 72 0
BBX 1 1 0 0
BITMAP
00
ENDCHAR
STARTCHAR uni00AD
ENCODING 173
SWIDTH 450 0
DWIDTH 72 0
BBX 1 1 0 0
BITMAP
00
ENDCHAR
STARTCHAR registered
ENCODING 174
SWIDTH 450 0
DWIDTH 72 0
BBX 1 1 0 0
BITMAP
00
ENDCHAR
STARTCHAR macron
ENCODING 175
SWIDTH 450 0
DWIDTH 72 0
BBX 1 1 0 0
BITMAP
00
ENDCHAR
STARTCHAR degree
ENCODING 176
SWIDTH 260 0
DWIDTH 42 0
BBX 25 25 8 103
BITMAP
007F0000
01FFE000
07FFF000
0FFFF800
1FFFFC00
3FFFFE00
3FFFFF00
7FF3FF00
7FC0FF80
7F807F80
FF007F80
FF003F80
FF003F80
FF003F80
FF007F80
7F807F80
7FC1FF00
7FFFFF00
3FFFFF00
3FFFFE00
1FFFFC00
0FFFF800
07FFF000
01FFC000
003F0000
ENDCHAR
STARTCHAR plusminus
ENCODING 177
SWIDTH 450 0
DWIDTH 72 0
BBX 1 1 0 0
BITMAP
00
ENDCHAR
STARTCHAR uni00B2
ENCODING 178
SWIDTH 450 0
DWIDTH 72 0
BBX 1 1 0 0
BITMAP
00
ENDCHAR
STARTCHAR uni00B3
ENCODING 179
SWIDTH 450 0
DWIDTH 72 0
BBX 1 1 0 0
BITMAP
00
ENDCHAR
STARTCHAR acute
ENCODING 180
SWIDTH 450 0
DWIDTH 72 0
BBX 1 1 0 0
BITMAP
00
ENDCHAR
STARTCHAR uni00B5
ENCODING 181
SWIDTH 450 0
DWIDTH 72 0
BBX 56 106 8 -21
BITMAP
FFFC0000003FFF
FFFC0000003FFF
FFFC0000003FFF
FFFC0000003FFF
FFFC0000003FFF
FFFC0000003FFF
FFFC0000003FFF
FFFC0000003FFF
FFFC0000003FFF
FFFC0000003FFF
FFFC0000003FFF
FFFC0000003FFF
FFFC0000003FFF
FFFC0000003FFF
FFFC0000003FFF
FFFC0000003FFF
FFFC0000003FFF
FFFC0000003FFF
FFFC0000003FFF
FFFC0000003FFF
FFFC0000003FFF
FFFC0000003FFF
FFFC0000003FFF
FFFC0000003FFF
FFFC0000003FFF
FFFC0000003FFF
FFFC0000003FFF
FFFC0000003FFF
FFFC0000003FFF
FFFC0000003FFF
FFFC0000003FFF
FFFC0000003FFF
FFFC0000003FFF
FFFC0000003FFF
FFFC0000003FFF
FFFC0000003FFF
FFFC0000003FFF
FFFC0000003FFF
FFFC0000003FFF
FFFC0000003FFF
FFFC0000003FFF
FFFC0000003FFF
FFFC0000003FFF
FFFC0000003FFF
FFFC0000003FFF
FFFC0000003FFF
FFFC0000003FFF
FFFC0000003FFF
FFFC0000003FFF
FFFC0000003FFF
FFFC0000003FFF
FFFC0000003FFF
FFFC0000003FFF
FFFC0000003FFF
FFFC0000003FFF
FFFC0000003FFF
FFFC0000003FFF
FFFC0000003FFF
FFFC0000003FFF
FFFC0000003FFF
FFFC0000003FFF
FFFE0000007FFF
FFFE0000007FFF
FFFE000000FFFF
FFFF000000FFFF
FFFF800001FFFF
FFFFC00003FFFF
FFFFE00007FFFF
FFFFF0000FFFFF
FFFFFC003FFFFF
FFFFFF81FFFFFF
FFFFFFFFFFFFFF
FFFFFFFFFFFFFF
FFFFFFFFFFFFFF
FFFFFFFFFFFFFF
FFFFFFFFFFFFFF
FFFFFFFFFFFFFF
FFFFFFFFFFFFFF
FFFFFFFFFFFFFF
FFFFFFFFFFFFFF
FFFFFFFFFFFFFF
FFFFFFFFFFFFFF
FFFCFFFFFE3FFF
FFFC1FFFF83FFF
FFFC03FF803FFF
FFFC0000000000
FFFC0000000000
FFFC0000000000
FFFC0000000000
FFFC0000000000
FFFC0000000000
FFFC0000000000
FFFC0000000000
FFFC0000000000
FFFC0000000000
FFFC0000000000
FFFC0000000000
FFFC0000000000
FFFC0000000000
FFFC0000000000
FFFC0000000000
FFFC0000000000
FFFC0000000000
FFFC0000000000
FFFC0000000000
FFFC0000000000
ENDCHAR
STARTCHAR paragraph
ENCODING 182
SWIDTH 450 0
DWIDTH 72 0
BBX 1 1 0 0
BITMAP
00
ENDCHAR
STARTCHAR periodcentered
ENCODING 183
SWIDTH 450 0
DWIDTH 72 0
BBX 1 1 0 0
BITMAP
00
ENDCHAR
STARTCHAR cedilla
ENCODING 184
SWIDTH 450 0
DWIDTH 72 0
BBX 1 1 0 0
BITMAP
00
ENDCHAR
STARTCHAR uni00B9
ENCODING 185
SWIDTH 450 0
DWIDTH 72 0
BBX 1 1 0 0
BITMAP
00
ENDCHAR
STARTCHAR ordmasculine
ENCODING 186
SWIDTH 450 0
DWIDTH 72 0
BBX 1 1 0 0
BITMAP
00
ENDCHAR
STARTCHAR guillemotright
ENCODING 187
SWIDTH 450 0
DWIDTH 72 0
BBX 54 58 9 24
BITMAP
80000010000000
C0000018000000
E000001E000000
F800001F000000
FC00001F800000
FE00001FC00000
FF00001FF00000
FFC0001FF80000
FFE0001FFC0000
FFF0001FFE0000
FFF8001FFF8000
FFFE001FFFC000
FFFF001FFFE000
FFFF801FFFF000
7FFFC00FFFFC00
3FFFF007FFFE00
1FFFF803FFFF00
0FFFFC00FFFF80
03FFFE007FFFE0
01FFFF803FFFF0
00FFFFC01FFFF8
007FFFE00FFFFC
003FFFE003FFFC
000FFFE001FFFC
0007FFE000FFFC
0003FFE0007FFC
0001FFE0003FFC
0000FFE0000FFC
00007FE00007FC
00003FE00007FC
00007FE0000FFC
0000FFE0001FFC
0003FFE0007FFC
0007FFE000FFFC
000FFFE001FFFC
001FFFE003FFFC
007FFFE007FFFC
00FFFFC01FFFF8
01FFFF803FFFF0
03FFFF007FFFE0
0FFFFC00FFFFC0
1FFFF803FFFF00
3FFFF007FFFE00
7FFFE00FFFFC00
FFFF801FFFF800
FFFF001FFFE000
FFFE001FFFC000
FFFC001FFF8000
FFF0001FFE0000
FFE0001FFC0000
FFC0001FF80000
FF80001FF00000
FE00001FC00000
FC00001F800000
F800001F000000
F000001E000000
C0000018000000
80000010000000
ENDCHAR
STARTCHAR onequarter
ENCODING 188
SWIDTH 450 0
DWIDTH 72 0
BBX 1 1 0 0
BITMAP
00
ENDCHAR
STARTCHAR onehalf
ENCODING 189
SWIDTH 450 0
DWIDTH 72 0
BBX 1 1 0 0
BITMAP
00
ENDCHAR
STARTCHAR threequarters
ENCODING 190
SWIDTH 450 0
DWIDTH 72 0
BBX 1 1 0 0
BITMAP
00
ENDCHAR
STARTCHAR questiondown
ENCODING 191
SWIDTH 450 0
DWIDTH 72 0
BBX 1 1 0 0
BITMAP
00
ENDCHAR
STARTCHAR Agrave
ENCODING 192
SWIDTH 450 0
DWIDTH 72 0
BBX 56 136 8 0
BITMAP
0001FFF8000000
0000FFFC000000
00007FFE000000
00003FFE000000
00003FFF000000
00001FFF800000
00000FFF800000
000007FFC00000
000003FFE00000
000001FFE00000
000001FFF00000
000000FFF80000
0000007FF80000
0000003FFC0000
0000001FFE0000
0000000FFE0000
0000000FFF0000
00000007FF8000
00000003FF8000
00000001FFC000
00000000FFE000
000000007FE000
00000000000000
00000000000000
000007FFE00000
000007FFE00000
000007FFF00000
00000FFFF00000
00000FFFF00000
00000FFFF00000
00000FFFF00000
00000FFFF00000
00001FFFF80000
00001FFFF80000
00001FFFF80000
00001FFFF80000
00001FFFF80000
00001FFFFC0000
00003FFFFC0000
00003FFFFC0000
00003FFFFC0000
00003FFFFC0000
00003FFFFE0000
00007FFFFE0000
00007FFFFE0000
00007FFFFE0000
00007FFFFE0000
00007FFFFE0000
0000FFFFFF0000
0000FFFFFF0000
0000FFFFFF0000
0000FFFFFF0000
0000FFFFFF0000
0000FFFFFF8000
0001FFFFFF8000
0001FFFFFF8000
0001FFFFFF8000
0001FFFFFF8000
0001FFFFFFC000
0003FFFFFFC000
0003FFFFFFC000
0003FFFFFFC000
0003FFFFFFC000
0003FFFFFFC000
0007FFFFFFE000
0007FFE7FFE000
0007FFE7FFE000
0007FFE7FFE000
0007FFE7FFE000
0007FFE7FFF000
000FFFC3FFF000
000FFFC3FFF000
000FFFC3FFF000
000FFFC3FFF000
000FFFC3FFF800
001FFF81FFF800
001FFF81FFF800
001FFF81FFF800
001FFF81FFF800
001FFF81FFF800
003FFF00FFFC00
003FFF00FFFC00
003FFF00FFFC00
003FFF00FFFC00
003FFF00FFFC00
007FFF00FFFE00
007FFE007FFE00
007FFE007FFE00
007FFE007FFE00
007FFE007FFE00
007FFE007FFF00
00FFFC003FFF00
00FFFC003FFF00
00FFFC003FFF00
00FFFC003FFF00
00FFFC003FFF00
01FFF8001FFF80
01FFF8001FFF80
01FFF8001FFF80
01FFF8001FFF80
01FFF8001FFF80
03FFFFFFFFFFC0
03FFFFFFFFFFC0
03FFFFFFFFFFC0
03FFFFFFFFFFC0
03FFFFFFFFFFC0
03FFFFFFFFFFE0
07FFFFFFFFFFE0
07FFFFFFFFFFE0
07FFFFFFFFFFE0
07FFFFFFFFFFE0
07FFFFFFFFFFE0
0FFFFFFFFFFFF0
0FFFFFFFFFFFF0
0FFFFFFFFFFFF0
0FFFC00003FFF0
0FFFC00003FFF0
1FFF800001FFF8
1FFF800001FFF8
1FFF800001FFF8
1FFF800001FFF8
1FFF800001FFF8
1FFF800000FFF8
3FFF000000FFFC
3FFF000000FFFC
3FFF000000FFFC
3FFF000000FFFC
3FFF000000FFFC
7FFE0000007FFE
7FFE0000007FFE
7FFE0000007FFE
7FFE0000007FFE
7FFE0000007FFE
FFFC0000003FFF
FFFC0000003FFF
FFFC0000003FFF
ENDCHAR
STARTCHAR Aacute
ENCODING 193
SWIDTH 450 0
DWIDTH 72 0
BBX 56 136 8 0
BITMAP
00000007FFE000
00000007FFE000
0000000FFFC000
0000001FFF8000
0000001FFF0000
0000003FFE0000
0000007FFC0000
0000007FFC0000
000000FFF80000
000001FFF00000
000001FFE00000
000003FFC00000
000007FF800000
000007FF800000
00000FFF000000
00001FFE000000
00001FFC000000
00003FF8000000
00007FF0000000
00007FF0000000
0000FFE0000000
0001FFC0000000
00000000000000
00000000000000
000007FFE00000
000007FFE00000
000007FFF00000
00000FFFF00000
00000FFFF00000
00000FFFF00000
00000FFFF00000
00000FFFF00000
00001FFFF80000
00001FFFF80000
00001FFFF80000
00001FFFF80000
00001FFFF80000
00001FFFFC0000
00003FFFFC0000
00003FFFFC0000
00003FFFFC0000
00003FFFFC0000
00003FFFFE0000
00007FFFFE0000
00007FFFFE0000
00007FFFFE0000
00007FFFFE0000
00007FFFFE0000
0000FFFFFF0000
0000FFFFFF0000
0000FFFFFF0000
0000FFFFFF0000
0000FFFFFF0000
0000FFFFFF8000
0001FFFFFF8000
0001FFFFFF8000
0001FFFFFF8000
0001FFFFFF8000
0001FFFFFFC000
0003FFFFFFC000
0003FFFFFFC000
0003FFFFFFC000
0003FFFFFFC000
0003FFFFFFC000
0007FFFFFFE000
0007FFE7FFE000
0007FFE7FFE000
0007FFE7FFE000
0007FFE7FFE000
0007FFE7FFF000
000FFFC3FFF000
000FFFC3FFF000
000FFFC3FFF000
000FFFC3FFF000
000FFFC3FFF800
001FFF81FFF800
001FFF81FFF800
001FFF81FFF800
001FFF81FFF800
001FFF81FFF800
003FFF00FFFC00
003FFF00FFFC00
003FFF00FFFC00
003FFF00FFFC00
003FFF00FFFC00
007FFF00FFFE00
007FFE007FFE00
007FFE007FFE00
007FFE007FFE00
007FFE007FFE00
007FFE007FFF00
00FFFC003FFF00
00FFFC003FFF00
00FFFC003FFF00
00FFFC003FFF00
00FFFC003FFF00
01FFF8001FFF80
01FFF8001FFF80
01FFF8001FFF80
01FFF8001FFF80
01FFF8001FFF80
03FFFFFFFFFFC0
03FFFFFFFFFFC0
03FFFFFFFFFFC0
03FFFFFFFFFFC0
03FFFFFFFFFFC0
03FFFFFFFFFFE0
07FFFFFFFFFFE0
07FFFFFFFFFFE0
07FFFFFFFFFFE0
07FFFFFFFFFFE0
07FFFFFFFFFFE0
0FFFFFFFFFFFF0
0FFFFFFFFFFFF0
0FFFFFFFFFFFF0
0FFFC00003FFF0
0FFFC00003FFF0
1FFF800001FFF8
1FFF800001FFF8
1FFF800001FFF8
1FFF800001FFF8
1FFF800001FFF8
1FFF800000FFF8
3FFF000000FFFC
3FFF000000FFFC
3FFF000000FFFC
3FFF000000FFFC
3FFF000000FFFC
7FFE0000007FFE
7FFE0000007FFE
7FFE0000007FFE
7FFE0000007FFE
7FFE0000007FFE
FFFC0000003FFF
FFFC0000003FFF
FFFC0000003FFF
ENDCHAR
STARTCHAR Acircumflex
ENCODING 194
SWIDTH 450 0
DWIDTH 72 0
BBX 56 136 8 0
BITMAP
000007FFE00000
00000FFFF00000
00001FFFF80000
00001FFFF80000
00003FFFFC0000
00007FFFFE0000
00007FFFFE0000
0000FFFFFF0000
0001FFFFFF8000
0001FFE7FF8000
0003FFE7FFC000
0007FFC3FFE000
0007FF81FFE000
000FFF00FFF000
001FFE007FF800
001FFC003FF800
003FFC003FFC00
007FF8001FFE00
007FF0000FFE00
00FFE00007FF00
01FFC00003FF80
01FF800003FF80
00000000000000
00000000000000
000007FFE00000
000007FFE00000
000007FFF00000
00000FFFF00000
00000FFFF00000
00000FFFF00000
00000FFFF00000
00000FFFF00000
00001FFFF80000
00001FFFF80000
00001FFFF80000
00001FFFF80000
00001FFFF80000
00001FFFFC0000
00003FFFFC0000
00003FFFFC0000
00003FFFFC0000
00003FFFFC0000
00003FFFFE0000
00007FFFFE0000
00007FFFFE0000
00007FFFFE0000
00007FFFFE0000
00007FFFFE0000
0000FFFFFF0000
0000FFFFFF0000
0000FFFFFF0000
0000FFFFFF0000
0000FFFFFF0000
0000FFFFFF8000
0001FFFFFF8000
0001FFFFFF8000
0001FFFFFF8000
0001FFFFFF8000
0001FFFFFFC000
0003FFFFFFC000
0003FFFFFFC000
0003FFFFFFC000
0003FFFFFFC000
0003FFFFFFC000
0007FFFFFFE000
0007FFE7FFE000
0007FFE7FFE000
0007FFE7FFE000
0007FFE7FFE000
0007FFE7FFF000
000FFFC3FFF000
000FFFC3FFF000
000FFFC3FFF000
000FFFC3FFF000
000FFFC3FFF800
001FFF81FFF800
001FFF81FFF800
001FFF81FFF800
001FFF81FFF800
001FFF81FFF800
003FFF00FFFC00
003FFF00FFFC00
003FFF00FFFC00
003FFF00FFFC00
003FFF00FFFC00
007FFF00FFFE00
007FFE007FFE00
007FFE007FFE00
007FFE007FFE00
007FFE007FFE00
007FFE007FFF00
00FFFC003FFF00
00FFFC003FFF00
00FFFC003FFF00
00FFFC003FFF00
00FFFC003FFF00
01FFF8001FFF80
01FFF8001FFF80
01FFF8001FFF80
01FFF8001FFF80
01FFF8001FFF80
03FFFFFFFFFFC0
03FFFFFFFFFFC0
03FFFFFFFFFFC0
03FFFFFFFFFFC0
03FFFFFFFFFFC0
03FFFFFFFFFFE0
07FFFFFFFFFFE0
07FFFFFFFFFFE0
07FFFFFFFFFFE0
07FFFFFFFFFFE0
07FFFFFFFFFFE0
0FFFFFFFFFFFF0
0FFFFFFFFFFFF0
0FFFFFFFFFFFF0
0FFFC00003FFF0
0FFFC00003FFF0
1FFF800001FFF8
1FFF800001FFF8
1FFF800001FFF8
1FFF800001FFF8
1FFF800001FFF8
1FFF800000FFF8
3FFF000000FFFC
3FFF000000FFFC
3FFF000000FFFC
3FFF000000FFFC
3FFF000000FFFC
7FFE0000007FFE
7FFE0000007FFE
7FFE0000007FFE
7FFE0000007FFE
7FFE0000007FFE
FFFC0000003FFF
FFFC0000003FFF
FFFC0000003FFF
ENDCHAR
STARTCHAR Atilde
ENCODING 195
SWIDTH 450 0
DWIDTH 72 0
BBX 1 1 0 0
BITMAP
00
ENDCHAR
STARTCHAR Adieresis
ENCODING 196
SWIDTH 450 0
DWIDTH 72 0
BBX 56 136 8 0
BITMAP
000038001E0000
0001FE007F8000
0003FF00FFC000
0007FF81FFE000
0007FFC3FFE000
000FFFC3FFF000
000FFFC3FFF000
000FFFC3FFF000
000FFFC3FFF000
000FFFC3FFF000
0007FF83FFE000
0007FF81FFE000
0003FF00FFC000
0001FE007F8000
000030000C0000
00000000000000
00000000000000
00000000000000
00000000000000
00000000000000
00000000000000
00000000000000
00000000000000
00000000000000
000007FFE00000
000007FFE00000
000007FFF00000
00000FFFF00000
00000FFFF00000
00000FFFF00000
00000FFFF00000
00000FFFF00000
00001FFFF80000
00001FFFF80000
00001FFFF80000
00001FFFF80000
00001FFFF80000
00001FFFFC0000
00003FFFFC0000
00003FFFFC0000
00003FFFFC0000
00003FFFFC0000
00003FFFFE0000
00007FFFFE0000
00007FFFFE0000
00007FFFFE0000
00007FFFFE0000
00007FFFFE0000
0000FFFFFF0000
0000FFFFFF0000
0000FFFFFF0000
0000FFFFFF0000
0000FFFFFF0000
0000FFFFFF8000
0001FFFFFF8000
0001FFFFFF8000
0001FFFFFF8000
0001FFFFFF8000
0001FFFFFFC000
0003FFFFFFC000
0003FFFFFFC000
0003FFFFFFC000
0003FFFFFFC000
0003FFFFFFC000
0007FFFFFFE000
0007FFE7FFE000
0007FFE7FFE000
0007FFE7FFE000
0007FFE7FFE000
0007FFE7FFF000
000FFFC3FFF000
000FFFC3FFF000
000FFFC3FFF000
000FFFC3FFF000
000FFFC3FFF800
001FFF81FFF800
001FFF81FFF800
001FFF81FFF800
001FFF81FFF800
001FFF81FFF800
003FFF00FFFC00
003FFF00FFFC00
003FFF00FFFC00
003FFF00FFFC00
003FFF00FFFC00
007FFF00FFFE00
007FFE007FFE00
007FFE007FFE00
007FFE007FFE00
007FFE007FFE00
007FFE007FFF00
00FFFC003FFF00
00FFFC003FFF00
00FFFC003FFF00
00FFFC003FFF00
00FFFC003FFF00
01FFF8001FFF80
01FFF8001FFF80
01FFF8001FFF80
01FFF8001FFF80
01FFF8001FFF80
03FFFFFFFFFFC0
03FFFFFFFFFFC0
03FFFFFFFFFFC0
03FFFFFFFFFFC0
03FFFFFFFFFFC0
03FFFFFFFFFFE0
07FFFFFFFFFFE0
07FFFFFFFFFFE0
07FFFFFFFFFFE0
07FFFFFFFFFFE0
07FFFFFFFFFFE0
0FFFFFFFFFFFF0
0FFFFFFFFFFFF0
0FFFFFFFFFFFF0
0FFFC00003FFF0
0FFFC00003FFF0
1FFF800001FFF8
1FFF800001FFF8
1FFF800001FFF8
1FFF800001FFF8
1FFF800001FFF8
1FFF800000FFF8
3FFF000000FFFC
3FFF000000FFFC
3FFF000000FFFC
3FFF000000FFFC
3FFF000000FFFC
7FFE0000007FFE
7FFE0000007FFE
7FFE0000007FFE
7FFE0000007FFE
7FFE0000007FFE
FFFC0000003FFF
FFFC0000003FFF
FFFC0000003FFF
ENDCHAR
STARTCHAR Aring
ENCODING 197
SWIDTH 450 0
DWIDTH 72 0
BBX 1 1 0 0
BITMAP
00
ENDCHAR
STARTCHAR AE
ENCODING 198
SWIDTH 450 0
DWIDTH 72 0
BBX 96 112 -12 0
BITMAP
0000000000FFFFFFFFFFFFFF
0000000000FFFFFFFFFFFFFF
0000000001FFFFFFFFFFFFFF
0000000001FFFFFFFFFFFFFF
0000000001FFFFFFFFFFFFFF
0000000003FFFFFFFFFFFFFF
0000000003FFFFFFFFFFFFFF
0000000003FFFFFFFFFFFFFF
0000000007FFFFFFFFFFFFFF
0000000007FFFFFFFFFFFFFF
000000000FFFFFFFFFFFFFFF
000000000FFFFFFFFFFFFFFF
000000000FFFFFFFFFFFFFFF
000000001FFFFFFFFFFFFFFF
000000001FFFFFFFFFFFFFFF
000000001FFFFFFFFFFFFFFF
000000003FFFFFFF00000000
000000003FFFFFFF00000000
000000003FFFFFFF00000000
000000007FFFFFFF00000000
000000007FFFFFFF00000000
000000007FFFFFFF00000000
00000000FFFFFFFF00000000
00000000FFFFFFFF00000000
00000001FFFCFFFF00000000
00000001FFF8FFFF00000000
00000001FFF8FFFF00000000
00000003FFF8FFFF00000000
00000003FFF0FFFF00000000
00000003FFF0FFFF00000000
00000007FFF0FFFF00000000
00000007FFE0FFFF00000000
00000007FFE0FFFF00000000
0000000FFFE0FFFF00000000
0000000FFFC0FFFF00000000
0000000FFFC0FFFF00000000
0000001FFFC0FFFF00000000
0000001FFF80FFFF00000000
0000003FFF80FFFF00000000
0000003FFF80FFFF00000000
0000003FFF00FFFF00000000
0000007FFF00FFFF00000000
0000007FFF00FFFF00000000
0000007FFE00FFFF00000000
000000FFFE00FFFF00000000
000000FFFE00FFFF00000000
000000FFFC00FFFF00000000
000001FFFC00FFFF00000000
000001FFFC00FFFFFFFFFF00
000003FFF800FFFFFFFFFF00
000003FFF800FFFFFFFFFF00
000003FFF800FFFFFFFFFF00
000007FFF000FFFFFFFFFF00
000007FFF000FFFFFFFFFF00
000007FFF000FFFFFFFFFF00
00000FFFE000FFFFFFFFFF00
00000FFFE000FFFFFFFFFF00
00000FFFE000FFFFFFFFFF00
00001FFFC000FFFFFFFFFF00
00001FFFC000FFFFFFFFFF00
00001FFFC000FFFFFFFFFF00
00003FFF8000FFFFFFFFFF00
00003FFF8000FFFFFFFFFF00
00007FFF8000FFFFFFFFFF00
00007FFF0000FFFF00000000
00007FFF0000FFFF00000000
0000FFFF0000FFFF00000000
0000FFFE0000FFFF00000000
0000FFFE0000FFFF00000000
0001FFFE0000FFFF00000000
0001FFFC0000FFFF00000000
0001FFFC0000FFFF00000000
0003FFFFFFFFFFFF00000000
0003FFFFFFFFFFFF00000000
0003FFFFFFFFFFFF00000000
0007FFFFFFFFFFFF00000000
0007FFFFFFFFFFFF00000000
000FFFFFFFFFFFFF00000000
000FFFFFFFFFFFFF00000000
000FFFFFFFFFFFFF00000000
001FFFFFFFFFFFFF00000000
001FFFFFFFFFFFFF00000000
001FFFFFFFFFFFFF00000000
003FFFFFFFFFFFFF00000000
003FFFFFFFFFFFFF00000000
003FFFFFFFFFFFFF00000000
007FFFFFFFFFFFFF00000000
007FFFFFFFFFFFFF00000000
007FFF000000FFFF00000000
00FFFE000000FFFF00000000
00FFFE000000FFFF00000000
01FFFE000000FFFF00000000
01FFFC000000FFFF00000000
01FFFC000000FFFF00000000
03FFFC000000FFFF00000000
03FFF8000000FFFF00000000
03FFF8000000FFFFFFFFFFFF
07FFF8000000FFFFFFFFFFFF
07FFF0000000FFFFFFFFFFFF
07FFF0000000FFFFFFFFFFFF
0FFFF0000000FFFFFFFFFFFF
0FFFE0000000FFFFFFFFFFFF
0FFFE0000000FFFFFFFFFFFF
1FFFE0000000FFFFFFFFFFFF
1FFFC0000000FFFFFFFFFFFF
3FFFC0000000FFFFFFFFFFFF
3FFFC0000000FFFFFFFFFFFF
3FFF80000000FFFFFFFFFFFF
7FFF80000000FFFFFFFFFFFF
7FFF80000000FFFFFFFFFFFF
7FFF00000000FFFFFFFFFFFF
FFFF00000000FFFFFFFFFFFF
ENDCHAR
STARTCHAR Ccedilla
ENCODING 199
SWIDTH 450 0
DWIDTH 72 0
BBX 1 1 0 0
BITMAP
00
ENDCHAR
STARTCHAR Egrave
ENCODING 200
SWIDTH 450 0
DWIDTH 72 0
BBX 56 136 8 0
BITMAP
0001FFF8000000
0000FFFC000000
00007FFE000000
00003FFE000000
00003FFF000000
00001FFF800000
00000FFF800000
000007FFC00000
000003FFE00000
000001FFE00000
000001FFF00000
000000FFF80000
0000007FF80000
0000003FFC0000
0000001FFE0000
0000000FFE0000
0000000FFF0000
00000007FF8000
00000003FF8000
00000001FFC000
00000000FFE000
000000007FE000
00000000000000
00000000000000
FFFFFFFFFFFFFF
FFFFFFFFFFFFFF
FFFFFFFFFFFFFF
FFFFFFFFFFFFFF
FFFFFFFFFFFFFF
FFFFFFFFFFFFFF
FFFFFFFFFFFFFF
FFFFFFFFFFFFFF
FFFFFFFFFFFFFF
FFFFFFFFFFFFFF
FFFFFFFFFFFFFF
FFFFFFFFFFFFFF
FFFFFFFFFFFFFF
FFFFFFFFFFFFFF
FFFC0000000000
FFFC0000000000
FFFC0000000000
FFFC0000000000
FFFC0000000000
FFFC0000000000
FFFC0000000000
FFFC0000000000
FFFC0000000000
FFFC0000000000
FFFC0000000000
FFFC0000000000
FFFC0000000000
FFFC0000000000
FFFC0000000000
FFFC0000000000
FFFC0000000000
FFFC0000000000
FFFC0000000000
FFFC0000000000
FFFC0000000000
FFFC0000000000
FFFC0000000000
FFFC0000000000
FFFC0000000000
FFFC0000000000
FFFC0000000000
FFFC0000000000
FFFC0000000000
FFFC0000000000
FFFC0000000000
FFFC0000000000
FFFC0000000000
FFFC0000000000
FFFC0000000000
FFFFFFFFFFC000
FFFFFFFFFFC000
FFFFFFFFFFC000
FFFFFFFFFFC000
FFFFFFFFFFC000
FFFFFFFFFFC000
FFFFFFFFFFC000
FFFFFFFFFFC000
FFFFFFFFFFC000
FFFFFFFFFFC000
FFFFFFFFFFC000
FFFFFFFFFFC000
FFFFFFFFFFC000
FFFFFFFFFFC000
FFFC0000000000
FFFC0000000000
FFFC0000000000
FFFC0000000000
FFFC0000000000
FFFC0000000000
FFFC0000000000
FFFC0000000000
FFFC0000000000
FFFC0000000000
FFFC0000000000
FFFC0000000000
FFFC0000000000
FFFC0000000000
FFFC0000000000
FFFC0000000000
FFFC0000000000
FFFC0000000000
FFFC0000000000
FFFC0000000000
FFFC0000000000
FFFC0000000000
FFFC0000000000
FFFC0000000000
FFFC0000000000
FFFC0000000000
FFFC0000000000
FFFC0000000000
FFFC0000000000
FFFC0000000000
FFFC0000000000
FFFC0000000000
FFFC0000000000
FFFC0000000000
FFFC0000000000
FFFFFFFFFFFFFF
FFFFFFFFFFFFFF
FFFFFFFFFFFFFF
FFFFFFFFFFFFFF
FFFFFFFFFFFFFF
FFFFFFFFFFFFFF
FFFFFFFFFFFFFF
FFFFFFFFFFFFFF
FFFFFFFFFFFFFF
FFFFFFFFFFFFFF
FFFFFFFFFFFFFF
FFFFFFFFFFFFFF
FFFFFFFFFFFFFF
FFFFFFFFFFFFFF
ENDCHAR
STARTCHAR Eacute
ENCODING 201
SWIDTH 450 0
DWIDTH 72 0
BBX 56 136 8 0
BITMAP
00000007FFE000
00000007FFE000
0000000FFFC000
0000001FFF8000
0000001FFF0000
0000003FFE0000
0000007FFC0000
0000007FFC0000
000000FFF80000
000001FFF00000
000001FFE00000
000003FFC00000
000007FF800000
000007FF800000
00000FFF000000
00001FFE000000
00001FFC000000
00003FF8000000
00007FF0000000
00007FF0000000
0000FFE0000000
0001FFC0000000
00000000000000
00000000000000
FFFFFFFFFFFFFF
FFFFFFFFFFFFFF
FFFFFFFFFFFFFF
FFFFFFFFFFFFFF
FFFFFFFFFFFFFF
FFFFFFFFFFFFFF
FFFFFFFFFFFFFF
FFFFFFFFFFFFFF
FFFFFFFFFFFFFF
FFFFFFFFFFFFFF
FFFFFFFFFFFFFF
FFFFFFFFFFFFFF
FFFFFFFFFFFFFF
FFFFFFFFFFFFFF
FFFC0000000000
FFFC0000000000
FFFC0000000000
FFFC0000000000
FFFC0000000000
FFFC0000000000
FFFC0000000000
FFFC0000000000
FFFC0000000000
FFFC0000000000
FFFC0000000000
FFFC0000000000
FFFC0000000000
FFFC0000000000
FFFC0000000000
FFFC0000000000
FFFC0000000000
FFFC0000000000
FFFC0000000000
FFFC0000000000
FFFC0000000000
FFFC0000000000
FFFC0000000000
FFFC0000000000
FFFC0000000000
FFFC0000000000
FFFC0000000000
FFFC0000000000
FFFC0000000000
FFFC0000000000
FFFC0000000000
FFFC0000000000
FFFC0000000000
FFFC0000000000
FFFC0000000000
FFFFFFFFFFC000
FFFFFFFFFFC000
FFFFFFFFFFC000
FFFFFFFFFFC000
FFFFFFFFFFC000
FFFFFFFFFFC000
FFFFFFFFFFC000
FFFFFFFFFFC000
FFFFFFFFFFC000
FFFFFFFFFFC000
FFFFFFFFFFC000
FFFFFFFFFFC000
FFFFFFFFFFC000
FFFFFFFFFFC000
FFFC0000000000
FFFC0000000000
FFFC0000000000
FFFC0000000000
FFFC0000000000
FFFC0000000000
FFFC0000000000
FFFC0000000000
FFFC0000000000
FFFC0000000000
FFFC0000000000
FFFC0000000000
FFFC0000000000
FFFC0000000000
FFFC0000000000
FFFC0000000000
FFFC0000000000
FFFC0000000000
FFFC0000000000
FFFC0000000000
FFFC0000000000
FFFC0000000000
FFFC0000000000
FFFC0000000000
FFFC0000000000
FFFC0000000000
FFFC0000000000
FFFC0000000000
FFFC0000000000
FFFC0000000000
FFFC0000000000
FFFC0000000000
FFFC0000000000
FFFC0000000000
FFFC0000000000
FFFFFFFFFFFFFF
FFFFFFFFFFFFFF
FFFFFFFFFFFFFF
FFFFFFFFFFFFFF
FFFFFFFFFFFFFF
FFFFFFFFFFFFFF
FFFFFFFFFFFFFF
FFFFFFFFFFFFFF
FFFFFFFFFFFFFF
FFFFFFFFFFFFFF
FFFFFFFFFFFFFF
FFFFFFFFFFFFFF
FFFFFFFFFFFFFF
FFFFFFFFFFFFFF
ENDCHAR
STARTCHAR Ecircumflex
ENCODING 202
SWIDTH 450 0
DWIDTH 72 0
BBX 56 136 8 0
BITMAP
000007FFE00000
00000FFFF00000
00001FFFF80000
00001FFFF80000
00003FFFFC0000
00007FFFFE0000
00007FFFFE0000
0000FFFFFF0000
0001FFFFFF8000
0001FFE7FF8000
0003FFE7FFC000
0007FFC3FFE000
0007FF81FFE000
000FFF00FFF000
001FFE007FF800
001FFC003FF800
003FFC003FFC00
007FF8001FFE00
007FF0000FFE00
00FFE00007FF00
01FFC00003FF80
01FF800003FF80
00000000000000
00000000000000
FFFFFFFFFFFFFF
FFFFFFFFFFFFFF
FFFFFFFFFFFFFF
FFFFFFFFFFFFFF
FFFFFFFFFFFFFF
FFFFFFFFFFFFFF
FFFFFFFFFFFFFF
FFFFFFFFFFFFFF
FFFFFFFFFFFFFF
FFFFFFFFFFFFFF
FFFFFFFFFFFFFF
FFFFFFFFFFFFFF
FFFFFFFFFFFFFF
FFFFFFFFFFFFFF
FFFC0000000000
FFFC0000000000
FFFC0000000000
FFFC0000000000
FFFC0000000000
FFFC0000000000
FFFC0000000000
FFFC0000000000
FFFC0000000000
FFFC0000000000
FFFC0000000000
FFFC0000000000
FFFC0000000000
FFFC0000000000
FFFC0000000000
FFFC0000000000
FFFC0000000000
FFFC0000000000
FFFC0000000000
FFFC0000000000
FFFC0000000000
FFFC0000000000
FFFC0000000000
FFFC0000000000
FFFC0000000000
FFFC0000000000
FFFC0000000000
FFFC0000000000
FFFC0000000000
FFFC0000000000
FFFC0000000000
FFFC0000000000
FFFC0000000000
FFFC0000000000
FFFC0000000000
FFFFFFFFFFC000
FFFFFFFFFFC000
FFFFFFFFFFC000
FFFFFFFFFFC000
FFFFFFFFFFC000
FFFFFFFFFFC000
FFFFFFFFFFC000
FFFFFFFFFFC000
FFFFFFFFFFC000
FFFFFFFFFFC000
FFFFFFFFFFC000
FFFFFFFFFFC000
FFFFFFFFFFC000
FFFFFFFFFFC000
FFFC0000000000
FFFC0000000000
FFFC0000000000
FFFC0000000000
FFFC0000000000
FFFC0000000000
FFFC0000000000
FFFC0000000000
FFFC0000000000
FFFC0000000000
FFFC0000000000
FFFC0000000000
FFFC0000000000
FFFC0000000000
FFFC0000000000
FFFC0000000000
FFFC0000000000
FFFC0000000000
FFFC0000000000
FFFC0000000000
FFFC0000000000
FFFC0000000000
FFFC0000000000
FFFC0000000000
FFFC0000000000
FFFC0000000000
FFFC0000000000
FFFC0000000000
FFFC0000000000
FFFC0000000000
FFFC0000000000
FFFC0000000000
FFFC0000000000
FFFC0000000000
FFFC0000000000
FFFFFFFFFFFFFF
FFFFFFFFFFFFFF
FFFFFFFFFFFFFF
FFFFFFFFFFFFFF
FFFFFFFFFFFFFF
FFFFFFFFFFFFFF
FFFFFFFFFFFFFF
FFFFFFFFFFFFFF
FFFFFFFFFFFFFF
FFFFFFFFFFFFFF
FFFFFFFFFFFFFF
FFFFFFFFFFFFFF
FFFFFFFFFFFFFF
FFFFFFFFFFFFFF
ENDCHAR
STARTCHAR Edieresis
ENCODING 203
SWIDTH 450 0
DWIDTH 72 0
BBX 56 136 8 0
BITMAP
000038001E0000
0001FE007F8000
0003FF00FFC000
0007FF81FFE000
0007FFC3FFE000
000FFFC3FFF000
000FFFC3FFF000
000FFFC3FFF000
000FFFC3FFF000
000FFFC3FFF000
0007FF83FFE000
0007FF81FFE000
0003FF00FFC000
0001FE007F8000
000030000C0000
00000000000000
00000000000000
00000000000000
00000000000000
00000000000000
00000000000000
00000000000000
00000000000000
00000000000000
FFFFFFFFFFFFFF
FFFFFFFFFFFFFF
FFFFFFFFFFFFFF
FFFFFFFFFFFFFF
FFFFFFFFFFFFFF
FFFFFFFFFFFFFF
FFFFFFFFFFFFFF
FFFFFFFFFFFFFF
FFFFFFFFFFFFFF
FFFFFFFFFFFFFF
FFFFFFFFFFFFFF
FFFFFFFFFFFFFF
FFFFFFFFFFFFFF
FFFFFFFFFFFFFF
FFFC0000000000
FFFC0000000000
FFFC0000000000
FFFC0000000000
FFFC0000000000
FFFC0000000000
FFFC0000000000
FFFC0000000000
FFFC0000000000
FFFC0000000000
FFFC0000000000
FFFC0000000000
FFFC0000000000
FFFC0000000000
FFFC0000000000
FFFC0000000000
FFFC0000000000
FFFC0000000000
FFFC0000000000
FFFC0000000000
FFFC0000000000
FFFC0000000000
FFFC0000000000
FFFC0000000000
FFFC0000000000
FFFC0000000000
FFFC0000000000
FFFC0000000000
FFFC0000000000
FFFC0000000000
FFFC0000000000
FFFC0000000000
FFFC0000000000
FFFC0000000000
FFFC0000000000
FFFFFFFFFFC000
FFFFFFFFFFC000
FFFFFFFFFFC000
FFFFFFFFFFC000
FFFFFFFFFFC000
FFFFFFFFFFC000
FFFFFFFFFFC000
FFFFFFFFFFC000
FFFFFFFFFFC000
FFFFFFFFFFC000
FFFFFFFFFFC000
FFFFFFFFFFC000
FFFFFFFFFFC000
FFFFFFFFFFC000
FFFC0000000000
FFFC0000000000
FFFC0000000000
FFFC0000000000
FFFC0000000000
FFFC0000000000
FFFC0000000000
FFFC0000000000
FFFC0000000000
FFFC0000000000
FFFC0000000000
FFFC0000000000
FFFC0000000000
FFFC0000000000
FFFC0000000000
FFFC0000000000
FFFC0000000000
FFFC0000000000
FFFC0000000000
FFFC0000000000
FFFC0000000000
FFFC0000000000
FFFC0000000000
FFFC0000000000
FFFC0000000000
FFFC0000000000
FFFC0000000000
FFFC0000000000
FFFC0000000000
FFFC0000000000
FFFC0000000000
FFFC0000000000
FFFC0000000000
FFFC0000000000
FFFC0000000000
FFFFFFFFFFFFFF
FFFFFFFFFFFFFF
FFFFFFFFFFFFFF
FFFFFFFFFFFFFF
FFFFFFFFFFFFFF
FFFFFFFFFFFFFF
FFFFFFFFFFFFFF
FFFFFFFFFFFFFF
FFFFFFFFFFFFFF
FFFFFFFFFFFFFF
FFFFFFFFFFFFFF
FFFFFFFFFFFFFF
FFFFFFFFFFFFFF
FFFFFFFFFFFFFF
ENDCHAR
STARTCHAR Igrave
ENCODING 204
SWIDTH 450 0
DWIDTH 72 0
BBX 28 136 23 0
BITMAP
FFFC0000
7FFE0000
3FFF0000
1FFF0000
1FFF8000
0FFFC000
07FFC000
03FFE000
01FFF000
00FFF000
00FFF800
007FFC00
003FFC00
001FFE00
000FFF00
0007FF00
0007FF80
0003FFC0
0001FFC0
0000FFE0
00007FF0
00003FF0
00000000
00000000
03FFF000
03FFF000
03FFF000
03FFF000
03FFF000
03FFF000
03FFF000
03FFF000
03FFF000
03FFF000
03FFF000
03FFF000
03FFF000
03FFF000
03FFF000
03FFF000
03FFF000
03FFF000
03FFF000
03FFF000
03FFF000
03FFF000
03FFF000
03FFF000
03FFF000
03FFF000
03FFF000
03FFF000
03FFF000
03FFF000
03FFF000
03FFF000
03FFF000
03FFF000
03FFF000
03FFF000
03FFF000
03FFF000
03FFF000
03FFF000
03FFF000
03FFF000
03FFF000
03FFF000
03FFF000
03FFF000
03FFF000
03FFF000
03FFF000
03FFF000
03FFF000
03FFF000
03FFF000
03FFF000
03FFF000
03FFF000
03FFF000
03FFF000
03FFF000
03FFF000
03FFF000
03FFF000
03FFF000
03FFF000
03FFF000
03FFF000
03FFF000
03FFF000
03FFF000
03FFF000
03FFF000
03FFF000
03FFF000
03FFF000
03FFF000
03FFF000
03FFF000
03FFF000
03FFF000
03FFF000
03FFF000
03FFF000
03FFF000
03FFF000
03FFF000
03FFF000
03FFF000
03FFF000
03FFF000
03FFF000
03FFF000
03FFF000
03FFF000
03FFF000
03FFF000
03FFF000
03FFF000
03FFF000
03FFF000
03FFF000
03FFF000
03FFF000
03FFF000
03FFF000
03FFF000
03FFF000
03FFF000
03FFF000
03FFF000
03FFF000
03FFF000
03FFF000
ENDCHAR
STARTCHAR Iacute
ENCODING 205
SWIDTH 450 0
DWIDTH 72 0
BBX 28 136 23 0
BITMAP
0003FFF0
0003FFF0
0007FFE0
000FFFC0
000FFF80
001FFF00
003FFE00
003FFE00
007FFC00
00FFF800
00FFF000
01FFE000
03FFC000
03FFC000
07FF8000
0FFF0000
0FFE0000
1FFC0000
3FF80000
3FF80000
7FF00000
FFE00000
00000000
00000000
03FFF000
03FFF000
03FFF000
03FFF000
03FFF000
03FFF000
03FFF000
03FFF000
03FFF000
03FFF000
03FFF000
03FFF000
03FFF000
03FFF000
03FFF000
03FFF000
03FFF000
03FFF000
03FFF000
03FFF000
03FFF000
03FFF000
03FFF000
03FFF000
03FFF000
03FFF000
03FFF000
03FFF000
03FFF000
03FFF000
03FFF000
03FFF000
03FFF000
03FFF000
03FFF000
03FFF000
03FFF000
03FFF000
03FFF000
03FFF000
03FFF000
03FFF000
03FFF000
03FFF000
03FFF000
03FFF000
03FFF000
03FFF000
03FFF000
03FFF000
03FFF000
03FFF000
03FFF000
03FFF000
03FFF000
03FFF000
03FFF000
03FFF000
03FFF000
03FFF000
03FFF000
03FFF000
03FFF000
03FFF000
03FFF000
03FFF000
03FFF000
03FFF000
03FFF000
03FFF000
03FFF000
03FFF000
03FFF000
03FFF000
03FFF000
03FFF000
03FFF000
03FFF000
03FFF000
03FFF000
03FFF000
03FFF000
03FFF000
03FFF000
03FFF000
03FFF000
03FFF000
03FFF000
03FFF000
03FFF000
03FFF000
03FFF000
03FFF000
03FFF000
03FFF000
03FFF000
03FFF000
03FFF000
03FFF000
03FFF000
03FFF000
03FFF000
03FFF000
03FFF000
03FFF000
03FFF000
03FFF000
03FFF000
03FFF000
03FFF000
03FFF000
03FFF000
ENDCHAR
STARTCHAR Icircumflex
ENCODING 206
SWIDTH 450 0
DWIDTH 72 0
BBX 42 136 15 0
BITMAP
0003FFF00000
0007FFF80000
000FFFFC0000
000FFFFC0000
001FFFFE0000
003FFFFF0000
003FFFFF0000
007FFFFF8000
00FFFFFFC000
00FFF3FFC000
01FFF3FFE000
03FFE1FFF000
03FFC0FFF000
07FF807FF800
0FFF003FFC00
0FFE001FFC00
1FFE001FFE00
3FFC000FFF00
3FF80007FF00
7FF00003FF80
FFE00001FFC0
FFC00001FFC0
000000000000
000000000000
0003FFF00000
0003FFF00000
0003FFF00000
0003FFF00000
0003FFF00000
0003FFF00000
0003FFF00000
0003FFF00000
0003FFF00000
0003FFF00000
0003FFF00000
0003FFF00000
0003FFF00000
0003FFF00000
0003FFF00000
0003FFF00000
0003FFF00000
0003FFF00000
0003FFF00000
0003FFF00000
0003FFF00000
0003FFF00000
0003FFF00000
0003FFF00000
0003FFF00000
0003FFF00000
0003FFF00000
0003FFF00000
0003FFF00000
0003FFF00000
0003FFF00000
0003FFF00000
0003FFF00000
0003FFF00000
0003FFF00000
0003FFF00000
0003FFF00000
0003FFF00000
0003FFF00000
0003FFF00000
0003FFF00000
0003FFF00000
0003FFF00000
0003FFF00000
0003FFF00000
0003FFF00000
0003FFF00000
0003FFF00000
0003FFF00000
0003FFF00000
0003FFF00000
0003FFF00000
0003FFF00000
0003FFF00000
0003FFF00000
0003FFF00000
0003FFF00000
0003FFF00000
0003FFF00000
0003FFF00000
0003FFF00000
0003FFF00000
0003FFF00000
0003FFF00000
0003FFF00000
0003FFF00000
0003FFF00000
0003FFF00000
0003FFF00000
0003FFF00000
0003FFF00000
0003FFF00000
0003FFF00000
0003FFF00000
0003FFF00000
0003FFF00000
0003FFF00000
0003FFF00000
0003FFF00000
0003FFF00000
0003FFF00000
0003FFF00000
0003FFF00000
0003FFF00000
0003FFF00000
0003FFF00000
0003FFF00000
0003FFF00000
0003FFF00000
0003FFF00000
0003FFF00000
0003FFF00000
0003FFF00000
0003FFF00000
0003FFF00000
0003FFF00000
0003FFF00000
0003FFF00000
0003FFF00000
0003FFF00000
0003FFF00000
0003FFF00000
0003FFF00000
0003FFF00000
0003FFF00000
0003FFF00000
0003FFF00000
0003FFF00000
0003FFF00000
0003FFF00000
0003FFF00000
0003FFF00000
ENDCHAR
STARTCHAR Idieresis
ENCODING 207
SWIDTH 450 0
DWIDTH 72 0
BBX 32 136 20 0
BITMAP
038001E0
1FE007F8
3FF00FFC
7FF81FFE
7FFC3FFE
FFFC3FFF
FFFC3FFF
FFFC3FFF
FFFC3FFF
FFFC3FFF
7FF83FFE
7FF81FFE
3FF00FFC
1FE007F8
030000C0
00000000
00000000
00000000
00000000
00000000
00000000
00000000
00000000
00000000
007FFE00
007FFE00
007FFE00
007FFE00
007FFE00
007FFE00
007FFE00
007FFE00
007FFE00
007FFE00
007FFE00
007FFE00
007FFE00
007FFE00
007FFE00
007FFE00
007FFE00
007FFE00
007FFE00
007FFE00
007FFE00
007FFE00
007FFE00
007FFE00
007FFE00
007FFE00
007FFE00
007FFE00
007FFE00
007FFE00
007FFE00
007FFE00
007FFE00
007FFE00
007FFE00
007FFE00
007FFE00
007FFE00
007FFE00
007FFE00
007FFE00
007FFE00
007FFE00
007FFE00
007FFE00
007FFE00
007FFE00
007FFE00
007FFE00
007FFE00
007FFE00
007FFE00
007FFE00
007FFE00
007FFE00
007FFE00
007FFE00
007FFE00
007FFE00
007FFE00
007FFE00
007FFE00
007FFE00
007FFE00
007FFE00
007FFE00
007FFE00
007FFE00
007FFE00
007FFE00
007FFE00
007FFE00
007FFE00
007FFE00
007FFE00
007FFE00
007FFE00
007FFE00
007FFE00
007FFE00
007FFE00
007FFE00
007FFE00
007FFE00
007FFE00
007FFE00
007FFE00
007FFE00
007FFE00
007FFE00
007FFE00
007FFE00
007FFE00
007FFE00
007FFE00
007FFE00
007FFE00
007FFE00
007FFE00
007FFE00
007FFE00
007FFE00
007FFE00
007FFE00
007FFE00
007FFE00
007FFE00
007FFE00
007FFE00
007FFE00
007FFE00
007FFE00
ENDCHAR
STARTCHAR Eth
ENCODING 208
SWIDTH 450 0
DWIDTH 72 0
BBX 1 1 0 0
BITMAP
00
ENDCHAR
STARTCHAR Ntilde
ENCODING 209
SWIDTH 450 0
DWIDTH 72 0
BBX 1 1 0 0
BITMAP
00
ENDCHAR
STARTCHAR Ograve
ENCODING 210
SWIDTH 450 0
DWIDTH 72 0
BBX 56 136 8 0
BITMAP
0001FFF8000000
0000FFFC000000
00007FFE000000
00003FFE000000
00003FFF000000
00001FFF800000
00000FFF800000
000007FFC00000
000003FFE00000
000001FFE00000
000001FFF00000
000000FFF80000
0000007FF80000
0000003FFC0000
0000001FFE0000
0000000FFE0000
0000000FFF0000
00000007FF8000
00000003FF8000
00000001FFC000
00000000FFE000
000000007FE000
00000000000000
00000000000000
000001FF800000
00001FFFF80000
00007FFFFE0000
0001FFFFFF8000
0007FFFFFFE000
000FFFFFFFF800
003FFFFFFFFC00
007FFFFFFFFE00
00FFFFFFFFFF00
01FFFFFFFFFF80
03FFFFFFFFFFC0
07FFFFFFFFFFE0
07FFFFFFFFFFE0
0FFFFFFFFFFFF0
1FFFFF01FFFFF8
1FFFFC003FFFF8
3FFFF0000FFFFC
3FFFE00007FFFC
3FFFC00003FFFC
7FFF800001FFFE
7FFF000000FFFE
7FFF000000FFFE
FFFE0000007FFF
FFFE0000007FFF
FFFC0000007FFF
FFFC0000003FFF
FFFC0000003FFF
FFFC0000003FFF
FFFC0000003FFF
FFFC0000003FFF
FFFC0000003FFF
FFFC0000003FFF
FFFC0000003FFF
FFFC0000003FFF
FFFC0000003FFF
FFFC0000003FFF
FFFC0000003FFF
FFFC0000003FFF
FFFC0000003FFF
FFFC0000003FFF
FFFC0000003FFF
FFFC0000003FFF
FFFC0000003FFF
FFFC0000003FFF
FFFC0000003FFF
FFFC0000003FFF
FFFC0000003FFF
FFFC0000003FFF
FFFC0000003FFF
FFFC0000003FFF
FFFC0000003FFF
FFFC0000003FFF
FFFC0000003FFF
FFFC0000003FFF
FFFC0000003FFF
FFFC0000003FFF
FFFC0000003FFF
FFFC0000003FFF
FFFC0000003FFF
FFFC0000003FFF
FFFC0000003FFF
FFFC0000003FFF
FFFC0000003FFF
FFFC0000003FFF
FFFC0000003FFF
FFFC0000003FFF
FFFC0000003FFF
FFFC0000003FFF
FFFC0000003FFF
FFFC0000003FFF
FFFC0000003FFF
FFFC0000003FFF
FFFC0000003FFF
FFFC0000003FFF
FFFC0000003FFF
FFFC0000003FFF
FFFC0000003FFF
FFFC0000003FFF
FFFC0000003FFF
FFFC0000003FFF
FFFC0000003FFF
FFFC0000003FFF
FFFC0000003FFF
FFFC0000003FFF
FFFC0000003FFF
FFFC0000003FFF
FFFC0000003FFF
FFFE0000007FFF
FFFE0000007FFF
FFFE0000007FFE
7FFF000000FFFE
7FFF000000FFFE
7FFF800001FFFE
3FFFC00003FFFC
3FFFE00007FFFC
3FFFF0000FFFFC
1FFFFC003FFFF8
1FFFFF00FFFFF8
0FFFFFFFFFFFF0
07FFFFFFFFFFE0
07FFFFFFFFFFE0
03FFFFFFFFFFC0
01FFFFFFFFFF80
00FFFFFFFFFF00
007FFFFFFFFE00
003FFFFFFFFC00
001FFFFFFFF800
0007FFFFFFE000
0003FFFFFFC000
0000FFFFFF0000
00001FFFF80000
000003FF800000
ENDCHAR
STARTCHAR Oacute
ENCODING 211
SWIDTH 450 0
DWIDTH 72 0
BBX 56 136 8 0
BITMAP
00000007FFE000
00000007FFE000
0000000FFFC000
0000001FFF8000
0000001FFF0000
0000003FFE0000
0000007FFC0000
0000007FFC0000
000000FFF80000
000001FFF00000
000001FFE00000
000003FFC00000
000007FF800000
000007FF800000
00000FFF000000
00001FFE000000
00001FFC000000
00003FF8000000
00007FF0000000
00007FF0000000
0000FFE0000000
0001FFC0000000
00000000000000
00000000000000
000001FF800000
00001FFFF80000
00007FFFFE0000
0001FFFFFF8000
0007FFFFFFE000
000FFFFFFFF800
003FFFFFFFFC00
007FFFFFFFFE00
00FFFFFFFFFF00
01FFFFFFFFFF80
03FFFFFFFFFFC0
07FFFFFFFFFFE0
07FFFFFFFFFFE0
0FFFFFFFFFFFF0
1FFFFF01FFFFF8
1FFFFC003FFFF8
3FFFF0000FFFFC
3FFFE00007FFFC
3FFFC00003FFFC
7FFF800001FFFE
7FFF000000FFFE
7FFF000000FFFE
FFFE0000007FFF
FFFE0000007FFF
FFFC0000007FFF
FFFC0000003FFF
FFFC0000003FFF
FFFC0000003FFF
FFFC0000003FFF
FFFC0000003FFF
FFFC0000003FFF
FFFC0000003FFF
FFFC0000003FFF
FFFC0000003FFF
FFFC0000003FFF
FFFC0000003FFF
FFFC0000003FFF
FFFC0000003FFF
FFFC0000003FFF
FFFC0000003FFF
FFFC0000003FFF
FFFC0000003FFF
FFFC0000003FFF
FFFC0000003FFF
FFFC0000003FFF
FFFC0000003FFF
FFFC0000003FFF
FFFC0000003FFF
FFFC0000003FFF
FFFC0000003FFF
FFFC0000003FFF
FFFC0000003FFF
FFFC0000003FFF
FFFC0000003FFF
FFFC0000003FFF
FFFC0000003FFF
FFFC0000003FFF
FFFC0000003FFF
FFFC0000003FFF
FFFC0000003FFF
FFFC0000003FFF
FFFC0000003FFF
FFFC0000003FFF
FFFC0000003FFF
FFFC0000003FFF
FFFC0000003FFF
FFFC0000003FFF
FFFC0000003FFF
FFFC0000003FFF
FFFC0000003FFF
FFFC0000003FFF
FFFC0000003FFF
FFFC0000003FFF
FFFC0000003FFF
FFFC0000003FFF
FFFC0000003FFF
FFFC0000003FFF
FFFC0000003FFF
FFFC0000003FFF
FFFC0000003FFF
FFFC0000003FFF
FFFC0000003FFF
FFFC0000003FFF
FFFC0000003FFF
FFFC0000003FFF
FFFC0000003FFF
FFFC0000003FFF
FFFE0000007FFF
FFFE0000007FFF
FFFE0000007FFE
7FFF000000FFFE
7FFF000000FFFE
7FFF800001FFFE
3FFFC00003FFFC
3FFFE00007FFFC
3FFFF0000FFFFC
1FFFFC003FFFF8
1FFFFF00FFFFF8
0FFFFFFFFFFFF0
07FFFFFFFFFFE0
07FFFFFFFFFFE0
03FFFFFFFFFFC0
01FFFFFFFFFF80
00FFFFFFFFFF00
007FFFFFFFFE00
003FFFFFFFFC00
001FFFFFFFF800
0007FFFFFFE000
0003FFFFFFC000
0000FFFFFF0000
00001FFFF80000
000003FF800000
ENDCHAR
STARTCHAR Ocircumflex
ENCODING 212
SWIDTH 450 0
DWIDTH 72 0
BBX 56 136 8 0
BITMAP
000007FFE00000
00000FFFF00000
00001FFFF80000
00001FFFF80000
00003FFFFC0000
00007FFFFE0000
00007FFFFE0000
0000FFFFFF0000
0001FFFFFF8000
0001FFE7FF8000
0003FFE7FFC000
0007FFC3FFE000
0007FF81FFE000
000FFF00FFF000
001FFE007FF800
001FFC003FF800
003FFC003FFC00
007FF8001FFE00
007FF0000FFE00
00FFE00007FF00
01FFC00003FF80
01FF800003FF80
00000000000000
00000000000000
000001FF800000
00001FFFF80000
00007FFFFE0000
0001FFFFFF8000
0007FFFFFFE000
000FFFFFFFF800
003FFFFFFFFC00
007FFFFFFFFE00
00FFFFFFFFFF00
01FFFFFFFFFF80
03FFFFFFFFFFC0
07FFFFFFFFFFE0
07FFFFFFFFFFE0
0FFFFFFFFFFFF0
1FFFFF01FFFFF8
1FFFFC003FFFF8
3FFFF0000FFFFC
3FFFE00007FFFC
3FFFC00003FFFC
7FFF800001FFFE
7FFF000000FFFE
7FFF000000FFFE
FFFE0000007FFF
FFFE0000007FFF
FFFC0000007FFF
FFFC0000003FFF
FFFC0000003FFF
FFFC0000003FFF
FFFC0000003FFF
FFFC0000003FFF
FFFC0000003FFF
FFFC0000003FFF
FFFC0000003FFF
FFFC0000003FFF
FFFC0000003FFF
FFFC0000003FFF
FFFC0000003FFF
FFFC0000003FFF
FFFC0000003FFF
FFFC0000003FFF
FFFC0000003FFF
FFFC0000003FFF
FFFC0000003FFF
FFFC0000003FFF
FFFC0000003FFF
FFFC0000003FFF
FFFC0000003FFF
FFFC0000003FFF
FFFC0000003FFF
FFFC0000003FFF
FFFC0000003FFF
FFFC0000003FFF
FFFC0000003FFF
FFFC0000003FFF
FFFC0000003FFF
FFFC0000003FFF
FFFC0000003FFF
FFFC0000003FFF
FFFC0000003FFF
FFFC0000003FFF
FFFC0000003FFF
FFFC0000003FFF
FFFC0000003FFF
FFFC0000003FFF
FFFC0000003FFF
FFFC0000003FFF
FFFC0000003FFF
FFFC0000003FFF
FFFC0000003FFF
FFFC0000003FFF
FFFC0000003FFF
FFFC0000003FFF
FFFC0000003FFF
FFFC0000003FFF
FFFC0000003FFF
FFFC0000003FFF
FFFC0000003FFF
FFFC0000003FFF
FFFC0000003FFF
FFFC0000003FFF
FFFC0000003FFF
FFFC0000003FFF
FFFC0000003FFF
FFFC0000003FFF
FFFC0000003FFF
FFFC0000003FFF
FFFC0000003FFF
FFFE0000007FFF
FFFE0000007FFF
FFFE0000007FFE
7FFF000000FFFE
7FFF000000FFFE
7FFF800001FFFE
3FFFC00003FFFC
3FFFE00007FFFC
3FFFF0000FFFFC
1FFFFC003FFFF8
1FFFFF00FFFFF8
0FFFFFFFFFFFF0
07FFFFFFFFFFE0
07FFFFFFFFFFE0
03FFFFFFFFFFC0
01FFFFFFFFFF80
00FFFFFFFFFF00
007FFFFFFFFE00
003FFFFFFFFC00
001FFFFFFFF800
0007FFFFFFE000
0003FFFFFFC000
0000FFFFFF0000
00001FFFF80000
000003FF800000
ENDCHAR
STARTCHAR Otilde
ENCODING 213
SWIDTH 450 0
DWIDTH 72 0
BBX 56 112 8 0
BITMAP
000001FF800000
00001FFFF80000
00007FFFFE0000
0001FFFFFF8000
0007FFFFFFE000
000FFFFFFFF800
003FFFFFFFFC00
007FFFFFFFFE00
00FFFFFFFFFF00
01FFFFFFFFFF80
03FFFFFFFFFFC0
07FFFFFFFFFFE0
07FFFFFFFFFFE0
0FFFFFFFFFFFF0
1FFFFF01FFFFF8
1FFFFC003FFFF8
3FFFF0000FFFFC
3FFFE00007FFFC
3FFFC00003FFFC
7FFF800001FFFE
7FFF000000FFFE
7FFF000000FFFE
FFFE0000007FFF
FFFE0000007FFF
FFFC0000007FFF
FFFC0000003FFF
FFFC0000003FFF
FFFC0000003FFF
FFFC0000003FFF
FFFC0000003FFF
FFFC0000003FFF
FFFC0000003FFF
FFFC0000003FFF
FFFC0000003FFF
FFFC0000003FFF
FFFC0000003FFF
FFFC0000003FFF
FFFC0000003FFF
FFFC0000003FFF
FFFC0000003FFF
FFFC0000003FFF
FFFC0000003FFF
FFFC0000003FFF
FFFC0000003FFF
FFFC0000003FFF
FFFC0000003FFF
FFFC0000003FFF
FFFC0000003FFF
FFFC0000003FFF
FFFC0000003FFF
FFFC0000003FFF
FFFC0000003FFF
FFFC0000003FFF
FFFC0000003FFF
FFFC0000003FFF
FFFC0000003FFF
FFFC0000003FFF
FFFC0000003FFF
FFFC0000003FFF
FFFC0000003FFF
FFFC0000003FFF
FFFC0000003FFF
FFFC0000003FFF
FFFC0000003FFF
FFFC0000003FFF
FFFC0000003FFF
FFFC0000003FFF
FFFC0000003FFF
FFFC0000003FFF
FFFC0000003FFF
FFFC0000003FFF
FFFC0000003FFF
FFFC0000003FFF
FFFC0000003FFF
FFFC0000003FFF
FFFC0000003FFF
FFFC0000003FFF
FFFC0000003FFF
FFFC0000003FFF
FFFC0000003FFF
FFFC0000003FFF
FFFC0000003FFF
FFFC0000003FFF
FFFC0000003FFF
FFFC0000003FFF
FFFC0000003FFF
FFFC0000003FFF
FFFE0000007FFF
FFFE0000007FFF
FFFE0000007FFE
7FFF000000FFFE
7FFF000000FFFE
7FFF800001FFFE
3FFFC00003FFFC
3FFFE00007FFFC
3FFFF0000FFFFC
1FFFFC003FFFF8
1FFFFF00FFFFF8
0FFFFFFFFFFFF0
07FFFFFFFFFFE0
07FFFFFFFFFFE0
03FFFFFFFFFFC0
01FFFFFFFFFF80
00FFFFFFFFFF00
007FFFFFFFFE00
003FFFFFFFFC00
001FFFFFFFF800
0007FFFFFFE000
0003FFFFFFC000
0000FFFFFF0000
00001FFFF80000
000003FF800000
ENDCHAR
STARTCHAR Odieresis
ENCODING 214
SWIDTH 450 0
DWIDTH 72 0
BBX 56 136 8 0
BITMAP
000038001E0000
0001FE007F8000
0003FF00FFC000
0007FF81FFE000
0007FFC3FFE000
000FFFC3FFF000
000FFFC3FFF000
000FFFC3FFF000
000FFFC3FFF000
000FFFC3FFF000
0007FF83FFE000
0007FF81FFE000
0003FF00FFC000
0001FE007F8000
000030000C0000
00000000000000
00000000000000
00000000000000
00000000000000
00000000000000
00000000000000
00000000000000
00000000000000
00000000000000
000001FF800000
00001FFFF80000
00007FFFFE0000
0001FFFFFF8000
0007FFFFFFE000
000FFFFFFFF800
003FFFFFFFFC00
007FFFFFFFFE00
00FFFFFFFFFF00
01FFFFFFFFFF80
03FFFFFFFFFFC0
07FFFFFFFFFFE0
07FFFFFFFFFFE0
0FFFFFFFFFFFF0
1FFFFF01FFFFF8
1FFFFC003FFFF8
3FFFF0000FFFFC
3FFFE00007FFFC
3FFFC00003FFFC
7FFF800001FFFE
7FFF000000FFFE
7FFF000000FFFE
FFFE0000007FFF
FFFE0000007FFF
FFFC0000007FFF
FFFC0000003FFF
FFFC0000003FFF
FFFC0000003FFF
FFFC0000003FFF
FFFC0000003FFF
FFFC0000003FFF
FFFC0000003FFF
FFFC0000003FFF
FFFC0000003FFF
FFFC0000003FFF
FFFC0000003FFF
FFFC0000003FFF
FFFC0000003FFF
FFFC0000003FFF
FFFC0000003FFF
FFFC0000003FFF
FFFC0000003FFF
FFFC0000003FFF
FFFC0000003FFF
FFFC0000003FFF
FFFC0000003FFF
FFFC0000003FFF
FFFC0000003FFF
FFFC0000003FFF
FFFC0000003FFF
FFFC0000003FFF
FFFC0000003FFF
FFFC0000003FFF
FFFC0000003FFF
FFFC0000003FFF
FFFC0000003FFF
FFFC0000003FFF
FFFC0000003FFF
FFFC0000003FFF
FFFC0000003FFF
FFFC0000003FFF
FFFC0000003FFF
FFFC0000003FFF
FFFC0000003FFF
FFFC0000003FFF
FFFC0000003FFF
FFFC0000003FFF
FFFC0000003FFF
FFFC0000003FFF
FFFC0000003FFF
FFFC0000003FFF
FFFC0000003FFF
FFFC0000003FFF
FFFC0000003FFF
FFFC0000003FFF
FFFC0000003FFF
FFFC0000003FFF
FFFC0000003FFF
FFFC0000003FFF
FFFC0000003FFF
FFFC0000003FFF
FFFC0000003FFF
FFFC0000003FFF
FFFC0000003FFF
FFFC0000003FFF
FFFC0000003FFF
FFFC0000003FFF
FFFE0000007FFF
FFFE0000007FFF
FFFE0000007FFE
7FFF000000FFFE
7FFF000000FFFE
7FFF800001FFFE
3FFFC00003FFFC
3FFFE00007FFFC
3FFFF0000FFFFC
1FFFFC003FFFF8
1FFFFF00FFFFF8
0FFFFFFFFFFFF0
07FFFFFFFFFFE0
07FFFFFFFFFFE0
03FFFFFFFFFFC0
01FFFFFFFFFF80
00FFFFFFFFFF00
007FFFFFFFFE00
003FFFFFFFFC00
001FFFFFFFF800
0007FFFFFFE000
0003FFFFFFC000
0000FFFFFF0000
00001FFFF80000
000003FF800000
ENDCHAR
STARTCHAR multiply
ENCODING 215
SWIDTH 450 0
DWIDTH 72 0
BBX 1 1 0 0
BITMAP
00
ENDCHAR
STARTCHAR Oslash
ENCODING 216
SWIDTH 450 0
DWIDTH 72 0
BBX 1 1 0 0
BITMAP
00
ENDCHAR
STARTCHAR Ugrave
ENCODING 217
SWIDTH 450 0
DWIDTH 72 0
BBX 56 136 8 0
BITMAP
0001FFF8000000
0000FFFC000000
00007FFE000000
00003FFE000000
00003FFF000000
00001FFF800000
00000FFF800000
000007FFC00000
000003FFE00000
000001FFE00000
000001FFF00000
000000FFF80000
0000007FF80000
0000003FFC0000
0000001FFE0000
0000000FFE0000
0000000FFF0000
00000007FF8000
00000003FF8000
00000001FFC000
00000000FFE000
000000007FE000
00000000000000
00000000000000
FFFC0000003FFF
FFFC0000003FFF
FFFC0000003FFF
FFFC0000003FFF
FFFC0000003FFF
FFFC0000003FFF
FFFC0000003FFF
FFFC0000003FFF
FFFC0000003FFF
FFFC0000003FFF
FFFC0000003FFF
FFFC0000003FFF
FFFC0000003FFF
FFFC0000003FFF
FFFC0000003FFF
FFFC0000003FFF
FFFC0000003FFF
FFFC0000003FFF
FFFC0000003FFF
FFFC0000003FFF
FFFC0000003FFF
FFFC0000003FFF
FFFC0000003FFF
FFFC0000003FFF
FFFC0000003FFF
FFFC0000003FFF
FFFC0000003FFF
FFFC0000003FFF
FFFC0000003FFF
FFFC0000003FFF
FFFC0000003FFF
FFFC0000003FFF
FFFC0000003FFF
FFFC0000003FFF
FFFC0000003FFF
FFFC0000003FFF
FFFC0000003FFF
FFFC0000003FFF
FFFC0000003FFF
FFFC0000003FFF
FFFC0000003FFF
FFFC0000003FFF
FFFC0000003FFF
FFFC0000003FFF
FFFC0000003FFF
FFFC0000003FFF
FFFC0000003FFF
FFFC0000003FFF
FFFC0000003FFF
FFFC0000003FFF
FFFC0000003FFF
FFFC0000003FFF
FFFC0000003FFF
FFFC0000003FFF
FFFC0000003FFF
FFFC0000003FFF
FFFC0000003FFF
FFFC0000003FFF
FFFC0000003FFF
FFFC0000003FFF
FFFC0000003FFF
FFFC0000003FFF
FFFC0000003FFF
FFFC0000003FFF
FFFC0000003FFF
FFFC0000003FFF
FFFC0000003FFF
FFFC0000003FFF
FFFC0000003FFF
FFFC0000003FFF
FFFC0000003FFF
FFFC0000003FFF
FFFC0000003FFF
FFFC0000003FFF
FFFC0000003FFF
FFFC0000003FFF
FFFC0000003FFF
FFFC0000003FFF
FFFC0000003FFF
FFFC0000003FFF
FFFC0000003FFF
FFFC0000003FFF
FFFC0000003FFF
FFFC0000003FFF
FFFC0000003FFF
FFFC0000003FFF
FFFC0000003FFF
FFFE0000007FFF
FFFE0000007FFF
FFFE0000007FFE
7FFF000000FFFE
7FFF000000FFFE
7FFF800001FFFE
3FFFC00003FFFC
3FFFE00007FFFC
3FFFF0000FFFFC
1FFFFC003FFFF8
1FFFFF00FFFFF8
0FFFFFFFFFFFF0
07FFFFFFFFFFE0
07FFFFFFFFFFE0
03FFFFFFFFFFC0
01FFFFFFFFFF80
00FFFFFFFFFF00
007FFFFFFFFE00
003FFFFFFFFC00
001FFFFFFFF800
0007FFFFFFE000
0003FFFFFFC000
0000FFFFFF0000
00001FFFF80000
000003FF800000
ENDCHAR
STARTCHAR Uacute
ENCODING 218
SWIDTH 450 0
DWIDTH 72 0
BBX 56 136 8 0
BITMAP
00000007FFE000
00000007FFE000
0000000FFFC000
0000001FFF8000
0000001FFF0000
0000003FFE0000
0000007FFC0000
0000007FFC0000
000000FFF80000
000001FFF00000
000001FFE00000
000003FFC00000
000007FF800000
000007FF800000
00000FFF000000
00001FFE000000
00001FFC000000
00003FF8000000
00007FF0000000
00007FF0000000
0000FFE0000000
0001FFC0000000
00000000000000
00000000000000
FFFC0000003FFF
FFFC0000003FFF
FFFC0000003FFF
FFFC0000003FFF
FFFC0000003FFF
FFFC0000003FFF
FFFC0000003FFF
FFFC0000003FFF
FFFC0000003FFF
FFFC0000003FFF
FFFC0000003FFF
FFFC0000003FFF
FFFC0000003FFF
FFFC0000003FFF
FFFC0000003FFF
FFFC0000003FFF
FFFC0000003FFF
FFFC0000003FFF
FFFC0000003FFF
FFFC0000003FFF
FFFC0000003FFF
FFFC0000003FFF
FFFC0000003FFF
FFFC0000003FFF
FFFC0000003FFF
FFFC0000003FFF
FFFC0000003FFF
FFFC0000003FFF
FFFC0000003FFF
FFFC0000003FFF
FFFC0000003FFF
FFFC0000003FFF
FFFC0000003FFF
FFFC0000003FFF
FFFC0000003FFF
FFFC0000003FFF
FFFC0000003FFF
FFFC0000003FFF
FFFC0000003FFF
FFFC0000003FFF
FFFC0000003FFF
FFFC0000003FFF
FFFC0000003FFF
FFFC0000003FFF
FFFC0000003FFF
FFFC0000003FFF
FFFC0000003FFF
FFFC0000003FFF
FFFC0000003FFF
FFFC0000003FFF
FFFC0000003FFF
FFFC0000003FFF
FFFC0000003FFF
FFFC0000003FFF
FFFC0000003FFF
FFFC0000003FFF
FFFC0000003FFF
FFFC0000003FFF
FFFC0000003FFF
FFFC0000003FFF
FFFC0000003FFF
FFFC0000003FFF
FFFC0000003FFF
FFFC0000003FFF
FFFC0000003FFF
FFFC0000003FFF
FFFC0000003FFF
FFFC0000003FFF
FFFC0000003FFF
FFFC0000003FFF
FFFC0000003FFF
FFFC0000003FFF
FFFC0000003FFF
FFFC0000003FFF
FFFC0000003FFF
FFFC0000003FFF
FFFC0000003FFF
FFFC0000003FFF
FFFC0000003FFF
FFFC0000003FFF
FFFC0000003FFF
FFFC0000003FFF
FFFC0000003FFF
FFFC0000003FFF
FFFC0000003FFF
FFFC0000003FFF
FFFC0000003FFF
FFFE0000007FFF
FFFE0000007FFF
FFFE0000007FFE
7FFF000000FFFE
7FFF000000FFFE
7FFF800001FFFE
3FFFC00003FFFC
3FFFE00007FFFC
3FFFF0000FFFFC
1FFFFC003FFFF8
1FFFFF00FFFFF8
0FFFFFFFFFFFF0
07FFFFFFFFFFE0
07FFFFFFFFFFE0
03FFFFFFFFFFC0
01FFFFFFFFFF80
00FFFFFFFFFF00
007FFFFFFFFE00
003FFFFFFFFC00
001FFFFFFFF800
0007FFFFFFE000
0003FFFFFFC000
0000FFFFFF0000
00001FFFF80000
000003FF800000
ENDCHAR
ENDFONT
